<?xml version="1.0" standalone="no"?>
<!DOCTYPE svg PUBLIC "-//W3C//DTD SVG 20010904//EN"
 "http://www.w3.org/TR/2001/REC-SVG-20010904/DTD/svg10.dtd">
<svg version="1.0" xmlns="http://www.w3.org/2000/svg"
 width="359.000000pt" height="225.000000pt" viewBox="0 0 359.000000 225.000000"
 preserveAspectRatio="xMidYMid meet">

<g transform="translate(0.000000,225.000000) scale(0.100000,-0.100000)"
fill="#000000" stroke="none">
<path d="M3055 2198 c26 -89 19 -84 109 -86 44 -1 146 -4 225 -8 81 -4 142 -3
140 2 -3 5 -13 33 -24 62 l-20 52 -218 0 -218 0 6 -22z"/>
<path d="M327 2184 c-17 -18 -3 -24 53 -24 51 0 60 3 60 18 0 14 -2 14 -9 3
-9 -13 -41 -12 -82 4 -8 3 -18 2 -22 -1z"/>
<path d="M458 2168 l-23 -23 24 -3 c13 -2 28 1 34 7 8 8 7 11 -2 11 -8 0 -11
6 -7 15 8 21 0 19 -26 -7z"/>
<path d="M2540 2120 c0 -5 7 -10 15 -10 8 0 15 5 15 10 0 6 -7 10 -15 10 -8 0
-15 -4 -15 -10z"/>
<path d="M2590 2120 c0 -5 5 -10 10 -10 6 0 10 5 10 10 0 6 -4 10 -10 10 -5 0
-10 -4 -10 -10z"/>
<path d="M2675 2120 c-3 -5 -1 -10 4 -10 6 0 11 5 11 10 0 6 -2 10 -4 10 -3 0
-8 -4 -11 -10z"/>
<path d="M2710 2120 c0 -5 5 -10 10 -10 6 0 10 5 10 10 0 6 -4 10 -10 10 -5 0
-10 -4 -10 -10z"/>
<path d="M2755 2120 c-3 -5 1 -10 10 -10 9 0 13 5 10 10 -3 6 -8 10 -10 10 -2
0 -7 -4 -10 -10z"/>
<path d="M2925 2120 c-3 -5 -1 -10 4 -10 6 0 11 5 11 10 0 6 -2 10 -4 10 -3 0
-8 -4 -11 -10z"/>
<path d="M2163 2113 c9 -2 25 -2 35 0 9 3 1 5 -18 5 -19 0 -27 -2 -17 -5z"/>
<path d="M2230 2110 c0 -5 5 -10 10 -10 6 0 10 5 10 10 0 6 -4 10 -10 10 -5 0
-10 -4 -10 -10z"/>
<path d="M2278 2113 c7 -3 16 -2 19 1 4 3 -2 6 -13 5 -11 0 -14 -3 -6 -6z"/>
<path d="M2320 2110 c0 -5 5 -10 10 -10 6 0 10 5 10 10 0 6 -4 10 -10 10 -5 0
-10 -4 -10 -10z"/>
<path d="M2365 2110 c3 -5 10 -10 16 -10 5 0 9 5 9 10 0 6 -7 10 -16 10 -8 0
-12 -4 -9 -10z"/>
<path d="M2420 2109 c0 -5 5 -7 10 -4 6 3 10 8 10 11 0 2 -4 4 -10 4 -5 0 -10
-5 -10 -11z"/>
<path d="M2465 2110 c3 -5 8 -10 11 -10 2 0 4 5 4 10 0 6 -5 10 -11 10 -5 0
-7 -4 -4 -10z"/>
<path d="M2500 2110 c0 -5 5 -10 10 -10 6 0 10 5 10 10 0 6 -4 10 -10 10 -5 0
-10 -4 -10 -10z"/>
<path d="M2638 2113 c7 -3 16 -2 19 1 4 3 -2 6 -13 5 -11 0 -14 -3 -6 -6z"/>
<path d="M2805 2110 c3 -5 8 -10 11 -10 2 0 4 5 4 10 0 6 -5 10 -11 10 -5 0
-7 -4 -4 -10z"/>
<path d="M2650 2080 c0 -5 5 -10 11 -10 5 0 7 5 4 10 -3 6 -8 10 -11 10 -2 0
-4 -4 -4 -10z"/>
<path d="M2760 2081 c0 -5 5 -13 10 -16 6 -3 10 -2 10 4 0 5 -4 13 -10 16 -5
3 -10 2 -10 -4z"/>
<path d="M2840 2081 c0 -5 5 -13 10 -16 6 -3 10 -2 10 4 0 5 -4 13 -10 16 -5
3 -10 2 -10 -4z"/>
<path d="M2960 2080 c0 -5 5 -10 11 -10 5 0 7 5 4 10 -3 6 -8 10 -11 10 -2 0
-4 -4 -4 -10z"/>
<path d="M1493 2043 c-22 -8 -14 -23 12 -23 16 0 25 6 25 15 0 15 -14 18 -37
8z"/>
<path d="M1650 2039 c0 -5 5 -7 10 -4 6 3 10 8 10 11 0 2 -4 4 -10 4 -5 0 -10
-5 -10 -11z"/>
<path d="M1686 2035 c-4 -10 1 -15 14 -15 11 0 20 7 20 15 0 8 -6 15 -14 15
-8 0 -16 -7 -20 -15z"/>
<path d="M1760 2043 c8 -3 18 -10 21 -15 3 -5 9 -3 12 6 5 12 0 16 -21 15 -16
0 -21 -3 -12 -6z"/>
<path d="M1820 2035 c15 -19 73 -20 68 -2 -3 6 -22 13 -42 14 -32 2 -36 0 -26
-12z"/>
<path d="M2900 2030 c10 -19 50 -29 50 -12 0 14 -24 32 -42 32 -16 0 -17 -3
-8 -20z"/>
<path d="M2096 2025 c4 -10 20 -15 45 -15 28 0 39 4 39 15 0 11 -12 15 -45 15
-35 0 -43 -3 -39 -15z"/>
<path d="M2200 2025 c0 -8 9 -15 19 -15 10 0 21 7 25 15 4 11 -1 15 -19 15
-16 0 -25 -6 -25 -15z"/>
<path d="M2266 2025 c4 -8 15 -15 25 -15 10 0 19 7 19 15 0 9 -9 15 -25 15
-18 0 -23 -4 -19 -15z"/>
<path d="M2332 2028 c5 -15 77 -18 81 -3 1 6 -18 11 -42 13 -32 2 -42 0 -39
-10z"/>
<path d="M2455 2033 c11 -3 24 -9 30 -14 15 -14 45 -10 45 6 0 11 -11 15 -47
14 -27 -1 -39 -3 -28 -6z"/>
<path d="M2546 2025 c4 -10 20 -15 50 -15 32 0 44 4 44 15 0 11 -12 15 -50 15
-40 0 -48 -3 -44 -15z"/>
<path d="M2656 2026 c3 -9 22 -14 55 -14 35 0 49 4 49 14 0 10 -15 14 -55 14
-42 0 -53 -3 -49 -14z"/>
<path d="M2796 2027 c-16 -11 -11 -13 34 -13 45 0 50 2 34 13 -10 7 -25 13
-34 13 -9 0 -24 -6 -34 -13z"/>
<path d="M2960 2026 c0 -11 9 -16 26 -16 31 0 28 23 -4 28 -15 2 -22 -2 -22
-12z"/>
<path d="M70 1809 l0 -80 28 3 c19 2 28 9 30 26 4 29 32 29 32 -1 0 -21 36
-67 53 -67 11 0 8 79 -3 100 -7 13 -7 21 0 25 17 11 11 54 -9 65 -11 5 -45 10
-75 10 l-56 0 0 -81z m90 26 c0 -8 -6 -15 -14 -15 -17 0 -28 14 -19 24 12 12
33 6 33 -9z"/>
<path d="M220 1887 c0 -2 13 -28 30 -58 16 -30 30 -64 30 -77 0 -19 5 -23 27
-20 23 2 29 9 34 38 3 19 15 51 27 70 28 45 28 52 -5 48 -19 -2 -32 -12 -42
-32 l-14 -29 -13 31 c-11 26 -19 32 -44 32 -16 0 -30 -2 -30 -3z"/>
<path d="M400 1810 l0 -80 56 0 c30 0 64 5 75 10 21 12 26 56 7 63 -10 4 -10
7 0 18 18 19 15 47 -7 59 -11 5 -45 10 -75 10 l-56 0 0 -80z m88 32 c2 -7 -3
-12 -12 -12 -9 0 -16 7 -16 16 0 17 22 14 28 -4z m2 -63 c0 -5 -7 -9 -15 -9
-8 0 -15 7 -15 15 0 9 6 12 15 9 8 -4 15 -10 15 -15z"/>
<path d="M570 1810 l0 -81 68 3 c52 2 67 6 67 18 0 10 -12 16 -37 18 -48 4
-50 22 -3 22 28 0 35 4 35 20 0 16 -7 20 -35 20 -19 0 -35 5 -35 10 0 6 16 10
35 10 28 0 35 4 35 20 0 18 -7 20 -65 20 l-65 0 0 -80z"/>
<path d="M724 1876 c-3 -7 -4 -42 -2 -77 l3 -64 65 0 c58 0 65 2 65 20 0 16
-8 21 -37 23 l-38 3 0 55 c0 51 -1 54 -25 54 -14 0 -28 -6 -31 -14z"/>
<path d="M894 1880 c-46 -19 -36 -76 17 -87 41 -8 36 -23 -7 -23 -28 0 -35 -3
-32 -17 3 -20 53 -29 94 -19 55 14 50 81 -7 93 -41 8 -36 23 7 23 28 0 35 3
32 18 -4 19 -68 27 -104 12z"/>
<path d="M1020 1830 c0 -47 4 -64 20 -80 25 -25 80 -26 111 -1 19 15 23 28 24
77 0 57 -1 59 -27 62 -26 3 -27 2 -30 -55 -2 -44 -7 -58 -18 -58 -11 0 -16 14
-18 58 -3 56 -4 57 -32 57 -30 0 -30 0 -30 -60z"/>
<path d="M1212 1874 c-12 -8 -22 -24 -22 -34 0 -21 36 -50 62 -50 10 0 18 -4
18 -10 0 -5 -18 -10 -41 -10 -33 0 -40 -3 -37 -17 5 -25 81 -30 114 -8 37 24
30 67 -13 80 -47 16 -51 25 -10 25 30 0 37 4 37 20 0 17 -7 20 -43 20 -23 0
-53 -7 -65 -16z"/>
<path d="M1366 1874 c-19 -18 -21 -45 -4 -62 20 -20 32 -13 13 8 -11 13 -15
25 -10 37 8 17 8 17 12 0 8 -30 39 -57 52 -44 24 24 0 77 -34 77 -7 0 -21 -7
-29 -16z m58 -16 c8 -13 7 -21 -3 -30 -11 -11 -13 -9 -8 10 4 17 0 26 -16 33
-18 7 -18 9 -3 6 10 -1 24 -10 30 -19z"/>
<path d="M1577 1878 c-8 -5 -12 -93 -7 -180 0 -5 114 -8 254 -8 234 0 255 1
259 18 9 29 8 146 -1 159 -6 9 -74 13 -251 15 -134 2 -248 0 -254 -4z m91 -81
c2 -46 0 -57 -13 -57 -10 0 -15 10 -15 34 0 22 -6 36 -16 40 -15 6 -15 8 1 26
28 31 40 19 43 -43z m94 21 c2 -24 2 -51 0 -60 -5 -22 -32 -24 -32 -3 0 8 -6
12 -12 10 -7 -3 -19 -1 -27 4 -12 8 -10 16 12 50 36 53 54 53 59 -1z m176 -37
c4 -53 -21 -54 -27 0 l-4 34 -6 -35 c-7 -43 -36 -49 -36 -7 1 35 -13 35 -17 0
-6 -48 -28 -39 -28 11 l0 46 58 -2 57 -3 3 -44z m92 1 c0 -26 -5 -53 -12 -60
-18 -18 -58 -15 -58 4 0 10 6 14 15 11 8 -4 17 -2 20 3 3 5 -5 10 -17 12 -15
2 -24 11 -26 26 -5 32 15 52 49 52 28 0 29 -2 29 -48z"/>
<path d="M1985 1797 c-4 -10 -5 -21 -1 -24 10 -10 18 4 13 24 -4 17 -4 17 -12
0z"/>
<path d="M230 1586 c0 -50 2 -54 27 -61 29 -7 53 13 53 46 0 22 -26 43 -45 35
-10 -4 -15 1 -15 14 0 11 -4 20 -10 20 -5 0 -10 -24 -10 -54z m60 -21 c0 -18
-5 -25 -20 -25 -15 0 -20 7 -20 25 0 18 5 25 20 25 15 0 20 -7 20 -25z"/>
<path d="M330 1585 c0 -30 5 -55 10 -55 6 0 10 25 10 55 0 30 -4 55 -10 55 -5
0 -10 -25 -10 -55z"/>
<path d="M80 1612 c-10 -12 -11 -17 -2 -20 7 -2 12 -17 12 -32 0 -29 16 -48
28 -35 4 4 1 10 -5 12 -17 6 -17 50 -1 55 10 4 9 8 -2 20 -14 13 -17 13 -30 0z"/>
<path d="M459 1614 c-10 -13 -10 -17 1 -24 7 -4 10 -15 7 -23 -7 -19 18 -55
30 -43 4 5 2 11 -4 13 -17 6 -17 50 -1 55 9 3 8 9 -4 21 -14 15 -17 15 -29 1z"/>
<path d="M150 1600 c0 -5 10 -10 23 -11 20 -1 19 -2 -5 -11 -17 -6 -28 -17
-28 -28 0 -25 13 -32 45 -24 44 11 29 84 -17 84 -10 0 -18 -4 -18 -10z m40
-50 c0 -5 -9 -10 -21 -10 -11 0 -17 5 -14 10 3 6 13 10 21 10 8 0 14 -4 14
-10z"/>
<path d="M380 1596 c-27 -34 8 -88 46 -71 17 8 16 9 -8 13 -35 4 -37 22 -3 22
27 0 33 18 13 38 -16 16 -33 15 -48 -2z m40 -16 c0 -5 -7 -7 -15 -4 -8 4 -15
8 -15 10 0 2 7 4 15 4 8 0 15 -4 15 -10z"/>
<path d="M522 1598 c-9 -9 -7 -17 10 -35 18 -20 19 -23 5 -23 -9 0 -17 -4 -17
-10 0 -16 26 -12 41 6 11 14 9 19 -11 35 -20 15 -22 19 -7 19 9 0 17 5 17 10
0 14 -23 13 -38 -2z"/>
<path d="M624 1408 c1 -40 5 -63 14 -65 9 -4 12 13 12 61 0 48 -4 66 -13 66
-10 0 -13 -17 -13 -62z"/>
<path d="M850 1460 c0 -5 4 -10 9 -10 6 0 13 5 16 10 3 6 -1 10 -9 10 -9 0
-16 -4 -16 -10z"/>
<path d="M960 1451 c0 -14 -5 -18 -19 -14 -12 3 -24 -3 -35 -18 -29 -42 -14
-71 38 -75 35 -3 36 -2 37 31 1 19 2 49 3 65 1 18 -4 30 -11 30 -7 0 -13 -9
-13 -19z m-2 -64 c-2 -11 -9 -22 -15 -25 -16 -4 -27 22 -19 43 8 22 38 6 34
-18z"/>
<path d="M786 1441 c-12 -13 -14 -21 -7 -26 6 -3 11 -20 11 -36 0 -17 6 -32
15 -36 23 -8 28 2 13 26 -10 17 -10 25 0 41 10 17 10 23 -2 35 -12 12 -16 12
-30 -4z"/>
<path d="M93 1433 c-18 -7 -16 -42 2 -49 8 -4 15 -10 15 -15 0 -5 -7 -9 -15
-9 -8 0 -15 -5 -15 -11 0 -6 12 -9 28 -7 36 4 43 40 10 56 l-23 11 22 7 c13 3
20 10 17 15 -6 10 -21 10 -41 2z"/>
<path d="M164 1415 c-15 -23 -15 -27 0 -50 17 -25 59 -34 71 -15 4 6 -7 10
-24 10 -17 0 -31 5 -31 10 0 6 14 10 30 10 34 0 40 19 14 44 -22 23 -41 20
-60 -9z m51 -5 c3 -5 -3 -10 -15 -10 -12 0 -18 5 -15 10 3 6 10 10 15 10 5 0
12 -4 15 -10z"/>
<path d="M283 1432 c-20 -3 -23 -9 -23 -48 0 -24 5 -44 10 -44 6 0 10 11 10
24 0 60 27 76 32 19 4 -50 26 -55 30 -6 4 49 22 49 26 1 2 -21 7 -38 13 -38
11 0 13 90 2 91 -25 3 -81 4 -100 1z"/>
<path d="M433 1433 c-20 -8 -15 -22 6 -16 10 3 22 0 25 -6 4 -7 -1 -11 -12
-11 -25 0 -46 -25 -38 -45 4 -10 17 -14 41 -13 33 3 35 5 35 39 0 48 -21 67
-57 52z m32 -63 c-3 -5 -13 -10 -21 -10 -8 0 -14 5 -14 10 0 6 9 10 21 10 11
0 17 -4 14 -10z"/>
<path d="M528 1429 c-38 -21 -11 -100 28 -85 10 4 14 2 11 -6 -2 -7 -14 -13
-26 -12 -25 1 -23 -19 3 -24 32 -7 56 27 56 80 0 35 -4 48 -14 48 -8 0 -20 2
-28 5 -7 2 -21 0 -30 -6z m42 -39 c0 -24 -20 -37 -30 -19 -10 16 7 52 21 44 5
-4 9 -15 9 -25z"/>
<path d="M676 1433 c-11 -11 -6 -70 7 -80 6 -6 27 -10 45 -10 33 0 33 0 30 46
-3 52 -20 58 -28 10 -7 -46 -30 -50 -30 -5 0 34 -11 52 -24 39z"/>
<path d="M1015 1420 c-28 -31 -10 -74 33 -78 18 -2 32 1 32 7 0 6 -11 11 -25
11 -14 0 -25 5 -25 10 0 6 14 10 30 10 34 0 39 18 12 43 -24 22 -35 21 -57 -3z
m45 -10 c0 -5 -7 -10 -15 -10 -8 0 -15 5 -15 10 0 6 7 10 15 10 8 0 15 -4 15
-10z"/>
<path d="M850 1384 c0 -59 24 -55 28 4 2 33 0 42 -12 42 -12 0 -16 -11 -16
-46z"/>
<path d="M3550 1370 c-18 -12 -2 -12 25 0 13 6 15 9 5 9 -8 0 -22 -4 -30 -9z"/>
<path d="M3228 1333 c6 -2 18 -2 25 0 6 3 1 5 -13 5 -14 0 -19 -2 -12 -5z"/>
<path d="M3573 1171 c-22 -36 -76 -54 -126 -43 -33 7 -51 6 -68 -4 -16 -8 -45
-11 -85 -7 -50 5 -69 2 -100 -15 -22 -11 -47 -23 -56 -26 -17 -5 -18 -40 -18
-541 l0 -535 235 0 235 0 0 595 c0 327 -1 595 -3 595 -1 0 -8 -9 -14 -19z"/>
<path d="M85 1144 c-9 -9 -14 -23 -11 -31 3 -8 6 -18 6 -23 0 -14 31 -20 51
-10 32 18 19 80 -17 80 -7 0 -20 -7 -29 -16z m52 -38 c-4 -9 -16 -16 -27 -16
-15 0 -20 7 -20 24 0 13 6 26 13 29 18 7 41 -19 34 -37z"/>
<path d="M273 1120 c0 -25 2 -35 4 -22 2 12 2 32 0 45 -2 12 -4 2 -4 -23z"/>
<path d="M225 1130 c-3 -5 0 -10 7 -11 7 0 3 -4 -9 -9 -27 -11 -30 -25 -7 -34
22 -9 34 1 34 29 0 26 -15 41 -25 25z m15 -34 c0 -3 -4 -8 -10 -11 -5 -3 -10
-1 -10 4 0 6 5 11 10 11 6 0 10 -2 10 -4z"/>
<path d="M403 1123 c-4 -10 -1 -19 6 -21 9 -3 9 -7 0 -18 -9 -11 -9 -14 0 -14
16 0 27 33 13 38 -6 2 -8 10 -5 18 3 8 2 14 -1 14 -4 0 -10 -8 -13 -17z"/>
<path d="M160 1105 c0 -14 4 -25 9 -25 5 0 11 11 13 25 4 17 1 25 -8 25 -8 0
-14 -11 -14 -25z"/>
<path d="M330 1112 c0 -28 20 -43 42 -31 19 10 25 49 8 49 -5 0 -10 -9 -10
-20 0 -11 -4 -20 -10 -20 -5 0 -10 9 -10 20 0 11 -4 20 -10 20 -5 0 -10 -8
-10 -18z"/>
<path d="M443 1114 c-7 -18 23 -52 34 -40 5 5 2 11 -4 13 -7 3 -13 12 -12 21
0 11 2 12 6 5 7 -18 23 -16 23 2 0 20 -39 19 -47 -1z"/>
<path d="M2686 374 c-9 -8 -16 -21 -17 -27 0 -7 -2 -25 -3 -42 -2 -19 6 -40
21 -58 25 -32 28 -49 12 -78 -6 -11 -8 -25 -6 -32 3 -7 12 5 22 27 17 39 37
39 40 -1 0 -10 5 -19 10 -20 6 -1 8 8 7 20 -8 48 -7 51 21 53 32 3 36 -18 11
-54 -9 -13 -14 -25 -11 -28 2 -2 15 11 28 30 26 38 43 39 29 1 -8 -22 -7 -25
11 -25 18 0 20 5 17 68 l-3 67 -40 1 c-58 1 -115 13 -115 24 0 6 -6 10 -14 10
-8 0 -18 4 -21 10 -4 7 2 7 19 1 25 -10 36 1 36 34 0 25 -36 37 -54 19z m31
-30 c-9 -9 -28 6 -21 18 4 6 10 6 17 -1 6 -6 8 -13 4 -17z m-13 -69 c-4 -8
-10 -12 -15 -9 -14 8 -10 24 6 24 9 0 12 -6 9 -15z m29 -22 c-5 -13 -2 -15 15
-11 25 7 28 2 8 -17 -11 -11 -17 -12 -30 -2 -17 12 -13 47 5 47 4 0 6 -7 2
-17z m112 -13 c3 -5 -1 -10 -9 -10 -9 0 -16 5 -16 10 0 6 4 10 9 10 6 0 13 -4
16 -10z"/>
<path d="M55 151 c-3 -6 0 -8 8 -5 25 9 30 -16 8 -40 -29 -30 -27 -36 12 -35
24 1 27 3 9 6 -22 4 -23 6 -7 23 9 10 15 27 13 37 -4 20 -33 30 -43 14z"/>
<path d="M128 136 c-12 -28 -5 -54 17 -62 35 -14 61 46 33 74 -19 19 -37 14
-50 -12z m42 -21 c0 -24 -5 -35 -15 -35 -10 0 -15 11 -15 35 0 24 5 35 15 35
10 0 15 -11 15 -35z"/>
<path d="M340 118 c0 -21 4 -38 9 -38 5 0 8 6 7 13 0 6 4 12 9 12 6 0 9 -8 8
-18 -2 -10 2 -15 7 -12 16 10 11 45 -7 52 -10 4 -21 11 -25 17 -4 6 -8 -6 -8
-26z"/>
<path d="M413 115 c0 -22 2 -30 4 -17 2 12 2 30 0 40 -3 9 -5 -1 -4 -23z"/>
<path d="M233 119 c4 -13 7 -30 7 -36 0 -7 3 -13 8 -13 13 0 6 64 -8 68 -9 3
-11 -2 -7 -19z"/>
<path d="M503 111 c3 -40 22 -47 21 -8 0 17 -6 33 -12 35 -7 2 -10 -8 -9 -27z"/>
<path d="M293 125 c4 -5 0 -16 -9 -26 -10 -11 -12 -19 -5 -24 6 -3 11 1 11 9
0 19 16 21 24 4 3 -7 4 -2 3 11 -1 14 -9 27 -17 29 -8 3 -12 1 -7 -3z"/>
<path d="M440 115 c-10 -12 -10 -19 -2 -27 9 -9 12 -7 12 10 0 12 5 22 11 22
5 0 7 -4 4 -10 -3 -5 1 -10 10 -10 20 0 14 24 -7 28 -8 2 -21 -4 -28 -13z"/>
<path d="M545 120 c-4 -6 -2 -17 4 -24 6 -7 8 -16 4 -20 -4 -4 0 -4 10 0 13 5
15 10 6 20 -6 7 -8 18 -4 24 3 5 2 10 -4 10 -5 0 -13 -5 -16 -10z"/>
<path d="M2888 125 c-8 -8 2 -45 13 -45 10 0 10 8 0 33 -3 10 -9 15 -13 12z"/>
<path d="M2574 109 c-3 -5 0 -8 8 -7 7 2 12 -3 11 -9 -2 -7 1 -13 6 -13 5 0
16 -3 24 -6 9 -3 20 2 26 14 8 15 7 21 -3 25 -10 4 -12 0 -9 -14 3 -10 0 -19
-6 -19 -6 0 -11 6 -11 14 0 16 -37 28 -46 15z"/>
<path d="M2757 113 c-4 -3 -7 -13 -6 -22 0 -12 3 -11 9 4 7 18 8 19 15 3 9
-22 25 -24 25 -3 0 8 5 15 10 15 6 0 10 -7 10 -15 0 -21 17 -19 22 3 4 13 -1
18 -18 17 -12 0 -26 -3 -30 -7 -4 -4 -12 -3 -19 2 -7 5 -15 7 -18 3z"/>
<path d="M2670 95 c-11 -13 -10 -14 3 -10 8 4 18 2 21 -4 9 -14 36 -2 36 15 0
8 -4 14 -10 14 -5 0 -9 -3 -7 -7 1 -5 -2 -8 -8 -8 -5 0 -9 3 -7 8 4 13 -15 7
-28 -8z"/>
<path d="M2860 96 c0 -8 4 -17 9 -20 5 -4 7 3 4 14 -6 23 -13 26 -13 6z"/>
<path d="M2929 98 c16 -22 48 -24 48 -4 0 11 -5 12 -17 6 -11 -6 -22 -5 -30 3
-12 10 -12 9 -1 -5z"/>
</g>
</svg>
