<?xml version="1.0" standalone="no"?>
<!DOCTYPE svg PUBLIC "-//W3C//DTD SVG 20010904//EN"
 "http://www.w3.org/TR/2001/REC-SVG-20010904/DTD/svg10.dtd">
<svg version="1.0" xmlns="http://www.w3.org/2000/svg"
 width="359.000000pt" height="225.000000pt" viewBox="0 0 359.000000 225.000000"
 preserveAspectRatio="xMidYMid meet">

<g transform="translate(0.000000,225.000000) scale(0.100000,-0.100000)"
fill="#000000" stroke="none">
<path d="M3076 2188 c3 -13 12 -36 19 -53 l13 -30 1 33 c1 21 -3 31 -9 27 -7
-4 -9 2 -4 19 5 20 2 26 -11 26 -12 0 -15 -5 -9 -22z"/>
<path d="M460 2188 c0 -9 -8 -19 -17 -21 -10 -3 -2 -6 17 -7 19 -1 29 -4 23
-7 -24 -9 -13 -20 17 -15 29 4 53 22 30 22 -7 0 -9 8 -4 22 6 21 6 21 -10 5
-22 -21 -26 -21 -42 1 -12 16 -13 16 -14 0z"/>
<path d="M357 2183 c-15 -14 -6 -23 23 -23 32 0 40 14 14 24 -20 8 -29 8 -37
-1z"/>
<path d="M2246 2121 c-4 -7 -5 -15 -2 -18 9 -9 19 4 14 18 -4 11 -6 11 -12 0z"/>
<path d="M2560 2115 c0 -8 4 -15 9 -15 5 0 11 7 15 15 3 9 0 15 -9 15 -8 0
-15 -7 -15 -15z"/>
<path d="M2606 2115 c4 -8 10 -12 15 -9 11 6 2 24 -11 24 -5 0 -7 -7 -4 -15z"/>
<path d="M2940 2120 c0 -4 9 -10 20 -13 11 -3 20 -2 20 3 0 4 -9 10 -20 13
-11 3 -20 2 -20 -3z"/>
<path d="M3328 2123 c6 -2 18 -2 25 0 6 3 1 5 -13 5 -14 0 -19 -2 -12 -5z"/>
<path d="M2208 2113 c7 -3 16 -2 19 1 4 3 -2 6 -13 5 -11 0 -14 -3 -6 -6z"/>
<path d="M2290 2109 c0 -5 5 -7 10 -4 6 3 10 8 10 11 0 2 -4 4 -10 4 -5 0 -10
-5 -10 -11z"/>
<path d="M2330 2110 c0 -5 5 -10 10 -10 6 0 10 5 10 10 0 6 -4 10 -10 10 -5 0
-10 -4 -10 -10z"/>
<path d="M2380 2110 c0 -5 5 -10 10 -10 6 0 10 5 10 10 0 6 -4 10 -10 10 -5 0
-10 -4 -10 -10z"/>
<path d="M2430 2110 c0 -5 5 -10 10 -10 6 0 10 5 10 10 0 6 -4 10 -10 10 -5 0
-10 -4 -10 -10z"/>
<path d="M2480 2110 c0 -5 5 -10 10 -10 6 0 10 5 10 10 0 6 -4 10 -10 10 -5 0
-10 -4 -10 -10z"/>
<path d="M2520 2110 c0 -5 5 -10 10 -10 6 0 10 5 10 10 0 6 -4 10 -10 10 -5 0
-10 -4 -10 -10z"/>
<path d="M2655 2110 c3 -5 8 -10 11 -10 2 0 4 5 4 10 0 6 -5 10 -11 10 -5 0
-7 -4 -4 -10z"/>
<path d="M2735 2110 c3 -5 8 -10 11 -10 2 0 4 5 4 10 0 6 -5 10 -11 10 -5 0
-7 -4 -4 -10z"/>
<path d="M2775 2110 c3 -5 8 -10 11 -10 2 0 4 5 4 10 0 6 -5 10 -11 10 -5 0
-7 -4 -4 -10z"/>
<path d="M2820 2109 c0 -5 5 -7 10 -4 6 3 10 8 10 11 0 2 -4 4 -10 4 -5 0 -10
-5 -10 -11z"/>
<path d="M2860 2110 c0 -5 5 -10 10 -10 6 0 10 5 10 10 0 6 -4 10 -10 10 -5 0
-10 -4 -10 -10z"/>
<path d="M2895 2110 c3 -5 10 -10 16 -10 5 0 9 5 9 10 0 6 -7 10 -16 10 -8 0
-12 -4 -9 -10z"/>
<path d="M3203 2113 c15 -2 37 -2 50 0 12 2 0 4 -28 4 -27 0 -38 -2 -22 -4z"/>
<path d="M2890 2080 c0 -5 5 -10 11 -10 5 0 7 5 4 10 -3 6 -8 10 -11 10 -2 0
-4 -4 -4 -10z"/>
<path d="M2855 2070 c3 -5 8 -10 11 -10 2 0 4 5 4 10 0 6 -5 10 -11 10 -5 0
-7 -4 -4 -10z"/>
<path d="M2975 2070 c3 -5 8 -10 11 -10 2 0 4 5 4 10 0 6 -5 10 -11 10 -5 0
-7 -4 -4 -10z"/>
<path d="M1520 2042 c0 -4 -15 -6 -34 -4 -18 2 -36 0 -40 -6 -3 -5 13 -10 39
-10 33 -1 45 3 45 13 0 8 -2 15 -5 15 -3 0 -5 -4 -5 -8z"/>
<path d="M1701 2034 c0 -11 3 -14 6 -6 3 7 2 16 -1 19 -3 4 -6 -2 -5 -13z"/>
<path d="M1726 2041 c-4 -7 -5 -15 -2 -18 9 -9 19 4 14 18 -4 11 -6 11 -12 0z"/>
<path d="M2907 2031 c5 -18 13 -21 60 -21 39 0 53 4 50 13 -2 6 -19 13 -38 14
-19 0 -44 4 -56 8 -18 6 -21 4 -16 -14z"/>
<path d="M1790 2030 c0 -5 18 -10 40 -10 22 0 40 5 40 10 0 6 -18 10 -40 10
-22 0 -40 -4 -40 -10z"/>
<path d="M2092 2028 c3 -7 23 -14 46 -16 33 -2 42 0 42 12 0 12 -11 16 -46 16
-32 0 -44 -4 -42 -12z"/>
<path d="M2207 2033 c-13 -12 -7 -23 13 -23 11 0 20 5 20 10 0 6 7 10 15 10 8
0 15 -4 15 -10 0 -5 9 -10 20 -10 11 0 20 7 20 15 0 11 -12 15 -48 15 -27 0
-52 -3 -55 -7z"/>
<path d="M2332 2028 c3 -8 24 -14 52 -16 36 -2 47 0 44 10 -3 8 -24 14 -52 16
-36 2 -47 0 -44 -10z"/>
<path d="M2463 2033 c15 -2 27 -9 27 -14 0 -5 12 -9 26 -9 16 0 24 5 22 13 -3
7 -24 13 -54 13 -27 1 -37 0 -21 -3z"/>
<path d="M2550 2025 c0 -11 12 -15 50 -15 38 0 50 4 50 15 0 11 -12 15 -50 15
-38 0 -50 -4 -50 -15z"/>
<path d="M2670 2025 c0 -11 12 -15 50 -15 38 0 50 4 50 15 0 11 -12 15 -50 15
-38 0 -50 -4 -50 -15z"/>
<path d="M2807 2026 c-16 -12 -11 -14 35 -14 47 0 50 2 33 14 -23 17 -45 17
-68 0z"/>
<path d="M1258 1876 c-57 -19 -49 -78 13 -91 41 -9 25 -28 -17 -20 -29 5 -34
3 -34 -13 0 -15 9 -21 38 -24 94 -12 143 58 62 89 -44 18 -44 38 1 28 24 -6
29 -3 29 13 0 25 -44 33 -92 18z"/>
<path d="M100 1805 l0 -75 30 0 c25 0 30 4 30 25 0 15 6 25 14 25 15 0 29 -27
21 -39 -2 -5 9 -21 26 -37 l31 -29 -3 67 c-2 36 0 70 4 74 12 12 8 31 -9 48
-11 11 -35 16 -80 16 l-64 0 0 -75z m90 35 c13 -9 13 -11 0 -19 -17 -12 -30
-5 -30 15 0 16 9 18 30 4z"/>
<path d="M260 1875 c0 -3 11 -28 25 -55 14 -27 25 -58 25 -70 0 -16 7 -20 30
-20 25 0 30 4 30 24 0 13 11 44 25 67 31 56 31 59 -5 59 -23 0 -31 -5 -36 -25
-3 -14 -10 -25 -14 -25 -4 0 -11 11 -14 25 -5 20 -13 25 -36 25 -17 0 -30 -2
-30 -5z"/>
<path d="M430 1805 l0 -75 70 0 c57 0 71 3 79 18 7 14 6 25 -5 40 -9 13 -11
23 -4 27 16 10 12 52 -6 59 -9 3 -42 6 -75 6 l-59 0 0 -75z m88 33 c-6 -18
-28 -21 -28 -4 0 9 7 16 16 16 9 0 14 -5 12 -12z m5 -63 c1 -5 -6 -11 -15 -13
-11 -2 -18 3 -18 13 0 17 30 18 33 0z"/>
<path d="M600 1805 l0 -76 68 3 c52 2 67 6 67 18 0 10 -11 15 -32 16 -38 0
-41 19 -3 19 16 0 26 6 28 18 3 14 -4 17 -32 17 -20 0 -36 5 -36 10 0 6 15 10
33 10 38 0 48 6 40 26 -4 10 -23 14 -69 14 l-64 0 0 -75z"/>
<path d="M750 1805 l0 -75 65 0 c58 0 65 2 65 19 0 15 -8 21 -32 23 -32 3 -33
4 -36 56 -3 50 -4 52 -33 52 l-29 0 0 -75z"/>
<path d="M904 1855 c-16 -24 -15 -27 0 -44 10 -11 28 -22 42 -25 39 -10 29
-29 -11 -23 -29 5 -35 3 -35 -12 0 -33 95 -36 121 -5 19 23 6 58 -28 73 -41
18 -43 35 -3 28 25 -6 30 -3 30 13 0 17 -7 20 -50 20 -42 0 -52 -4 -66 -25z"/>
<path d="M1050 1822 c0 -44 5 -63 18 -74 42 -37 115 -26 129 20 4 15 7 46 5
70 -3 40 -5 43 -29 40 -23 -3 -27 -8 -28 -43 -3 -62 -4 -65 -20 -65 -12 0 -15
13 -15 55 0 54 0 55 -30 55 -30 0 -30 0 -30 -58z"/>
<path d="M1392 1868 c-19 -19 -14 -56 9 -68 16 -9 26 -8 45 5 28 18 31 37 8
59 -18 19 -45 21 -62 4z m58 -14 c11 -13 10 -19 -8 -36 -17 -18 -23 -19 -36
-8 -16 13 -21 42 -9 53 11 12 40 7 53 -9z"/>
<path d="M1406 1851 c-9 -14 -2 -24 19 -27 8 -1 15 4 15 12 0 9 -4 13 -9 10
-5 -4 -11 -1 -13 6 -3 9 -6 9 -12 -1z"/>
<path d="M1603 1873 c-19 -7 -18 -179 1 -186 7 -3 123 -5 257 -4 l244 2 0 95
0 95 -245 2 c-135 1 -251 -1 -257 -4z m77 -13 c0 -5 6 -7 14 -4 8 3 24 1 35
-5 17 -9 20 -20 18 -58 -2 -45 -4 -48 -35 -54 -66 -13 -43 -19 76 -19 70 0
123 4 127 10 3 6 -1 10 -9 10 -11 0 -17 10 -18 33 l-1 32 -4 -32 c-6 -43 -33
-45 -33 -3 0 17 -4 30 -10 30 -5 0 -10 -13 -10 -30 0 -20 -5 -30 -15 -30 -13
0 -19 29 -14 66 0 4 -5 10 -11 14 -7 4 19 7 57 6 l68 -1 3 -35 c2 -19 8 -40
13 -46 7 -8 5 -14 -3 -17 -8 -2 -9 -8 -4 -13 5 -5 11 -4 13 4 3 6 14 12 26 12
21 0 21 1 -3 13 -14 7 -26 20 -28 30 -5 24 26 70 41 60 6 -4 30 -6 54 -4 41 2
43 1 42 -26 0 -16 -3 -22 -6 -13 -6 15 -23 30 -34 30 -4 0 -9 -23 -11 -50 -6
-59 -8 -62 -46 -65 -16 -1 -34 -5 -40 -9 -7 -4 -12 -2 -12 4 0 8 -39 10 -129
8 -71 -2 -127 0 -124 5 2 4 0 7 -6 7 -5 0 -13 -4 -16 -10 -3 -5 -16 -10 -28
-10 -21 1 -21 1 -3 11 15 9 16 13 5 21 -10 7 -7 7 8 3 24 -7 50 3 54 20 1 6
10 9 21 7 10 -2 18 2 18 7 0 6 -9 11 -20 11 -13 0 -18 5 -14 15 4 8 12 15 20
15 8 0 14 5 14 10 0 6 -11 8 -26 4 -20 -5 -25 -4 -20 5 4 7 2 18 -4 26 -9 11
-9 15 -1 15 6 0 11 -4 11 -10z m330 1 c0 -11 -31 -24 -39 -16 -3 3 1 10 9 15
19 12 30 12 30 1z m-350 -23 c0 -6 -7 -7 -16 -4 -9 3 -23 6 -32 6 -14 0 -14 2
-3 9 16 10 51 3 51 -11z m149 6 c2 -2 -7 -4 -22 -4 -14 0 -29 5 -32 10 -6 10
42 4 54 -6z m71 6 c0 -5 -4 -10 -10 -10 -5 0 -10 5 -10 10 0 6 5 10 10 10 6 0
10 -4 10 -10z m70 0 c0 -4 -5 -11 -11 -17 -9 -9 -15 -8 -25 2 -19 18 -18 20
11 20 14 0 25 -2 25 -5z m140 -17 c0 -23 -2 -25 -12 -11 -7 9 -22 19 -33 21
-11 2 -8 3 8 2 15 -1 27 2 27 7 0 4 2 8 5 8 3 0 5 -12 5 -27z m-450 -18 c9
-11 9 -19 -3 -35 -14 -20 -15 -20 -19 14 -4 38 2 45 22 21z m416 -70 c-20 -20
-29 -19 -18 3 5 9 7 24 4 32 -4 11 -1 10 12 -3 16 -15 16 -19 2 -32z m31 -41
c-3 -3 -20 0 -38 5 l-34 11 31 -3 c19 -2 31 2 31 10 0 6 -5 9 -11 6 -6 -4 -4
2 4 12 14 17 15 17 18 -9 2 -15 1 -30 -1 -32z m-312 36 c3 -5 -1 -10 -10 -10
-9 0 -13 5 -10 10 3 6 8 10 10 10 2 0 7 -4 10 -10z"/>
<path d="M1960 1786 c0 -9 7 -16 16 -16 17 0 14 22 -4 28 -7 2 -12 -3 -12 -12z"/>
<path d="M262 1583 l3 -58 35 0 c33 0 35 2 35 35 0 31 -3 35 -27 38 -20 2 -28
9 -28 23 0 10 -5 19 -10 19 -7 0 -10 -22 -8 -57z m58 -9 c11 -12 11 -18 -2
-31 -19 -18 -38 -10 -38 16 0 33 20 40 40 15z"/>
<path d="M360 1580 c0 -33 4 -60 10 -60 6 0 10 27 10 60 0 33 -4 60 -10 60 -6
0 -10 -27 -10 -60z"/>
<path d="M112 1605 c-7 -8 -8 -15 -3 -15 5 0 11 -15 13 -32 2 -24 8 -33 23
-35 11 -2 14 0 8 3 -16 7 -17 64 -2 64 6 0 4 7 -5 15 -18 18 -18 18 -34 0z"/>
<path d="M493 1605 c-6 -7 -8 -16 -3 -21 5 -5 10 -20 12 -33 1 -14 10 -27 18
-29 12 -4 13 -3 2 10 -9 11 -10 23 -3 41 12 31 -6 53 -26 32z"/>
<path d="M180 1592 c0 -6 9 -8 20 -5 11 3 20 1 20 -5 0 -5 -12 -13 -26 -16
-37 -10 -28 -40 14 -44 33 -3 33 -3 30 35 -3 33 -7 38 -30 41 -16 2 -28 -1
-28 -6z m40 -41 c0 -12 -20 -25 -27 -18 -7 7 6 27 18 27 5 0 9 -4 9 -9z"/>
<path d="M404 1576 c-8 -33 10 -56 44 -56 14 0 22 3 18 7 -4 4 -15 8 -23 8 -9
0 -18 6 -20 13 -3 7 5 12 22 12 37 0 30 34 -7 38 -22 3 -29 -2 -34 -22z m51 4
c3 -5 -3 -10 -15 -10 -12 0 -18 5 -15 10 3 6 10 10 15 10 5 0 12 -4 15 -10z"/>
<path d="M550 1581 c0 -10 7 -21 15 -25 20 -7 19 -24 -2 -29 -14 -4 -13 -5 4
-6 31 -1 38 17 17 40 -16 17 -16 22 -4 29 12 8 10 10 -7 10 -16 0 -23 -6 -23
-19z"/>
<path d="M660 1405 c0 -37 4 -65 10 -65 6 0 10 28 10 65 0 37 -4 65 -10 65 -6
0 -10 -28 -10 -65z"/>
<path d="M882 1461 c2 -7 7 -12 11 -12 12 1 9 15 -3 20 -7 2 -11 -2 -8 -8z"/>
<path d="M990 1446 c0 -19 -4 -22 -25 -19 -19 4 -27 0 -36 -20 -10 -22 -9 -31
5 -52 11 -17 23 -24 33 -21 8 3 21 6 29 6 11 0 14 16 14 65 0 37 -4 65 -10 65
-5 0 -10 -11 -10 -24z m-3 -52 c3 -8 -1 -23 -10 -32 -15 -14 -17 -14 -23 1 -8
21 1 47 16 47 6 0 13 -7 17 -16z"/>
<path d="M810 1433 c-10 -12 -11 -18 -2 -21 7 -2 12 -16 12 -32 0 -32 20 -53
39 -41 10 6 9 10 -3 14 -19 7 -22 53 -4 59 9 3 8 9 -4 21 -20 20 -19 20 -38 0z"/>
<path d="M113 1414 c-4 -11 2 -23 17 -34 15 -11 19 -19 11 -24 -6 -4 -15 -4
-21 -1 -5 3 -10 2 -10 -3 0 -6 7 -13 16 -16 21 -8 20 -8 38 9 17 18 11 45 -10
45 -8 0 -14 5 -14 10 0 6 7 10 15 10 8 0 15 5 15 10 0 17 -50 11 -57 -6z"/>
<path d="M202 1418 c-17 -17 -15 -54 4 -72 17 -18 24 -19 48 -10 26 10 18 25
-9 18 -15 -4 -25 -2 -25 5 0 10 21 16 43 12 12 -2 8 34 -5 47 -7 7 -19 12 -28
12 -9 0 -21 -5 -28 -12z m48 -18 c0 -5 -9 -10 -21 -10 -11 0 -17 5 -14 10 3 6
13 10 21 10 8 0 14 -4 14 -10z"/>
<path d="M290 1384 c0 -32 4 -44 15 -44 10 0 15 11 15 35 0 24 5 35 15 35 10
0 15 -11 15 -35 0 -44 18 -46 22 -3 4 46 28 49 28 3 0 -41 22 -45 25 -4 4 46
-9 56 -75 56 l-60 0 0 -43z"/>
<path d="M455 1421 c-4 -7 4 -11 19 -11 14 0 26 -4 26 -10 0 -5 -11 -10 -25
-10 -31 0 -45 -28 -22 -45 9 -6 29 -10 45 -7 27 4 28 6 23 45 -5 36 -10 42
-33 45 -14 2 -29 -2 -33 -7z m45 -50 c0 -14 -18 -23 -30 -16 -6 4 -8 11 -5 16
8 12 35 12 35 0z"/>
<path d="M552 1418 c-29 -29 -9 -78 30 -78 17 0 27 -4 23 -10 -3 -5 -17 -10
-31 -10 -13 0 -24 -4 -24 -10 0 -14 54 -12 68 2 7 7 12 35 12 63 0 52 0 52
-33 53 -19 1 -39 -4 -45 -10z m51 -20 c6 -19 -3 -38 -18 -38 -7 0 -15 6 -18
13 -6 18 3 37 18 37 7 0 15 -6 18 -12z"/>
<path d="M707 1423 c-12 -12 -7 -61 7 -76 9 -8 26 -12 45 -9 29 4 31 7 31 49
0 53 -22 56 -30 4 -7 -44 -24 -44 -28 2 -3 35 -11 45 -25 30z"/>
<path d="M886 1423 c-3 -3 -6 -24 -6 -45 0 -27 4 -38 15 -38 11 0 14 11 13 40
-1 40 -9 56 -22 43z"/>
<path d="M1042 1418 c-31 -31 10 -98 52 -82 23 9 20 27 -3 19 -11 -3 -22 -1
-26 5 -4 6 4 10 19 10 31 0 40 14 26 40 -12 22 -49 27 -68 8z m48 -18 c0 -5
-7 -10 -15 -10 -8 0 -15 5 -15 10 0 6 7 10 15 10 8 0 15 -4 15 -10z"/>
<path d="M114 1125 c-7 -29 10 -55 37 -55 24 0 39 29 28 58 -12 32 -57 30 -65
-3z m54 -9 c2 -10 -1 -23 -7 -29 -16 -16 -44 14 -35 37 8 22 38 17 42 -8z"/>
<path d="M300 1109 c0 -24 4 -38 10 -34 6 3 10 22 10 41 0 19 -4 34 -10 34 -5
0 -10 -18 -10 -41z"/>
<path d="M3550 1123 c-31 -22 -32 -24 -10 -20 l25 6 -1 -242 c0 -133 -2 -260
-4 -282 l-3 -40 -7 40 -7 40 -2 -47 c0 -27 4 -48 11 -50 16 -6 25 -312 9 -322
-6 -4 -11 -2 -11 3 0 6 -12 11 -26 11 -22 0 -25 -3 -20 -23 3 -12 6 -26 6 -30
0 -5 5 -5 10 -2 6 3 10 -1 10 -9 0 -8 7 -22 16 -30 10 -10 11 -16 4 -16 -8 0
-10 -10 -8 -24 4 -20 0 -26 -16 -28 -12 -2 -20 -7 -19 -13 3 -13 83 -18 83 -5
0 6 -6 10 -12 10 -9 0 -8 4 2 10 13 9 13 10 0 10 -11 0 -12 2 -2 8 10 7 12
121 10 539 l-3 531 -35 -25z"/>
<path d="M201 1098 c1 -22 3 -26 6 -13 3 11 10 26 15 33 8 9 6 12 -6 12 -12 0
-16 -9 -15 -32z"/>
<path d="M258 1122 c11 -7 11 -10 -2 -15 -25 -10 -20 -39 7 -35 30 4 32 51 2
56 -15 2 -16 1 -7 -6z m12 -32 c0 -5 -5 -10 -11 -10 -5 0 -7 5 -4 10 3 6 8 10
11 10 2 0 4 -4 4 -10z"/>
<path d="M406 1108 c-9 -32 -26 -37 -26 -8 0 11 -4 20 -9 20 -5 0 -8 -8 -6
-17 2 -10 4 -21 4 -25 1 -5 10 -8 21 -8 23 0 34 19 27 47 -3 14 -6 12 -11 -9z"/>
<path d="M435 1120 c-4 -6 -2 -17 5 -24 8 -11 8 -15 -2 -19 -9 -4 -7 -6 4 -6
21 -1 32 15 17 24 -5 4 -8 13 -5 21 6 16 -10 19 -19 4z"/>
<path d="M476 1115 c-9 -24 4 -45 28 -44 16 1 17 2 4 6 -24 6 -23 23 2 23 13
0 18 5 14 15 -4 8 -14 15 -24 15 -10 0 -20 -7 -24 -15z"/>
<path d="M3406 1112 c-2 -4 17 -8 42 -10 26 -2 44 -1 42 1 -10 8 -80 16 -84 9z"/>
<path d="M3257 1104 c9 -4 9 -11 1 -30 -15 -32 -32 -31 -24 1 7 29 -5 33 -25
8 -11 -13 -12 -17 -1 -21 10 -3 8 -8 -5 -17 -16 -12 -13 -13 21 -5 22 5 43 15
48 23 4 9 20 14 38 12 16 -1 34 3 40 10 8 9 1 14 -27 19 -44 7 -84 7 -66 0z"/>
<path d="M3140 535 c0 -528 0 -535 20 -535 12 0 20 7 20 18 0 14 -2 15 -10 2
-6 -10 -10 170 -10 518 0 348 -3 532 -10 532 -7 0 -10 -185 -10 -535z"/>
<path d="M3170 567 c0 -475 1 -505 18 -520 15 -14 39 -17 133 -15 84 1 102 3
69 8 l-45 7 42 1 c23 1 44 6 47 10 3 5 -18 8 -47 6 -29 -1 -86 -3 -127 -4
l-75 -3 0 506 c0 279 -3 507 -7 507 -5 0 -8 -227 -8 -503z"/>
<path d="M3543 860 c0 -47 2 -66 4 -42 2 23 2 61 0 85 -2 23 -4 4 -4 -43z"/>
<path d="M2702 367 c-14 -16 -23 -107 -11 -107 5 0 16 -14 24 -31 13 -24 14
-37 6 -61 -13 -38 -13 -38 -1 -38 6 0 10 4 10 9 0 5 5 22 11 38 8 22 12 24 19
13 6 -8 10 -25 10 -37 0 -19 6 -23 29 -23 20 0 32 6 36 19 3 11 13 25 22 33
15 12 16 10 10 -20 -6 -28 -4 -33 11 -30 13 2 18 16 20 62 2 32 -1 63 -7 69
-5 5 -37 10 -70 11 -74 3 -90 15 -71 50 11 21 11 28 0 41 -15 18 -34 19 -48 2z
m36 -18 c-2 -6 -8 -10 -13 -10 -5 0 -11 4 -13 10 -2 6 4 11 13 11 9 0 15 -5
13 -11z m-18 -79 c0 -5 -2 -10 -4 -10 -3 0 -8 5 -11 10 -3 6 -1 10 4 10 6 0
11 -4 11 -10z m52 -32 c18 -3 19 -5 6 -15 -22 -18 -52 5 -41 32 6 17 8 18 11
3 2 -9 13 -18 24 -20z m102 -2 c-3 -9 -13 -12 -27 -8 -21 6 -21 6 3 13 14 4
26 7 27 8 1 1 0 -5 -3 -13z m-34 -38 c0 -7 -9 -24 -20 -38 l-19 -25 -10 28
c-16 42 -14 47 19 47 17 0 30 -5 30 -12z"/>
<path d="M89 133 c-10 -11 -10 -14 -1 -9 8 5 12 -1 12 -23 0 -16 -6 -32 -12
-34 -7 -3 3 -5 22 -5 19 0 29 2 23 5 -8 2 -13 22 -13 44 0 42 -10 49 -31 22z"/>
<path d="M158 126 c-12 -28 -5 -54 17 -62 35 -14 61 46 33 74 -19 19 -37 14
-50 -12z m42 -21 c0 -24 -5 -35 -15 -35 -10 0 -15 11 -15 35 0 24 5 35 15 35
10 0 15 -11 15 -35z"/>
<path d="M370 114 c0 -31 5 -44 17 -48 20 -8 44 19 36 40 -8 22 -22 16 -16 -7
4 -16 2 -20 -8 -17 -8 3 -13 13 -11 22 2 9 -2 24 -7 34 -8 13 -10 8 -11 -24z"/>
<path d="M443 110 c0 -25 2 -35 4 -22 2 12 2 32 0 45 -2 12 -4 2 -4 -23z"/>
<path d="M537 134 c-7 -8 2 -55 13 -67 4 -4 6 8 6 27 -2 37 -8 50 -19 40z"/>
<path d="M266 103 c10 -43 20 -47 20 -8 0 22 -5 35 -13 35 -9 0 -11 -8 -7 -27z"/>
<path d="M336 118 c4 -12 1 -18 -10 -18 -15 0 -22 -21 -10 -32 9 -10 44 3 44
16 0 7 -7 21 -15 32 -13 16 -14 16 -9 2z"/>
<path d="M474 116 c-9 -24 0 -51 19 -54 22 -5 22 15 0 21 -14 4 -12 5 5 6 25
1 28 11 10 29 -16 16 -27 15 -34 -2z"/>
<path d="M580 120 c-11 -7 -12 -12 -3 -21 6 -6 9 -18 6 -25 -3 -8 0 -14 5 -14
18 0 24 20 12 35 -6 8 -9 19 -5 25 8 12 4 12 -15 0z"/>
<path d="M2905 98 c4 -21 -11 -24 -18 -5 -3 7 -6 5 -6 -5 -1 -13 6 -17 24 -16
14 1 25 8 25 16 0 7 -4 11 -9 7 -5 -3 -11 0 -14 7 -2 7 -3 5 -2 -4z"/>
<path d="M2971 108 c-1 -21 -17 -24 -24 -5 -4 9 -6 9 -6 0 -1 -6 5 -15 11 -19
23 -14 44 -11 44 7 0 10 -3 16 -7 13 -4 -2 -10 2 -12 8 -3 8 -6 6 -6 -4z"/>
<path d="M2591 94 c0 -11 3 -14 6 -6 3 7 2 16 -1 19 -3 4 -6 -2 -5 -13z"/>
<path d="M2654 91 c0 -15 3 -17 13 -9 9 8 13 7 13 -2 0 -8 2 -11 5 -8 9 8 -6
38 -19 38 -6 0 -12 -9 -12 -19z"/>
<path d="M2704 99 c-3 -6 -2 -15 3 -20 5 -5 9 -1 9 11 0 23 -2 24 -12 9z"/>
<path d="M2732 90 c0 -14 2 -19 5 -12 2 6 2 18 0 25 -3 6 -5 1 -5 -13z"/>
<path d="M2772 90 c0 -14 2 -19 5 -12 2 6 2 18 0 25 -3 6 -5 1 -5 -13z"/>
<path d="M2793 93 c0 -7 6 -14 14 -17 7 -3 13 1 13 9 0 20 10 19 26 -2 12 -17
13 -17 14 3 0 17 -6 20 -33 20 -20 0 -34 -6 -34 -13z"/>
<path d="M2615 91 c-6 -11 9 -23 19 -14 9 9 7 23 -3 23 -6 0 -12 -4 -16 -9z"/>
<path d="M3288 3 c56 -2 148 -2 205 0 56 1 10 3 -103 3 -113 0 -159 -2 -102
-3z"/>
</g>
</svg>
