<?xml version="1.0" standalone="no"?>
<!DOCTYPE svg PUBLIC "-//W3C//DTD SVG 20010904//EN"
 "http://www.w3.org/TR/2001/REC-SVG-20010904/DTD/svg10.dtd">
<svg version="1.0" xmlns="http://www.w3.org/2000/svg"
 width="359.000000pt" height="225.000000pt" viewBox="0 0 359.000000 225.000000"
 preserveAspectRatio="xMidYMid meet">

<g transform="translate(0.000000,225.000000) scale(0.100000,-0.100000)"
fill="#000000" stroke="none">
<path d="M3070 2207 c0 -2 7 -26 15 -53 l14 -49 216 -2 c243 -2 224 -10 189
74 l-14 33 -210 0 c-116 0 -210 -1 -210 -3z"/>
<path d="M355 2176 c-11 -8 -17 -17 -13 -21 10 -10 69 5 62 16 -3 5 -9 7 -14
4 -4 -3 -10 0 -12 5 -2 7 -11 5 -23 -4z"/>
<path d="M453 2178 c1 -7 -6 -12 -17 -11 -12 1 -15 -2 -8 -9 15 -15 52 0 45
18 -6 17 -24 19 -20 2z"/>
<path d="M487 2160 l-27 -30 28 0 c36 0 45 9 30 27 -9 11 -9 17 3 24 8 5 9 9
3 9 -6 0 -23 -13 -37 -30z"/>
<path d="M2240 2110 c0 -5 5 -10 11 -10 5 0 7 5 4 10 -3 6 -8 10 -11 10 -2 0
-4 -4 -4 -10z"/>
<path d="M2270 2105 c0 -9 5 -15 11 -13 6 2 11 8 11 13 0 5 -5 11 -11 13 -6 2
-11 -4 -11 -13z"/>
<path d="M2320 2110 c0 -5 5 -10 10 -10 6 0 10 5 10 10 0 6 -4 10 -10 10 -5 0
-10 -4 -10 -10z"/>
<path d="M2360 2105 c0 -8 5 -15 10 -15 6 0 10 7 10 15 0 8 -4 15 -10 15 -5 0
-10 -7 -10 -15z"/>
<path d="M2410 2106 c0 -9 5 -16 10 -16 6 0 10 4 10 9 0 6 -4 13 -10 16 -5 3
-10 -1 -10 -9z"/>
<path d="M2460 2110 c0 -5 5 -10 10 -10 6 0 10 5 10 10 0 6 -4 10 -10 10 -5 0
-10 -4 -10 -10z"/>
<path d="M2500 2110 c0 -5 5 -10 10 -10 6 0 10 5 10 10 0 6 -4 10 -10 10 -5 0
-10 -4 -10 -10z"/>
<path d="M2540 2105 c0 -8 5 -15 10 -15 6 0 10 7 10 15 0 8 -4 15 -10 15 -5 0
-10 -7 -10 -15z"/>
<path d="M2580 2110 c0 -5 4 -10 9 -10 6 0 13 5 16 10 3 6 -1 10 -9 10 -9 0
-16 -4 -16 -10z"/>
<path d="M2625 2110 c3 -5 11 -10 16 -10 6 0 7 5 4 10 -3 6 -11 10 -16 10 -6
0 -7 -4 -4 -10z"/>
<path d="M2670 2110 c0 -5 5 -10 10 -10 6 0 10 5 10 10 0 6 -4 10 -10 10 -5 0
-10 -4 -10 -10z"/>
<path d="M2710 2109 c0 -5 5 -7 10 -4 6 3 10 8 10 11 0 2 -4 4 -10 4 -5 0 -10
-5 -10 -11z"/>
<path d="M2750 2110 c0 -5 5 -10 11 -10 5 0 7 5 4 10 -3 6 -8 10 -11 10 -2 0
-4 -4 -4 -10z"/>
<path d="M2790 2110 c0 -5 5 -10 10 -10 6 0 10 5 10 10 0 6 -4 10 -10 10 -5 0
-10 -4 -10 -10z"/>
<path d="M2830 2110 c0 -5 5 -10 10 -10 6 0 10 5 10 10 0 6 -4 10 -10 10 -5 0
-10 -4 -10 -10z"/>
<path d="M2910 2110 c0 -5 5 -10 11 -10 5 0 7 5 4 10 -3 6 -8 10 -11 10 -2 0
-4 -4 -4 -10z"/>
<path d="M2955 2110 c3 -5 14 -10 23 -10 15 0 15 2 2 10 -20 13 -33 13 -25 0z"/>
<path d="M2680 2070 c0 -5 5 -10 10 -10 6 0 10 5 10 10 0 6 -4 10 -10 10 -5 0
-10 -4 -10 -10z"/>
<path d="M2760 2069 c0 -5 5 -7 10 -4 6 3 10 8 10 11 0 2 -4 4 -10 4 -5 0 -10
-5 -10 -11z"/>
<path d="M2790 2070 c0 -5 5 -10 10 -10 6 0 10 5 10 10 0 6 -4 10 -10 10 -5 0
-10 -4 -10 -10z"/>
<path d="M2870 2070 c0 -5 5 -10 10 -10 6 0 10 5 10 10 0 6 -4 10 -10 10 -5 0
-10 -4 -10 -10z"/>
<path d="M2905 2070 c3 -5 8 -10 11 -10 2 0 4 5 4 10 0 6 -5 10 -11 10 -5 0
-7 -4 -4 -10z"/>
<path d="M2985 2070 c3 -5 8 -10 11 -10 2 0 4 5 4 10 0 6 -5 10 -11 10 -5 0
-7 -4 -4 -10z"/>
<path d="M2923 2029 c1 -16 9 -19 54 -19 30 0 53 5 53 10 0 17 -29 23 -44 11
-8 -7 -17 -8 -20 -3 -3 5 -14 12 -25 15 -15 3 -19 0 -18 -14z"/>
<path d="M1527 2034 c-13 -14 5 -24 42 -24 27 0 38 4 38 15 0 11 -11 15 -37
15 -20 0 -40 -3 -43 -6z"/>
<path d="M1661 2024 c0 -11 3 -14 6 -6 3 7 2 16 -1 19 -3 4 -6 -2 -5 -13z"/>
<path d="M1756 2025 c-4 -11 1 -15 18 -15 13 0 29 7 36 15 11 13 8 15 -18 15
-17 0 -32 -6 -36 -15z"/>
<path d="M1850 2025 c0 -11 11 -15 40 -15 29 0 40 4 40 15 0 11 -11 15 -40 15
-29 0 -40 -4 -40 -15z"/>
<path d="M2138 2034 c-15 -14 4 -24 48 -24 24 0 44 5 44 10 0 6 -6 10 -14 10
-7 0 -26 3 -42 6 -16 3 -32 2 -36 -2z"/>
<path d="M2253 2034 c-7 -3 -13 -10 -13 -15 0 -13 34 -11 49 4 11 10 14 10 18
0 3 -7 14 -13 25 -13 11 0 18 5 16 13 -5 12 -73 20 -95 11z"/>
<path d="M2370 2025 c0 -11 12 -15 45 -15 52 0 60 14 14 24 -47 9 -59 7 -59
-9z"/>
<path d="M2493 2033 c15 -2 27 -9 27 -14 0 -5 9 -9 20 -9 11 0 20 7 20 15 0
11 -11 15 -47 14 -30 -1 -37 -4 -20 -6z"/>
<path d="M2580 2023 c0 -9 16 -13 45 -13 33 0 45 4 45 15 0 10 -11 14 -45 12
-28 -1 -45 -7 -45 -14z"/>
<path d="M2690 2024 c0 -10 14 -14 50 -14 36 0 50 4 50 14 0 10 -14 14 -50 14
-36 0 -50 -4 -50 -14z"/>
<path d="M2827 2026 c-16 -12 -11 -14 35 -14 49 0 50 1 27 14 -30 17 -40 17
-62 0z"/>
<path d="M92 1813 c3 -77 3 -78 31 -81 24 -3 27 0 27 28 0 38 23 37 28 -1 3
-21 42 -69 57 -69 9 0 5 99 -5 105 -6 4 -4 15 6 30 14 22 14 25 -5 44 -17 17
-34 21 -81 21 l-61 0 3 -77z m91 22 c1 -5 -6 -11 -15 -13 -11 -2 -18 3 -18 13
0 17 30 18 33 0z"/>
<path d="M250 1878 c0 -7 10 -29 22 -48 11 -19 24 -48 28 -65 4 -23 11 -30 30
-30 20 0 26 6 30 30 3 17 15 49 28 72 28 53 28 53 -3 53 -20 0 -29 -8 -39 -32
l-14 -32 -16 32 c-12 23 -24 32 -41 32 -14 0 -25 -6 -25 -12z"/>
<path d="M424 1877 c-3 -8 -4 -43 -2 -78 l3 -64 52 -3 c29 -2 62 2 73 8 21 11
28 54 10 65 -6 4 -5 13 3 25 9 15 9 25 1 38 -15 23 -131 31 -140 9z m86 -32
c0 -8 -7 -15 -15 -15 -8 0 -15 7 -15 15 0 8 7 15 15 15 8 0 15 -7 15 -15z m3
-60 c1 -5 -6 -11 -15 -13 -11 -2 -18 3 -18 13 0 17 30 18 33 0z"/>
<path d="M592 1813 l3 -78 65 0 c51 0 65 3 65 15 0 10 -12 16 -37 18 -48 4
-50 22 -3 22 28 0 35 4 35 20 0 16 -7 20 -35 20 -47 0 -45 18 3 22 25 2 37 8
37 18 0 12 -16 16 -68 18 l-68 3 3 -78z"/>
<path d="M744 1876 c-3 -8 -4 -43 -2 -77 l3 -64 61 -3 c50 -2 63 0 68 13 9 25
-2 35 -40 35 l-34 0 0 55 c0 52 -1 55 -25 55 -14 0 -28 -6 -31 -14z"/>
<path d="M912 1884 c-7 -3 -17 -14 -22 -25 -15 -27 3 -56 40 -64 41 -9 38 -25
-6 -25 -28 0 -35 -3 -32 -17 4 -21 36 -27 85 -18 61 11 63 80 2 92 -41 8 -36
23 7 23 28 0 35 3 32 18 -2 13 -14 17 -48 19 -25 1 -51 -1 -58 -3z"/>
<path d="M1040 1832 c0 -71 14 -92 66 -99 61 -8 84 16 87 92 2 59 1 60 -25 63
-27 3 -28 2 -28 -45 0 -26 -4 -54 -9 -62 -16 -26 -31 0 -31 55 0 53 0 54 -30
54 -30 0 -30 0 -30 -58z"/>
<path d="M1233 1875 c-13 -9 -23 -25 -23 -35 0 -21 36 -50 62 -50 10 0 18 -4
18 -10 0 -5 -18 -10 -40 -10 -28 0 -40 -4 -40 -14 0 -17 22 -26 64 -26 75 0
106 74 39 95 -48 16 -51 25 -9 25 30 0 37 3 34 18 -4 24 -75 28 -105 7z"/>
<path d="M1416 1883 c-4 -4 -15 -8 -24 -8 -11 0 -18 -10 -20 -27 -3 -21 2 -30
21 -39 30 -14 67 3 67 30 0 21 -33 54 -44 44z m34 -44 c0 -15 -30 -30 -50 -24
-21 7 -28 39 -10 50 6 3 10 -3 10 -13 0 -11 7 -22 15 -26 10 -4 15 1 15 15 0
11 -4 17 -10 14 -11 -7 -14 8 -3 19 7 7 33 -20 33 -35z"/>
<path d="M1593 1875 c-10 -8 -13 -31 -11 -95 l3 -85 258 -3 257 -2 0 95 0 95
-52 1 c-253 6 -442 3 -455 -6z m157 -20 c0 -2 -11 -30 -25 -60 -27 -62 -55
-69 -30 -8 18 44 19 40 -5 46 -35 9 -22 27 20 27 22 0 40 -2 40 -5z m161 -47
c12 -22 4 -68 -11 -68 -6 0 -10 16 -10 35 0 44 -18 46 -22 3 -4 -42 -21 -39
-29 4 -5 32 -14 26 -21 -15 -6 -35 -23 -22 -26 20 l-3 43 56 -1 c44 -1 58 -6
66 -21z m99 -24 c0 -47 -21 -77 -52 -72 -21 3 -25 22 -5 24 29 4 31 6 7 13
-16 4 -26 15 -28 30 -6 38 5 51 43 49 34 -1 35 -2 35 -44z"/>
<path d="M1955 1800 c-7 -12 2 -30 16 -30 12 0 12 27 0 35 -5 3 -12 1 -16 -5z"/>
<path d="M250 1586 c0 -50 2 -54 26 -60 15 -4 32 -2 40 5 31 25 5 89 -31 75
-10 -4 -15 1 -15 14 0 11 -4 20 -10 20 -5 0 -10 -24 -10 -54z m63 -32 c-8 -20
-37 -13 -41 10 -5 26 20 40 35 20 6 -9 9 -22 6 -30z"/>
<path d="M350 1585 c0 -30 5 -55 10 -55 6 0 10 25 10 55 0 30 -4 55 -10 55 -5
0 -10 -25 -10 -55z"/>
<path d="M107 1618 c-2 -7 -2 -31 2 -53 5 -29 12 -41 26 -43 16 -3 18 -1 8 9
-16 16 -17 56 -2 61 6 2 2 11 -9 21 -15 14 -21 15 -25 5z"/>
<path d="M480 1612 c-10 -12 -11 -17 -2 -20 7 -2 12 -17 12 -32 0 -16 5 -32
11 -35 16 -10 24 4 11 17 -16 16 -15 45 0 50 10 4 9 8 -2 20 -14 13 -17 13
-30 0z"/>
<path d="M174 1598 c-5 -8 -2 -9 9 -5 27 10 28 -9 2 -21 -44 -20 -28 -58 20
-46 19 5 25 13 25 33 0 42 -38 68 -56 39z m36 -48 c0 -5 -7 -10 -15 -10 -8 0
-15 5 -15 10 0 6 7 10 15 10 8 0 15 -4 15 -10z"/>
<path d="M400 1596 c-27 -34 8 -88 46 -71 17 8 16 9 -8 13 -35 4 -37 22 -3 22
18 0 25 5 25 19 0 30 -39 41 -60 17z m40 -16 c0 -5 -7 -7 -15 -4 -8 4 -12 10
-9 15 6 11 24 2 24 -11z"/>
<path d="M543 1594 c-4 -10 1 -22 10 -29 21 -15 22 -25 2 -25 -8 0 -15 -4 -15
-10 0 -11 11 -13 34 -4 23 9 20 29 -6 47 -19 13 -20 16 -5 16 21 1 23 21 2 21
-9 0 -18 -7 -22 -16z"/>
<path d="M650 1405 c0 -37 4 -65 10 -65 6 0 10 28 10 65 0 37 -4 65 -10 65 -6
0 -10 -28 -10 -65z"/>
<path d="M870 1460 c0 -5 4 -10 9 -10 6 0 13 5 16 10 3 6 -1 10 -9 10 -9 0
-16 -4 -16 -10z"/>
<path d="M980 1449 c0 -16 -4 -19 -19 -14 -30 9 -58 -37 -43 -70 9 -20 18 -24
47 -23 l35 1 0 64 c0 35 -4 63 -10 63 -5 0 -10 -9 -10 -21z m-5 -59 c0 -13 -6
-25 -12 -27 -16 -6 -27 21 -19 43 9 23 31 11 31 -16z"/>
<path d="M805 1440 c-11 -12 -13 -20 -6 -25 6 -3 11 -19 11 -35 0 -33 13 -45
38 -35 16 6 16 7 0 16 -21 12 -24 45 -5 56 10 6 10 11 -4 25 -16 15 -18 15
-34 -2z"/>
<path d="M112 1428 c-18 -18 -15 -36 8 -43 11 -3 20 -11 20 -16 0 -5 -9 -9
-20 -9 -11 0 -20 -5 -20 -11 0 -6 12 -9 28 -7 37 4 44 44 10 58 l-23 9 22 7
c13 3 20 10 17 15 -7 13 -28 11 -42 -3z"/>
<path d="M198 1429 c-21 -12 -24 -59 -6 -77 15 -15 54 -16 63 -2 4 6 -7 10
-24 10 -17 0 -31 5 -31 10 0 6 14 10 30 10 23 0 30 4 30 20 0 10 -9 24 -19 30
-23 12 -22 12 -43 -1z m37 -19 c3 -5 -3 -10 -15 -10 -12 0 -18 5 -15 10 3 6
10 10 15 10 5 0 12 -4 15 -10z"/>
<path d="M303 1432 c-20 -3 -23 -9 -23 -48 0 -24 5 -44 10 -44 10 0 13 12 11
41 -1 9 5 22 14 29 12 10 15 9 17 -6 0 -11 2 -23 3 -29 2 -5 3 -16 4 -22 2
-29 20 -10 23 25 2 20 8 37 13 37 6 0 11 -17 13 -37 5 -56 24 -46 20 10 l-3
47 -40 0 c-22 0 -50 -1 -62 -3z"/>
<path d="M447 1433 c-13 -13 -7 -21 12 -16 10 3 22 0 25 -6 4 -7 -1 -11 -12
-11 -11 0 -25 -7 -32 -15 -18 -21 3 -44 41 -43 27 1 29 4 29 38 0 20 -5 41
-12 48 -13 13 -41 16 -51 5z m38 -63 c-3 -5 -13 -10 -21 -10 -8 0 -12 5 -9 10
3 6 13 10 21 10 8 0 12 -4 9 -10z"/>
<path d="M545 1424 c-31 -32 -7 -95 31 -80 10 4 14 1 12 -6 -3 -7 -15 -15 -29
-18 -17 -4 -20 -8 -11 -14 22 -13 61 3 68 28 3 12 4 40 2 61 -3 33 -7 38 -30
41 -16 1 -35 -4 -43 -12z m40 -54 c-14 -13 -17 -13 -25 -1 -5 9 -4 23 2 35 10
19 11 19 24 1 12 -16 12 -21 -1 -35z"/>
<path d="M696 1433 c-11 -11 -6 -70 7 -80 6 -6 27 -10 45 -10 33 0 33 0 30 46
-4 55 -22 61 -26 9 -4 -50 -32 -53 -32 -4 0 34 -11 52 -24 39z"/>
<path d="M1035 1420 c-28 -31 -10 -74 33 -78 18 -2 32 1 32 7 0 6 -11 11 -25
11 -14 0 -25 5 -25 10 0 6 14 10 30 10 34 0 40 19 14 44 -21 21 -37 20 -59 -4z
m45 -10 c0 -5 -7 -10 -15 -10 -8 0 -15 5 -15 10 0 6 7 10 15 10 8 0 15 -4 15
-10z"/>
<path d="M870 1384 c0 -59 24 -55 28 4 2 33 0 42 -12 42 -12 0 -16 -11 -16
-46z"/>
<path d="M3557 1145 c-29 -26 -72 -32 -112 -16 -12 5 -30 3 -46 -5 -19 -9 -47
-12 -92 -7 -56 5 -69 3 -95 -16 -17 -11 -40 -21 -51 -21 l-21 0 0 -540 0 -540
225 0 225 0 0 585 c0 322 -1 585 -2 585 -2 0 -16 -12 -31 -25z"/>
<path d="M110 1146 c-15 -19 -9 -56 12 -69 34 -22 66 41 36 71 -16 16 -33 15
-48 -2z m47 -40 c-8 -20 -36 -21 -43 -1 -4 8 0 22 7 31 11 13 14 13 27 0 8 -8
12 -22 9 -30z"/>
<path d="M290 1122 c0 -23 4 -42 10 -42 10 0 8 65 -3 76 -4 4 -7 -11 -7 -34z"/>
<path d="M240 1130 c0 -5 6 -10 13 -11 6 0 1 -5 -12 -10 -23 -9 -24 -11 -8
-26 15 -15 19 -15 31 -3 10 11 11 22 5 38 -8 22 -29 31 -29 12z m20 -40 c0 -5
-2 -10 -4 -10 -3 0 -8 5 -11 10 -3 6 -1 10 4 10 6 0 11 -4 11 -10z"/>
<path d="M425 1130 c-4 -6 -2 -17 4 -24 7 -9 7 -16 -1 -24 -9 -9 -9 -12 0 -12
17 0 29 33 13 38 -9 3 -9 7 0 18 8 9 8 14 1 14 -6 0 -14 -5 -17 -10z"/>
<path d="M493 1121 c1 -22 12 -28 21 -12 3 5 -1 14 -9 21 -11 9 -14 8 -12 -9z"/>
<path d="M191 1103 c1 -22 2 -23 6 -8 3 11 10 23 17 27 7 5 5 8 -6 8 -13 0
-18 -7 -17 -27z"/>
<path d="M350 1111 c0 -10 6 -24 14 -30 20 -17 46 -2 46 27 0 14 -3 22 -7 18
-8 -7 -9 -11 -12 -37 -2 -18 -21 1 -21 22 0 10 -4 19 -10 19 -5 0 -10 -8 -10
-19z"/>
<path d="M465 1117 c-7 -18 9 -47 27 -47 7 0 7 4 0 13 -5 6 -12 21 -14 32 -5
18 -6 19 -13 2z"/>
<path d="M2694 365 c-4 -9 -7 -28 -8 -43 -1 -15 -5 -32 -8 -38 -8 -12 0 -24
14 -24 5 0 6 5 3 10 -3 6 1 10 11 10 14 0 14 -3 4 -15 -10 -12 -10 -19 -2 -27
15 -15 16 -74 2 -83 -13 -8 -13 -25 -1 -25 5 0 15 16 21 35 10 29 14 34 26 24
8 -6 14 -22 14 -35 0 -13 5 -24 11 -24 7 0 8 14 4 40 -7 39 -6 40 24 40 33 0
33 -10 3 -57 -9 -15 -10 -23 -3 -23 6 0 17 13 26 29 24 47 39 50 31 6 -6 -33
-5 -37 9 -31 9 3 17 6 18 6 1 0 0 30 -3 67 l-5 68 -50 1 c-28 0 -63 4 -78 8
-27 6 -27 7 -12 37 13 24 14 34 4 45 -15 19 -48 18 -55 -1z m46 -15 c0 -5 -7
-10 -15 -10 -8 0 -15 5 -15 10 0 6 7 10 15 10 8 0 15 -4 15 -10z m5 -99 c-5
-15 -1 -18 22 -13 23 4 25 3 13 -10 -18 -19 -50 -11 -50 11 0 17 8 31 17 31 3
0 2 -8 -2 -19z m72 3 c-3 -3 -12 -4 -19 -1 -8 3 -5 6 6 6 11 1 17 -2 13 -5z
m46 -21 c-7 -2 -19 -2 -25 0 -7 3 -2 5 12 5 14 0 19 -2 13 -5z"/>
<path d="M85 141 c-3 -6 0 -8 8 -5 25 9 30 -16 8 -40 -29 -30 -27 -36 12 -35
24 1 27 3 9 6 -22 4 -23 6 -7 23 9 10 15 27 13 37 -4 20 -33 30 -43 14z"/>
<path d="M158 126 c-12 -28 -5 -54 17 -62 35 -14 61 46 33 74 -19 19 -37 14
-50 -12z m42 -21 c0 -24 -5 -35 -15 -35 -10 0 -15 11 -15 35 0 24 5 35 15 35
10 0 15 -11 15 -35z"/>
<path d="M361 113 c-1 -39 1 -43 23 -43 13 0 26 6 29 13 6 17 -11 47 -28 47
-7 0 -16 6 -18 13 -3 6 -6 -7 -6 -30z m39 -19 c0 -8 -7 -14 -15 -14 -15 0 -21
21 -9 33 10 9 24 -2 24 -19z"/>
<path d="M433 110 c0 -25 2 -35 4 -22 2 12 2 32 0 45 -2 12 -4 2 -4 -23z"/>
<path d="M257 134 c-7 -8 2 -55 13 -67 4 -4 6 8 6 27 -2 37 -8 50 -19 40z"/>
<path d="M527 134 c-7 -8 2 -55 13 -67 4 -4 6 8 6 27 -2 37 -8 50 -19 40z"/>
<path d="M320 123 c13 -6 13 -43 -1 -43 -5 0 -7 5 -4 10 3 6 2 10 -4 10 -17 0
-22 -17 -8 -28 7 -6 19 -7 26 -3 16 10 11 53 -7 57 -7 1 -8 0 -2 -3z"/>
<path d="M460 111 c-7 -15 -6 -23 6 -35 18 -18 34 -21 34 -6 0 6 -8 10 -17 11
-13 0 -12 3 6 10 19 8 21 12 11 24 -17 20 -27 19 -40 -4z m30 -1 c0 -5 -5 -10
-11 -10 -5 0 -7 5 -4 10 3 6 8 10 11 10 2 0 4 -4 4 -10z"/>
<path d="M564 119 c-3 -6 -2 -15 4 -21 6 -6 8 -18 4 -27 -5 -14 -4 -14 11 -2
13 10 14 17 6 27 -6 7 -8 18 -4 24 3 5 2 10 -4 10 -5 0 -13 -5 -17 -11z"/>
<path d="M2727 100 c3 -11 0 -20 -6 -20 -6 0 -11 7 -11 15 0 18 -16 20 -23 3
-4 -10 -7 -10 -14 -1 -6 9 -12 7 -21 -7 -7 -12 -8 -20 -2 -20 5 0 10 5 10 11
0 8 5 8 15 -1 12 -10 15 -10 15 0 0 10 3 10 15 0 8 -6 19 -9 25 -5 12 8 13 32
1 39 -5 4 -7 -3 -4 -14z"/>
<path d="M2897 100 c5 -20 -11 -28 -20 -10 -3 6 -4 5 -3 -2 1 -7 10 -14 19
-16 12 -3 17 4 17 22 0 14 -4 26 -9 26 -5 0 -7 -9 -4 -20z"/>
<path d="M2610 93 c0 -7 4 -13 9 -13 5 0 11 6 14 13 3 8 -1 14 -9 14 -8 0 -14
-6 -14 -14z"/>
<path d="M2760 95 c0 -8 2 -15 4 -15 2 0 6 7 10 15 3 8 1 15 -4 15 -6 0 -10
-7 -10 -15z"/>
<path d="M2790 96 c0 -9 5 -16 10 -16 6 0 10 4 10 9 0 6 -4 13 -10 16 -5 3
-10 -1 -10 -9z"/>
<path d="M2833 90 c-11 -16 -10 -18 1 -14 15 6 30 34 18 34 -4 0 -13 -9 -19
-20z"/>
<path d="M2921 94 c0 -11 3 -14 6 -6 3 7 2 16 -1 19 -3 4 -6 -2 -5 -13z"/>
<path d="M2940 105 c0 -18 15 -30 36 -31 15 0 20 4 17 13 -3 8 -12 11 -21 8
-8 -3 -19 0 -24 7 -4 7 -8 9 -8 3z"/>
</g>
</svg>
