<svg width="64.000000" height="64.000000" viewBox="0 0 64 64" fill="none" xmlns="http://www.w3.org/2000/svg" xmlns:xlink="http://www.w3.org/1999/xlink">
	<desc>
			Created with Pixso.
	</desc>
	<defs>
		<clipPath id="clip32_75">
			<rect id="Frame" width="64.000000" height="64.000000" fill="white" fill-opacity="0"/>
		</clipPath>
	</defs>
	<rect id="Frame" width="64.000000" height="64.000000" fill="#FFFFFF" fill-opacity="0"/>
	<g clip-path="url(#clip32_75)">
		<path id="Vector" d="M53.333 32L53.333 15.3296C53.333 14.9053 53.1646 14.498 52.8647 14.1982L44.4683 5.80225C44.1685 5.50195 43.7612 5.3335 43.3374 5.3335L12.2666 5.3335C11.3828 5.3335 10.6665 6.0498 10.6665 6.93359L10.6665 57.0669C10.6665 57.9507 11.3828 58.667 12.2666 58.667L29.333 58.667" stroke="#02BD01" stroke-opacity="1.000000" stroke-width="4.000000" stroke-linejoin="round" stroke-linecap="round"/>
		<path id="Vector" d="M21.3335 26.6665L42.667 26.6665M21.3335 16L32 16M21.3335 37.3335L29.3335 37.3335" stroke="#02BD01" stroke-opacity="1.000000" stroke-width="4.000000" stroke-linejoin="round"/>
		<path id="Vector" d="M42.6665 5.3335L42.6665 14.4004C42.6665 15.2837 43.3828 16 44.2666 16L53.333 16" stroke="#02BD01" stroke-opacity="1.000000" stroke-width="4.000000" stroke-linejoin="round" stroke-linecap="round"/>
		<path id="Line 20" d="M41.1855 45.1909L52.499 56.5044" stroke="#02BD01" stroke-opacity="1.000000" stroke-width="4.000000" stroke-linecap="round"/>
		<path id="Line 21" d="M41.8818 55.9854L53.1953 44.6719" stroke="#02BD01" stroke-opacity="1.000000" stroke-width="4.000000" stroke-linecap="round"/>
	</g>
</svg>
