<svg width="64.132324" height="44.396484" viewBox="0 0 64.1323 44.3965" fill="none" xmlns="http://www.w3.org/2000/svg" xmlns:xlink="http://www.w3.org/1999/xlink">
	<desc>
			Created with Pixso.
	</desc>
	<defs>
		<clipPath id="clip31_35">
			<rect id="Food_and_Drug_Administration_logo" width="64.132156" height="26.431717" fill="white" fill-opacity="0"/>
		</clipPath>
	</defs>
	<rect id="Food_and_Drug_Administration_logo" width="64.132156" height="26.431717" fill="#FFFFFF" fill-opacity="0"/>
	<g clip-path="url(#clip31_35)">
		<path id="Vector" d="M3.30127 26.1157L0.394531 26.1157L0.394531 0.356445L25.9482 0.356445C37.1572 0.356445 38.9258 10.4258 38.9258 10.4258L45.2158 0.356445L51.8071 0.356445L63.855 19.8867L60.0806 26.1147L44.1943 26.1147L44.1943 23.0078L61.9634 23.0078L48.5039 0.355957C48.5039 0.355957 39.6338 15.7905 37.7295 18.7974C35.8252 21.8042 32.248 26.1143 26.1211 26.1143L16.6313 26.1143L16.6313 10.7788L19.6387 10.7788L19.6387 23.0068L26.5542 23.0068C29.6128 23.0068 36.1763 20.4009 36.1763 13.0342C36.1763 5.66748 29.1602 3.3623 26.855 3.3623L3.30078 3.3623L3.30078 26.1133L3.30127 26.1157ZM4.30322 26.1157L4.30322 15.1909L15.5288 15.1909L15.5288 18.1978L7.31006 18.1978L7.31006 26.1157L4.30322 26.1157L4.30322 26.1157ZM15.5288 13.8877L15.5288 10.7808L7.31006 10.7808L7.31006 7.48486L26.2222 7.48486C29.0571 7.48486 32.0674 9.77832 32.0674 13.1357C32.0674 16.4937 29.0249 18.7988 26.8555 18.7988L23.9072 18.7988L23.9072 10.7803L20.8003 10.7803L20.8003 21.8057L26.8555 21.8057C30.6904 21.8057 35.124 18.4771 35.124 13.2358C35.124 8.04541 31.0918 4.46631 26.27 4.46631L4.3042 4.46631L4.3042 13.8877L15.5298 13.8877L15.5288 13.8877ZM34.7222 26.1157L48.5039 3.36426L59.8301 21.8057L44.1948 21.8057L44.1948 18.7988L54.3179 18.7988L48.5049 9.32715L38.9331 26.1162L34.7231 26.1162L34.7222 26.1157Z" fill="#016AC5" fill-opacity="1.000000" fill-rule="nonzero"/>
	</g>
	<path id="APPROVED" d="M4.91225 40.3965L2.67175 40.3965L2.67175 40.3552C3.40223 39.7202 3.71714 39.3924 4.15079 38.1766L5.57821 34.1912L5.09294 33.2078C5.69436 33.2078 6.30869 32.9961 6.77331 32.6244L9.30033 39.3279C9.46036 39.7512 9.55329 39.9628 10.1573 40.3552L10.1573 40.3965L6.71136 40.3965L6.71136 40.3552C7.25084 40.0687 7.43927 39.8777 7.43927 39.604C7.43927 39.4337 7.36699 39.222 7.27149 38.9381L6.89979 37.8798L4.42698 37.8798L4.33147 38.1457C4.15079 38.6722 4.04496 39.0439 4.04496 39.3279C4.04496 39.7718 4.29017 40.0274 4.91225 40.3552L4.91225 40.3965ZM38.9035 36.6124C38.9035 39.0439 37.3703 40.5333 35.0652 40.5333C32.7628 40.5333 31.2399 39.0439 31.2399 36.6124C31.2399 34.1809 32.7628 32.6993 35.0652 32.6993C37.3703 32.6993 38.9035 34.1809 38.9035 36.6124ZM13.8993 40.3965L10.4121 40.3965L10.4121 40.3552C11.109 40.017 11.2148 39.9215 11.2148 39.0749L11.2148 34.1577C11.2148 33.3136 11.109 33.2181 10.4121 32.88L10.4121 32.8361L13.858 32.8361C15.6984 32.8361 16.8083 33.4917 16.8083 34.8572C16.8083 36.3362 15.4867 36.9919 13.1378 36.9919L13.0113 36.9919L13.0113 39.0749C13.0113 39.9215 13.1275 40.017 13.8993 40.3552L13.8993 40.3965ZM20.6129 40.3965L17.1257 40.3965L17.1257 40.3552C17.8226 40.017 17.9285 39.9215 17.9285 39.0749L17.9285 34.1577C17.9285 33.3136 17.8226 33.2181 17.1257 32.88L17.1257 32.8361L20.5716 32.8361C22.4121 32.8361 23.522 33.4917 23.522 34.8572C23.522 36.3362 22.2004 36.9919 19.8515 36.9919L19.725 36.9919L19.725 39.0749C19.725 39.9215 19.8412 40.017 20.6129 40.3552L20.6129 40.3965ZM27.2414 40.3965L23.8394 40.3965L23.8394 40.3552C24.5363 40.017 24.6421 39.9215 24.6421 39.0749L24.6421 34.1577C24.6421 33.3136 24.5363 33.2181 23.8394 32.88L23.8394 32.8361L27.3705 32.8361C29.2186 32.8361 30.3182 33.5769 30.3182 34.7178C30.3182 35.5954 29.6213 36.2949 28.6275 36.5582C29.2832 37.6578 29.7917 38.4296 30.3931 39.3175C30.6151 39.6557 30.9635 40.0377 31.312 40.3552L31.312 40.3965L29.007 40.3965C28.2249 39.1265 27.5176 37.8798 26.8723 36.6744L26.4387 36.695L26.4387 39.0749C26.4387 39.9215 26.5445 40.017 27.2414 40.3552L27.2414 40.3965ZM33.1319 35.7967C33.1319 37.3945 33.723 40.3965 35.3001 40.3965C36.3042 40.3965 37.0011 39.3485 37.0011 37.4255C37.0011 35.851 36.4307 32.8361 34.8432 32.8361C33.7875 32.8361 33.1319 33.946 33.1319 35.7967ZM42.3827 40.4068L41.8432 40.4068L39.2852 33.7989C39.1381 33.4194 39.0322 33.2078 38.4592 32.9006L38.4592 32.8361L41.8974 32.8361L41.8974 32.9109C41.3786 33.1639 41.1876 33.3239 41.1876 33.6182C41.1876 33.7886 41.2624 34.0002 41.3682 34.3177L42.9325 38.6103L44.4864 34.4442C44.5715 34.2222 44.6128 34.0415 44.6128 33.8841C44.6128 33.4917 44.3289 33.2491 43.6836 32.9109L43.6836 32.8361L45.9447 32.8361L45.9447 32.9109C45.2065 33.4194 44.9407 33.724 44.6567 34.4752L42.3827 40.4068ZM52.0456 40.3965L46.1372 40.3965L46.1372 40.3552C46.8341 40.017 46.9399 39.9215 46.9399 39.0749L46.9399 34.1577C46.9399 33.3136 46.8341 33.2181 46.1372 32.88L46.1372 32.8361L51.6765 32.8361L51.8675 34.994L51.8236 34.994C51.4442 33.8944 50.6724 32.9858 49.5934 32.9858L48.7365 32.9858L48.7365 36.2949L49.6037 36.2949C50.1845 36.2949 50.693 35.9336 51.0208 35.3734L51.0518 35.3734L51.0518 37.4358L51.0208 37.4358C50.7137 36.8757 50.2181 36.4421 49.6037 36.4421L48.7365 36.4421L48.7365 39.7512C48.7365 40.048 49.1598 40.2494 49.8257 40.2494L50.1535 40.2494C50.946 40.2494 51.7074 39.3924 52.2572 38.2283L52.2985 38.2283L52.0456 40.3965ZM56.4539 40.3965L52.946 40.3965L52.946 40.3552C53.6429 40.017 53.7487 39.9215 53.7487 39.0749L53.7487 34.1577C53.7487 33.3136 53.6429 33.2181 52.946 32.88L52.946 32.8361L55.9892 32.8361C58.9396 32.8361 60.3567 34.2429 60.3567 36.4317C60.3567 38.6103 58.9706 40.3965 56.4539 40.3965ZM13.0113 32.9858L13.0113 36.855L13.1275 36.855C14.4284 36.855 15.0944 36.2407 15.0944 34.8778C15.0944 33.502 14.4388 32.9858 13.4243 32.9858L13.0113 32.9858ZM19.725 32.9858L19.725 36.855L19.8412 36.855C21.1421 36.855 21.808 36.2407 21.808 34.8778C21.808 33.502 21.1524 32.9858 20.138 32.9858L19.725 32.9858ZM26.4387 32.9858L26.4387 36.5582L27.084 36.5582C27.1485 36.5582 27.2104 36.5582 27.275 36.5479L27.4118 36.5272C28.0984 36.3672 28.532 35.7348 28.532 34.772C28.532 33.502 27.9203 32.9858 26.9885 32.9858L26.4387 32.9858ZM55.5453 39.7512C55.5453 40.048 55.9376 40.2494 56.3609 40.2494C57.5431 40.2494 58.4207 38.9691 58.4207 36.5066C58.4207 33.8531 57.3857 32.9858 55.9041 32.9858L55.5453 32.9858L55.5453 39.7512ZM5.65306 34.359L4.61799 37.33L6.70104 37.33L5.65306 34.359Z" fill="#038402" fill-opacity="1.000000" fill-rule="evenodd"/>
</svg>
