<svg width="1320.000000" height="504.000000" viewBox="0 0 1320 504" fill="none" xmlns="http://www.w3.org/2000/svg" xmlns:xlink="http://www.w3.org/1999/xlink">
	<desc>
			Created with Pixso.
	</desc>
	<defs/>
	<line id="Line 28" x1="29.000000" y1="6.500000" x2="1012.000000" y2="6.500000" stroke="#FAFAFA" stroke-opacity="1.000000" stroke-width="3.000000"/>
	<line id="Line 35" x1="29.000000" y1="46.500000" x2="1012.000000" y2="46.500000" stroke="#FAFAFA" stroke-opacity="1.000000" stroke-width="3.000000"/>
	<line id="Line 36" x1="29.000000" y1="86.500000" x2="1012.000000" y2="86.500000" stroke="#FAFAFA" stroke-opacity="1.000000" stroke-width="3.000000"/>
	<line id="Line 37" x1="29.000000" y1="126.500000" x2="1012.000000" y2="126.500000" stroke="#FAFAFA" stroke-opacity="1.000000" stroke-width="3.000000"/>
	<line id="Line 38" x1="29.000000" y1="166.500000" x2="1012.000000" y2="166.500000" stroke="#FAFAFA" stroke-opacity="1.000000" stroke-width="3.000000"/>
	<line id="Line 39" x1="29.000000" y1="206.500000" x2="1012.000000" y2="206.500000" stroke="#FAFAFA" stroke-opacity="1.000000" stroke-width="3.000000"/>
	<line id="Line 40" x1="29.000000" y1="246.500000" x2="1012.000000" y2="246.500000" stroke="#FAFAFA" stroke-opacity="1.000000" stroke-width="3.000000"/>
	<line id="Line 41" x1="29.000000" y1="286.500000" x2="1012.000000" y2="286.500000" stroke="#FAFAFA" stroke-opacity="1.000000" stroke-width="3.000000"/>
	<line id="Line 30" x1="29.000000" y1="326.500000" x2="1012.000000" y2="326.500000" stroke="#FAFAFA" stroke-opacity="1.000000" stroke-width="3.000000"/>
	<line id="Line 31" x1="29.000000" y1="366.500000" x2="1012.000000" y2="366.500000" stroke="#FAFAFA" stroke-opacity="1.000000" stroke-width="3.000000"/>
	<line id="Line 32" x1="29.000000" y1="406.500000" x2="1012.000000" y2="406.500000" stroke="#FAFAFA" stroke-opacity="1.000000" stroke-width="3.000000"/>
	<line id="Line 33" x1="29.000000" y1="446.500000" x2="1012.000000" y2="446.500000" stroke="#FAFAFA" stroke-opacity="1.000000" stroke-width="3.000000"/>
	<line id="Line 34" x1="29.000000" y1="486.500000" x2="1012.000000" y2="486.500000" stroke="#FAFAFA" stroke-opacity="1.000000" stroke-width="3.000000"/>
	<path id="Vector 13" d="M25 46L103.484 46L104.241 46.2012Q117.74 49.7883 131.819 52.1953Q150.262 55.3481 158.178 54.2268Q161.908 53.6985 167.311 52.7974Q174.912 51.53 178.858 51.386Q184.429 51.1826 194.107 52.2705Q202.868 53.2554 213.437 57.355Q222.298 60.7922 228.532 60.4116Q235.595 59.9802 250.896 64.1812Q272.112 70.0056 286.013 69.4326Q297.939 68.9412 309.065 64.9583Q321.798 60.4004 335.279 60.4004Q350.915 60.4004 362.054 64.4741Q368.498 66.8306 374.56 67.5332Q382.659 68.4719 391.586 73.5303Q396.746 76.4536 400.201 77.4746Q406.221 79.2532 415.488 79.1003Q431.157 78.842 454.899 80.0779Q469.134 80.8191 475.557 80.8191Q483.581 80.8191 495.01 82.5188Q507.438 84.3672 517.208 84.2583Q526.305 84.157 534.306 83.3826Q543.025 82.5386 553.257 82.5386Q564.774 82.5386 573.272 86.3462Q578.206 88.5566 584.024 88.5566Q591.783 88.5566 601.473 91.0378Q611.928 93.7148 622.092 93.7148Q631.482 93.7148 670.233 101.39Q726.975 112.629 746.204 112.629Q765.81 112.629 794.104 117.368Q814.577 120.796 824.947 120.796Q836.294 120.796 852.35 123.367Q872.545 126.6 891.175 126.6Q897.759 126.6 924.133 129.153Q965.729 133.179 993.211 134.777Q1100.26 141 1154 141L1154 153Q1099.91 153 992.515 146.757Q964.802 145.146 922.977 141.097Q897.18 138.6 891.175 138.6Q871.591 138.6 850.453 135.216Q835.34 132.796 824.947 132.796Q813.579 132.796 792.122 129.203Q764.812 124.629 746.204 124.629Q725.797 124.629 667.902 113.162Q630.305 105.715 622.092 105.715Q610.416 105.715 598.496 102.663Q590.271 100.557 584.024 100.557Q575.641 100.557 568.366 97.2974Q562.209 94.5386 553.257 94.5386Q543.605 94.5386 535.462 95.3267Q526.951 96.1504 517.342 96.2576Q506.617 96.377 493.245 94.3882Q482.693 92.8191 475.557 92.8191Q468.822 92.8191 454.275 92.0618Q430.943 90.8472 415.686 91.0986Q404.582 91.2817 396.801 88.9827Q392.026 87.572 385.671 83.9709Q378.86 80.1121 373.178 79.4534Q365.708 78.5874 357.933 75.7441Q348.789 72.4004 335.279 72.4004Q323.881 72.4004 313.11 76.2563Q300.262 80.8557 286.508 81.4226Q270.738 82.0725 247.72 75.7529Q234.339 72.0793 229.264 72.3894Q220.407 72.9302 209.097 68.5427Q199.98 65.0063 192.767 64.1956Q183.975 63.207 179.296 63.3779Q176.123 63.4937 169.284 64.634Q163.736 65.5591 159.861 66.1082Q150.089 67.4927 129.797 64.0237Q115.183 61.5254 101.159 57.7988L102.7 52L102.7 58L25 58L25 46ZM1153.98 141.02L1154 141C1157.36 141 1160 143.64 1160 147C1160 150.36 1157.36 153 1154 153L1153.98 152.98L1153.98 141.02Z" fill="#FF3D00" fill-opacity="1.000000" fill-rule="evenodd"/>
	<path id="Vector 14" d="M25 46L92.1636 46L93.8276 47.3755Q99.0054 51.656 106.834 51.9021Q112.429 52.0779 120.376 54.7861Q127.393 57.1772 132.127 57.1772Q138.405 57.1772 147.396 60.439Q155.521 63.3867 161.25 63.3867Q166.965 63.3867 197.622 68.325Q251.773 77.0476 268.377 77.0476Q283.765 77.0476 315.052 84.1611Q342.484 90.3982 354.183 90.3982Q364.439 90.3982 378.004 94.2766Q385.767 96.4963 400.593 102.041Q420.932 109.648 426.988 109.648Q434.267 109.648 448.608 106.768Q465.19 103.438 474.832 103.438Q485.173 103.438 498.633 109.904Q509.087 114.926 515.915 114.926Q525.208 114.926 541.991 120.511Q556.93 125.482 564.278 125.482Q571.715 125.482 593.464 131.449Q611.659 136.441 621.895 138.481Q639.229 141.937 653.725 141.937Q673.889 141.937 700.119 136.568Q720.908 132.312 733.29 132.312Q747.703 132.312 768.741 135.997Q784.932 138.832 793.614 138.832Q803.69 138.832 820.676 142.016Q838.476 145.352 849.778 145.352Q861.631 145.352 872.42 149.852Q877.774 152.084 881.526 152.911Q888.08 154.356 898.142 154.356Q909.647 154.356 919.532 157.736Q925.34 159.722 934.554 164.725Q941.938 168.736 945.854 170.136Q952.084 172.364 958.986 172.364Q965.048 172.364 973.771 174.945Q978.915 176.467 991.275 181.002Q1024.93 193.353 1051.11 199.005Q1097.39 209 1154 209L1154 221Q1096.11 221 1048.57 210.734Q1021.58 204.906 987.142 192.268Q965.601 184.364 958.986 184.364Q950.003 184.364 941.814 181.435Q937.025 179.723 928.827 175.271Q920.501 170.749 915.649 169.09Q907.653 166.356 898.142 166.356Q886.772 166.356 878.943 164.63Q874.145 163.573 867.801 160.927Q859.229 157.352 849.778 157.352Q837.361 157.352 818.465 153.811Q802.576 150.832 793.614 150.832Q783.889 150.833 766.671 147.817Q746.66 144.312 733.29 144.312Q722.123 144.312 702.526 148.324Q675.104 153.937 653.725 153.937Q638.044 153.937 619.548 150.25Q608.895 148.126 590.289 143.021Q570.099 137.482 564.278 137.482Q554.985 137.482 538.202 131.897Q523.263 126.926 515.915 126.926Q506.354 126.926 493.437 120.721Q482.44 115.438 474.832 115.438Q466.384 115.438 450.971 118.533Q435.459 121.648 426.988 121.648Q418.761 121.648 396.39 113.281Q382.01 107.903 374.705 105.814Q362.758 102.398 354.183 102.398Q341.137 102.398 312.392 95.8625Q282.417 89.0476 268.377 89.0476Q250.813 89.0476 195.713 80.1721Q166.005 75.3867 161.25 75.3867Q153.411 75.3867 143.303 71.7195Q136.295 69.1772 132.127 69.1772Q125.404 69.1772 116.506 66.1448Q110.258 64.0154 106.458 63.896Q94.5244 63.5212 86.1816 56.6245L90.0044 52L90.0044 58L25 58L25 46ZM1153.98 209.02L1154 209C1157.36 209 1160 211.64 1160 215C1160 218.36 1157.36 221 1154 221L1153.98 220.98L1153.98 209.02Z" fill="#84B5FF" fill-opacity="1.000000" fill-rule="evenodd"/>
	<path id="Vector" d="M25 52L96.3105 52C105.754 52 119.433 53.7407 135.972 60.8911C152.512 68.0417 170.738 79.5454 187.278 83.9231C203.818 88.301 226.237 89.7197 242.777 87.0696C259.316 84.4197 285.631 88.5984 302.17 97.967C318.71 107.336 319.595 112.817 336.134 118.65C352.674 124.482 371.595 128.912 388.135 126.024C417.311 126.024 428.384 134.352 444.923 140.554C461.463 146.757 471.626 141.888 488.166 153.08C504.706 164.271 518.07 170.104 534.609 175.444C551.149 180.785 567.688 182.55 584.228 192.048C600.768 201.546 617.307 218.777 633.847 218.648C650.386 218.52 662.833 214.552 679.372 216.209C695.912 217.866 716.545 225.147 733.084 236.705C749.624 248.263 766.164 250.577 782.703 249.18C799.242 247.783 814.963 250.221 831.503 257.794C848.042 265.367 865.401 278.075 881.94 284.689C898.48 291.302 918.121 289.188 934.66 289.86C951.2 290.532 963.969 300.416 980.508 302.886C997.048 305.356 999.396 320.864 1015.94 336.455C1032.48 352.046 1034.69 350.985 1064.91 350.985L1154 350.985" stroke="#02BD01" stroke-opacity="1.000000" stroke-width="12.000000" stroke-linecap="round"/>
	<path id="Line 24" d="M25 4L25 487" stroke="#02BD01" stroke-opacity="1.000000" stroke-width="8.000000" stroke-linecap="round"/>
	<path id="Line 25" d="M1041 485.5L25 485.5" stroke="#02BD01" stroke-opacity="1.000000" stroke-width="8.000000" stroke-linecap="round"/>
	<path id="60 days" d="M1071.28 488.527C1071.28 491.914 1068.59 494.434 1064.71 494.434C1060.29 494.434 1057.89 491.146 1057.89 485.48C1057.89 479.674 1060.41 476.41 1064.82 476.41C1067.92 476.41 1070.32 478.016 1070.95 480.729L1067.25 481.666C1067.01 480.248 1066 479.41 1064.71 479.41C1062.76 479.41 1061.54 481.186 1061.61 484.783C1062.52 483.535 1064.1 482.961 1065.69 482.961C1068.91 482.961 1071.28 485.334 1071.28 488.527ZM1086.76 485.598C1086.76 491.094 1084.55 494.434 1079.95 494.434C1075.36 494.434 1073.13 491.117 1073.13 485.598C1073.13 480.055 1075.36 476.41 1079.95 476.41C1084.55 476.41 1086.76 480.078 1086.76 485.598ZM1101.76 494L1095.66 494L1095.66 476.838L1101.76 476.838C1107.93 476.838 1110.45 480.729 1110.45 485.357C1110.45 490.449 1107.47 494 1101.76 494ZM1076.78 485.598C1076.78 489.605 1077.78 491.387 1079.95 491.387C1082.08 491.387 1083.11 489.635 1083.11 485.574C1083.11 481.449 1082.05 479.434 1079.95 479.434C1077.76 479.434 1076.78 481.643 1076.78 485.598ZM1099.43 480.201L1099.43 490.643L1102.31 490.643C1105.34 490.643 1106.56 488.457 1106.56 485.434C1106.56 482.217 1105.14 480.201 1102.29 480.201L1099.43 480.201ZM1119.66 491.621C1119.18 493.326 1117.72 494.334 1115.73 494.334C1113.38 494.334 1111.84 493.016 1111.84 490.977C1111.84 488.961 1113.35 487.52 1116.83 486.898L1118.68 486.559C1119.4 486.441 1119.62 486.201 1119.62 485.861C1119.62 485.217 1118.97 484.783 1117.81 484.783C1116.42 484.783 1115.44 485.434 1115.05 486.441L1112.44 484.883C1113.25 483.055 1115.27 481.953 1117.98 481.953C1121.29 481.953 1123.15 483.559 1123.07 486.318L1122.95 490.713C1122.93 491.264 1123.29 491.574 1123.84 491.527L1123.84 494.146C1123.46 494.24 1123.07 494.287 1122.57 494.287C1120.72 494.287 1119.86 493.473 1119.69 491.621L1119.66 491.621ZM1147.31 490.473C1147.31 492.922 1145.37 494.41 1142.2 494.41C1139.25 494.41 1137.25 493.139 1136.73 490.977L1140.14 489.969C1140.4 491.094 1140.97 491.861 1142.32 491.861C1143.23 491.861 1143.76 491.527 1143.76 490.83C1143.76 490.109 1143.21 489.705 1140.95 489.248C1138.36 488.721 1137.11 487.613 1137.11 485.697C1137.11 483.342 1138.93 481.953 1141.98 481.953C1144.69 481.953 1146.62 483.078 1147.31 485.07L1144.03 486.131C1143.79 485.287 1143.11 484.473 1141.93 484.473C1141.12 484.473 1140.62 484.83 1140.62 485.41C1140.62 486.055 1141.05 486.418 1143.33 486.898C1146.09 487.473 1147.31 488.551 1147.31 490.473ZM1132.41 493.402C1130.89 497.527 1129.17 498.775 1126.29 498.775C1125.71 498.775 1125.3 498.729 1124.71 498.559L1124.95 495.605C1125.42 495.752 1126.14 495.846 1126.58 495.846C1127.85 495.846 1128.3 494.984 1128.57 494.07L1124.32 482.387L1128.13 482.387L1130.37 490.496L1132.79 482.387L1136.44 482.387L1132.41 493.402ZM1061.71 488.047C1061.71 490.062 1062.85 491.41 1064.68 491.41C1066.41 491.41 1067.56 490.186 1067.56 488.598C1067.56 487.086 1066.5 485.861 1064.82 485.861C1063.39 485.861 1062.02 486.775 1061.71 488.047ZM1115.39 490.449C1115.39 491.094 1115.87 491.48 1116.71 491.48C1118.15 491.48 1119.47 490.379 1119.54 489.078L1119.59 488.094C1119.35 488.434 1118.94 488.65 1118.35 488.791L1117.26 489.031C1115.97 489.318 1115.39 489.729 1115.39 490.449Z" fill="#02BD01" fill-opacity="1.000000" fill-rule="evenodd"/>
	<path id="Line 26" d="M25 351L1027 351" stroke="#02BD01" stroke-opacity="0.350000" stroke-width="4.000000" stroke-linecap="round" stroke-dasharray="16 16"/>
	<rect id="Frame 47" rx="10.250000" width="46.000000" height="37.000000" transform="translate(2.000000 33.000000)" fill="#FFFFFF" fill-opacity="1.000000"/>
	<path id="42" d="M38.1767 60L26.4404 60L26.4404 57.5273C32.5341 52.5586 34.5029 49.9688 34.5029 47.8535C34.5029 46.6055 33.8349 45.3867 32.2705 45.3867C30.4482 45.3867 29.4169 47.0391 29.3701 49.3652L26.1533 48.4336C26.4873 45 28.5732 42.4102 32.4169 42.4102C36.208 42.4102 38.1533 44.9297 38.1533 47.5195C38.1533 50.6133 35.4873 53.7598 31.5732 56.7598L38.1767 56.7598L38.1767 60ZM22.2168 60L18.5898 60L18.5898 56.2793L10.5508 56.2793L10.5508 53.8066L18.209 42.8379L22.2168 42.8379L22.2168 53.6133L24.7598 53.6133L24.7598 56.2793L22.2168 56.2793L22.2168 60ZM18.6895 46.6816L13.9375 53.6133L18.7129 53.6133L18.7129 46.6816L18.6895 46.6816Z" fill="#02BD01" fill-opacity="1.000000" fill-rule="evenodd"/>
	<rect id="Frame 47" rx="10.250000" width="46.000000" height="37.000000" transform="translate(2.000000 33.000000)" stroke="#02BD01" stroke-opacity="1.000000" stroke-width="4.000000"/>
	<rect id="Frame 48" rx="10.250000" width="46.000000" height="37.000000" transform="translate(2.000000 333.000000)" fill="#FFFFFF" fill-opacity="1.000000"/>
	<path id="20" d="M23.1527 360L11.4164 360L11.4164 357.527C17.5101 352.559 19.4789 349.969 19.4789 347.854C19.4789 346.605 18.8109 345.387 17.2465 345.387C15.4242 345.387 14.3929 347.039 14.3461 349.365L11.1293 348.434C11.4633 345 13.5492 342.41 17.3929 342.41C21.184 342.41 23.1293 344.93 23.1293 347.52C23.1293 350.613 20.4632 353.76 16.5492 356.76L23.1527 356.76L23.1527 360ZM38.6795 351.598C38.6795 357.094 36.4705 360.434 31.8651 360.434C27.2772 360.434 25.0506 357.117 25.0506 351.598C25.0506 346.055 27.2772 342.41 31.8651 342.41C36.4705 342.41 38.6795 346.078 38.6795 351.598ZM28.6952 351.598C28.6952 355.605 29.703 357.387 31.8651 357.387C33.9979 357.387 35.0291 355.635 35.0291 351.574C35.0291 347.449 33.9745 345.434 31.8651 345.434C29.6795 345.434 28.6952 347.643 28.6952 351.598Z" fill="#02BD01" fill-opacity="1.000000" fill-rule="evenodd"/>
	<rect id="Frame 48" rx="10.250000" width="46.000000" height="37.000000" transform="translate(2.000000 333.000000)" stroke="#02BD01" stroke-opacity="1.000000" stroke-width="4.000000"/>
	<path id="OZEMPIC" d="M1231.23 145.357C1231.23 151.504 1227.2 154.41 1223.12 154.41C1218.97 154.41 1214.84 151.527 1214.84 145.357C1214.84 139.193 1219.02 136.434 1223.09 136.434C1227.25 136.434 1231.23 139.24 1231.23 145.357ZM1318.64 148.527C1317.97 151.861 1315.64 154.41 1311.54 154.41C1307.26 154.41 1303.37 151.674 1303.37 145.387C1303.37 139.17 1307.26 136.434 1311.44 136.434C1315.37 136.434 1317.85 138.906 1318.71 142.457L1315.57 143.318C1315.04 140.799 1313.65 139.17 1311.32 139.17C1308.78 139.17 1306.61 141.139 1306.61 145.357C1306.61 149.605 1308.78 151.65 1311.49 151.65C1313.79 151.65 1315.16 150.162 1315.52 147.906L1318.64 148.527ZM1245.63 154L1232.84 154L1232.84 151.551L1241.55 139.627L1233.13 139.627L1233.13 136.838L1245.32 136.838L1245.32 139.287L1236.51 151.24L1245.63 151.24L1245.63 154ZM1259.98 154L1248.22 154L1248.22 136.838L1260.03 136.838L1260.03 139.627L1251.29 139.627L1251.29 143.922L1259 143.922L1259 146.535L1251.29 146.535L1251.29 151.217L1259.98 151.217L1259.98 154ZM1265.74 154L1262.72 154L1262.72 136.838L1265.94 136.838L1271.48 145.457L1276.93 136.838L1280.1 136.838L1280.1 154L1277.1 154L1277.1 141.473L1277.02 141.473L1271.77 149.465L1271 149.465L1265.81 141.449L1265.74 141.449L1265.74 154ZM1286.21 154L1283.14 154L1283.14 136.838L1289.91 136.838C1293.78 136.838 1295.84 139.193 1295.84 142.287C1295.84 145.217 1293.94 147.883 1289.62 147.883L1286.21 147.883L1286.21 154ZM1301 154L1297.93 154L1297.93 136.838L1301 136.838L1301 154ZM1218.08 145.357C1218.08 149.846 1220.57 151.65 1223.12 151.65C1225.64 151.65 1227.99 149.846 1227.99 145.387C1227.99 140.898 1225.61 139.193 1223.09 139.193C1220.55 139.193 1218.08 140.922 1218.08 145.357ZM1286.21 139.598L1286.21 145.193L1289.74 145.193C1291.59 145.193 1292.69 144.162 1292.69 142.334C1292.69 140.535 1291.55 139.598 1289.77 139.598L1286.21 139.598Z" fill="#FF3D00" fill-opacity="1.000000" fill-rule="evenodd"/>
	<path id="RYBELSUS" d="M1287.3 357.318C1287.3 360.488 1284.8 362.41 1280.96 362.41C1277.17 362.41 1274.94 360.512 1274.17 357.992L1277.22 356.621C1277.57 358.426 1278.82 359.721 1281.03 359.721C1282.78 359.721 1284.01 358.953 1284.01 357.535C1284.01 355.906 1282.47 355.35 1280.22 354.658C1277.29 353.744 1274.65 352.666 1274.65 349.449C1274.65 346.379 1277.02 344.434 1280.55 344.434C1283.84 344.434 1286 346.139 1286.72 348.465L1283.86 349.689C1283.48 348.154 1282.4 347.047 1280.62 347.047C1279.11 347.047 1277.96 347.791 1277.96 349.162C1277.96 350.891 1279.74 351.342 1281.92 352.039C1284.99 353.023 1287.3 354.271 1287.3 357.318ZM1318.93 357.318C1318.93 360.488 1316.43 362.41 1312.59 362.41C1308.8 362.41 1306.57 360.512 1305.8 357.992L1308.85 356.621C1309.21 358.426 1310.45 359.721 1312.66 359.721C1314.42 359.721 1315.64 358.953 1315.64 357.535C1315.64 355.906 1314.11 355.35 1311.85 354.658C1308.92 353.744 1306.28 352.666 1306.28 349.449C1306.28 346.379 1308.66 344.434 1312.18 344.434C1315.47 344.434 1317.63 346.139 1318.35 348.465L1315.49 349.689C1315.11 348.154 1314.03 347.047 1312.25 347.047C1310.74 347.047 1309.59 347.791 1309.59 349.162C1309.59 350.891 1311.37 351.342 1313.55 352.039C1316.62 353.023 1318.93 354.271 1318.93 357.318ZM1203.58 362L1200.51 362L1200.51 344.838L1207.57 344.838C1211.33 344.838 1213.37 346.666 1213.37 349.783C1213.37 353.193 1210.93 354.465 1209.18 354.922L1213.76 361.93L1213.76 362L1210.11 362L1205.96 355.426L1203.58 355.426L1203.58 362ZM1223.26 362L1220.22 362L1220.22 355.643L1213.95 344.838L1217.46 344.838L1221.82 352.59L1226.15 344.838L1229.53 344.838L1223.26 355.643L1223.26 362ZM1238.6 362L1231.26 362L1231.26 344.838L1238.53 344.838C1241.79 344.838 1243.69 346.59 1243.69 349.062C1243.69 350.861 1242.7 352.209 1241.24 352.807L1241.24 352.854C1243.28 353.574 1244.33 355.186 1244.33 357.225C1244.33 360.102 1242.2 362 1238.6 362ZM1258.38 362L1246.62 362L1246.62 344.838L1258.42 344.838L1258.42 347.627L1249.69 347.627L1249.69 351.922L1257.39 351.922L1257.39 354.535L1249.69 354.535L1249.69 359.217L1258.38 359.217L1258.38 362ZM1272.27 362L1261.11 362L1261.11 344.838L1264.18 344.838L1264.18 359.146L1272.27 359.146L1272.27 362ZM1303.4 356.574C1303.4 360.055 1300.42 362.41 1296.51 362.41C1292.53 362.41 1289.72 360.055 1289.72 356.598L1289.72 344.838L1292.79 344.838L1292.79 355.854C1292.79 358.52 1294.38 359.65 1296.59 359.65C1298.74 359.65 1300.33 358.52 1300.33 355.854L1300.33 344.838L1303.4 344.838L1303.4 356.574ZM1234.33 347.41L1234.33 351.898L1238.26 351.898C1239.54 351.898 1240.5 351.078 1240.5 349.666C1240.5 348.248 1239.58 347.41 1238.31 347.41L1234.33 347.41ZM1203.58 347.48L1203.58 352.953L1206.75 352.953C1208.5 352.953 1210.14 352.303 1210.14 350.094C1210.14 347.791 1208.39 347.48 1207.23 347.48L1203.58 347.48ZM1234.33 354.271L1234.33 359.357L1238.77 359.357C1240.19 359.357 1241.12 358.426 1241.12 356.861C1241.12 355.209 1240.04 354.271 1238.7 354.271L1234.33 354.271Z" fill="#02BD01" fill-opacity="1.000000" fill-rule="evenodd"/>
	<path id="WEGOWY" d="M1257.04 218.613C1256.82 220.008 1254.83 222.41 1251.5 222.41C1248.37 222.41 1243.65 220.248 1243.65 213.48C1243.65 207.023 1247.87 204.434 1251.93 204.434C1255.75 204.434 1258.14 206.76 1259.15 209.83L1256.03 210.744C1255.48 208.729 1254.04 207.17 1251.81 207.17C1249.51 207.17 1246.89 208.799 1246.89 213.457C1246.89 217.969 1249.46 219.65 1252.05 219.65C1254.81 219.65 1256.63 217.705 1256.63 215.543L1256.63 215.232L1251.85 215.232L1251.85 212.83L1259.61 212.83L1259.61 222L1257.28 222L1257.09 218.613L1257.04 218.613ZM1278.35 213.357C1278.35 219.504 1274.32 222.41 1270.24 222.41C1266.09 222.41 1261.96 219.527 1261.96 213.357C1261.96 207.193 1266.14 204.434 1270.21 204.434C1274.37 204.434 1278.35 207.24 1278.35 213.357ZM1212.59 222L1209.61 222L1204.46 204.838L1207.57 204.838L1211.2 217.418L1211.25 217.418L1214.92 204.838L1217.61 204.838L1221.28 217.395L1221.33 217.395L1224.95 204.838L1228.05 204.838L1222.89 222L1219.91 222L1216.29 209.303L1216.24 209.303L1212.59 222ZM1241.78 222L1230.02 222L1230.02 204.838L1241.82 204.838L1241.82 207.627L1233.09 207.627L1233.09 211.922L1240.79 211.922L1240.79 214.535L1233.09 214.535L1233.09 219.217L1241.78 219.217L1241.78 222ZM1287.18 222L1284.21 222L1279.05 204.838L1282.17 204.838L1285.79 217.418L1285.84 217.418L1289.51 204.838L1292.2 204.838L1295.87 217.395L1295.92 217.395L1299.55 204.838L1302.64 204.838L1297.48 222L1294.51 222L1290.88 209.303L1290.83 209.303L1287.18 222ZM1312.62 222L1309.58 222L1309.58 215.643L1303.31 204.838L1306.82 204.838L1311.18 212.59L1315.51 204.838L1318.89 204.838L1312.62 215.643L1312.62 222ZM1265.2 213.357C1265.2 217.846 1267.69 219.65 1270.24 219.65C1272.76 219.65 1275.11 217.846 1275.11 213.387C1275.11 208.898 1272.73 207.193 1270.21 207.193C1267.67 207.193 1265.2 208.922 1265.2 213.357Z" fill="#84B5FF" fill-opacity="1.000000" fill-rule="evenodd"/>
</svg>
