<svg width="231.663574" height="48.779297" viewBox="0 0 231.664 48.7793" fill="none" xmlns="http://www.w3.org/2000/svg" xmlns:xlink="http://www.w3.org/1999/xlink">
	<desc>
			Created with Pixso.
	</desc>
	<defs/>
	<path id="Vector" d="M46.5625 19.0815L46.5625 27.3257L36.2734 27.3257L36.2734 19.0815L26.3203 0.453613L37.5029 0.453613L41.6904 11.6978L41.7715 11.6978L45.9941 0.453613L56.6313 0.453613L46.5625 19.0815ZM87.5103 27.3257L111.012 27.3257L111.012 20.8604L97.5674 20.8604L97.5674 17.1978L110.165 17.1978L110.165 10.7324L97.5674 10.7324L97.5674 6.91846L110.745 6.91846L110.745 0.453613L87.5103 0.453613L87.5103 27.3257ZM114.167 27.3257L137.101 27.3257L137.101 19.3955L124.468 19.3955L124.468 0.453613L114.167 0.453613L114.167 27.3257ZM161.495 0.918457C158.688 0.337402 155.498 0 152.621 0C146.52 0 138.829 1.31396 138.829 8.69775C138.829 19.1279 152.923 15.8604 152.923 19.4766C152.923 20.8257 150.73 21.3257 148.317 21.3257C145.244 21.3257 141.868 20.7095 139.096 19.5581L139.096 26.5234C142.935 27.4067 146.207 27.7905 150.162 27.7905C156.113 27.7905 163.224 25.9766 163.224 18.7793C163.224 8.41846 149.129 11.7324 149.129 8.23242C149.129 6.5 151.937 6.46533 153.549 6.46533C156.472 6.46533 159.198 7 161.495 7.81396L161.495 0.918457ZM176.355 0.453613L166.065 0.453613L166.065 16.7793C166.065 24.7095 171.947 27.7905 179.429 27.7905C187.537 27.7905 192.873 24.9419 192.873 16.2441L192.873 0.453613L182.804 0.453613L182.804 16.4302C182.804 19.0464 182.225 20.8604 179.545 20.8604C177.085 20.8604 176.355 18.9302 176.355 16.3955L176.355 0.453613ZM218.382 0.918457C215.574 0.337402 212.384 0 209.508 0C203.406 0 195.715 1.31396 195.715 8.69775C195.715 19.1279 209.809 15.8604 209.809 19.4766C209.809 20.8257 207.617 21.3257 205.204 21.3257C202.13 21.3257 198.754 20.7095 195.982 19.5581L195.982 26.5234C199.822 27.4067 203.093 27.7905 207.048 27.7905C212.999 27.7905 220.11 25.9766 220.11 18.7793C220.11 8.41846 206.016 11.7324 206.016 8.23242C206.016 6.5 208.823 6.46533 210.436 6.46533C213.359 6.46533 216.085 7 218.382 7.81396L218.382 0.918457ZM12.5977 18.1978L10.3008 18.1978L10.3008 27.3257L0 27.3257L0 0.453613L16.6343 0.453613C23.0493 0.453613 27.0049 2.45361 27.0049 7.61621C27.0049 11.7324 24.4297 13.814 20.5898 14.7441L20.5898 14.8257C22.8174 15.2095 24.2788 15.7793 25.1255 17.7095C26.3784 20.5933 25.9839 38.3486 26.1812 48.7793L16.2051 39.9766C16.1934 34.5347 16.3096 21.1045 15.521 19.5933C14.9058 18.3604 13.8735 18.1978 12.5977 18.1978ZM12.5278 12.1978C14.6392 12.1978 16.7158 11.9653 16.7158 9.23242C16.7158 6.80225 14.7554 6.46533 12.6787 6.46533L9.83691 6.46533L9.83691 12.1978L12.5278 12.1978ZM84.5522 19.8604C84.5522 26.6396 79.1006 27.3257 73.5322 27.3257L57.9653 27.3257L57.9653 0.453613L74.8315 0.453613C79.4834 0.453613 84.0537 1.95361 84.0537 7.08154C84.0537 10.7793 82.0933 12.7441 78.5205 13.6626L78.5205 13.7441C82.2441 14.2324 84.5522 17.1626 84.5522 19.8604ZM67.6514 10.7324L70.2266 10.7324C72.0361 10.7324 73.9966 10.1978 73.9966 8.15137C73.9966 6.15137 72.3027 5.53467 70.4585 5.53467L67.6514 5.53467L67.6514 10.7324ZM74.2515 19.0117C74.2515 16.6978 72.3262 16.2793 70.4121 16.2793L67.6514 16.2793L67.6514 21.7905L70.3423 21.7905C72.2217 21.7793 74.2515 21.0933 74.2515 19.0117ZM223.497 4.34863C223.497 6.60449 225.33 8.44189 227.581 8.44189C229.831 8.44189 231.664 6.60449 231.664 4.34863C231.664 2.09326 229.831 0.255859 227.581 0.255859C225.33 0.255859 223.497 2.09326 223.497 4.34863ZM224.274 4.34863C224.274 2.38379 225.689 0.87207 227.592 0.87207C229.471 0.87207 230.886 2.39551 230.886 4.34863C230.886 6.31396 229.471 7.82568 227.592 7.82568C225.689 7.82568 224.274 6.31396 224.274 4.34863ZM226.014 6.74414L226.792 6.74414L226.792 4.62793L227.453 4.62793L228.787 6.74414L229.61 6.74414L228.253 4.62793C228.996 4.62793 229.483 4.06982 229.483 3.30225C229.483 2.39551 228.938 1.95361 227.847 1.95361L226.014 1.95361L226.014 6.74414ZM226.792 2.55811L227.72 2.55811C228.218 2.55811 228.706 2.7207 228.706 3.25586C228.706 3.88379 228.323 4 227.72 4L226.792 4L226.792 2.55811Z" fill="#12086A" fill-opacity="1.000000" fill-rule="nonzero"/>
</svg>
