<svg width="91.463379" height="60.000000" viewBox="0 0 91.4634 60" fill="none" xmlns="http://www.w3.org/2000/svg" xmlns:xlink="http://www.w3.org/1999/xlink">
	<desc>
			Created with Pixso.
	</desc>
	<defs>
		<filter id="filter_31_32_dd" x="4.765625" y="3.930176" width="25.782227" height="25.416016" filterUnits="userSpaceOnUse" color-interpolation-filters="sRGB">
			<feFlood flood-opacity="0" result="BackgroundImageFix"/>
			<feColorMatrix in="SourceAlpha" type="matrix" values="0 0 0 0 0 0 0 0 0 0 0 0 0 0 0 0 0 0 127 0" result="hardAlpha"/>
			<feOffset dx="0.0953049" dy="0.540366"/>
			<feGaussianBlur stdDeviation="0.272683"/>
			<feComposite in2="hardAlpha" operator="out" k2="-1" k3="1"/>
			<feColorMatrix type="matrix" values="0 0 0 0 0 0 0 0 0 0 0 0 0 0 0 0 0 0 0.25 0"/>
			<feBlend mode="normal" in2="BackgroundImageFix" result="effect_dropShadow_1"/>
			<feBlend mode="normal" in="SourceGraphic" in2="effect_dropShadow_1" result="shape"/>
		</filter>
		<clipPath id="clip31_17">
			<rect id="mipa-logo" width="91.463409" height="60.000000" fill="white" fill-opacity="0"/>
		</clipPath>
	</defs>
	<rect id="mipa-logo" width="91.463409" height="60.000000" fill="#FFFFFF" fill-opacity="0"/>
	<g clip-path="url(#clip31_17)">
		<path id="Shape 325 1" d="M62.2041 13.8799C61.2578 14.4302 52.0239 16.9219 43.2896 16.647C41.8037 16.6006 40.126 16.5601 38.9653 16.4707C33.0156 16.0112 28.0229 14.7314 28.0547 14.5679C28.0615 14.5347 28.2788 14.5474 28.5972 14.5679C29.209 14.6255 29.814 14.7407 30.4038 14.9121C30.5391 14.9561 33.502 15.5327 34.0176 15.6001C35.5562 15.8003 35.0083 15.7803 36.9077 15.9438C41.3413 16.3257 46.6152 16.3745 49.9087 16.0415C56.127 15.4136 62.2808 13.4033 62.3843 13.708C62.4014 13.7559 62.2778 13.8369 62.2041 13.8799Z" fill="#CACACA" fill-opacity="1.000000" fill-rule="evenodd"/>
		<path id="Shape 325 1" d="M43.2896 16.647C41.8037 16.6006 40.126 16.5601 38.9653 16.4707C33.0156 16.0112 28.0229 14.7314 28.0547 14.5679C28.0615 14.5347 28.2788 14.5474 28.5972 14.5679C29.209 14.6255 29.814 14.7407 30.4038 14.9121C30.5391 14.9561 33.502 15.5327 34.0176 15.6001C35.5562 15.8003 35.0083 15.7803 36.9077 15.9438C41.3413 16.3257 46.6152 16.3745 49.9087 16.0415C56.127 15.4136 62.2808 13.4033 62.3843 13.708C62.4014 13.7559 62.2778 13.8369 62.2041 13.8799C61.2578 14.4302 52.0239 16.9219 43.2896 16.647Z" stroke="#CDCDCD" stroke-opacity="1.000000" stroke-width="0.182927" stroke-linejoin="round"/>
		<path id="Vector" d="M70.7012 32.0601C70.7012 45.2822 59.4404 56.002 45.5488 56.002C31.6577 56.002 20.3965 45.2822 20.3965 32.0601C20.3965 18.8379 31.6577 8.11816 45.5488 8.11816C59.4404 8.11816 70.7012 18.8379 70.7012 32.0601Z" stroke="#CDCDCD" stroke-opacity="1.000000" stroke-width="0.914634"/>
		<path id="Ellipse 1 copy" d="M65.2451 32.147C65.2451 45.3691 56.4678 56.0889 45.6406 56.0889C34.813 56.0889 26.0356 45.3691 26.0356 32.147C26.0356 18.9248 34.813 8.20508 45.6406 8.20508C56.4678 8.20508 65.2451 18.9248 65.2451 32.147Z" stroke="#CDCDCD" stroke-opacity="1.000000" stroke-width="0.914634"/>
		<path id="Ellipse 1 copy 2" d="M57.5762 32.1475C57.5762 45.3696 52.2324 56.0894 45.6401 56.0894C39.0483 56.0894 33.7046 45.3696 33.7046 32.1475C33.7046 18.9253 39.0483 8.20557 45.6401 8.20557C52.2324 8.20557 57.5762 18.9253 57.5762 32.1475Z" stroke="#CDCDCD" stroke-opacity="1.000000" stroke-width="0.914634"/>
		<path id="Ellipse 1 copy 3" d="M50.5557 32.1475C50.5557 45.3696 48.355 56.0894 45.6406 56.0894C42.9263 56.0894 40.7261 45.3696 40.7261 32.1475C40.7261 18.9253 42.9263 8.20557 45.6406 8.20557C48.355 8.20557 50.5557 18.9253 50.5557 32.1475Z" stroke="#CDCDCD" stroke-opacity="1.000000" stroke-width="0.914634"/>
		<path id="Shape 324 1 copy" d="M62.2036 13.6948C62.7393 13.2891 70.5781 19.4092 68.5161 25.5186C68.1099 26.7222 68.4204 26.3145 66.2764 27.0688C63.9336 27.8936 65.1577 26.5 63.8325 25.5186C64.5317 26.0361 57.207 17.8398 57.1782 19.0894C57.1924 18.4727 57.209 17.7847 57.6997 17.1138C58.0347 16.6699 58.4858 16.3276 59.0039 16.126C59.4561 15.9463 60.0659 15.8906 60.8296 15.8789C61.521 15.8682 61.9214 15.8833 62.1333 15.6318C62.5796 15.104 62.0249 13.8301 62.2036 13.6948Z" fill="#FFFFFF" fill-opacity="1.000000" fill-rule="evenodd"/>
		<path id="Shape 324 1" d="M63.1094 14.6953C63.626 14.3779 70.0605 20.5142 67.6445 25.8003C67.1689 26.8418 67.4839 26.5039 65.4971 26.9961C63.3257 27.5342 64.5503 26.3926 63.458 25.4028C64.0342 25.9248 58.2544 17.9761 58.1118 19.0908C58.1821 18.541 58.2612 17.9272 58.7632 17.3696C59.1035 17.0015 59.5391 16.7344 60.0215 16.5972C60.4419 16.4751 60.9927 16.4775 61.6763 16.5317C62.2954 16.5811 62.6519 16.6284 62.8652 16.4219C63.3145 15.9878 62.938 14.8013 63.1094 14.6953Z" fill="#CDCDCD" fill-opacity="1.000000" fill-rule="evenodd"/>
		<path id="Shape 323 1 copy" d="M51.8599 8.11816C52.5132 8.95752 52.8726 9.71924 52.5918 10.2075C52.2939 10.7251 51.4624 10.5039 50.9453 11.0781C50.6919 11.3599 50.2598 11.9316 50.0308 12.1226C49.605 12.4785 49.3721 11.062 48.2017 11.4263C47.623 11.6069 47.1812 11.4785 46.7241 11.8691C46.3081 12.2246 45.2725 12.4927 45.0933 13.0967C44.8843 13.7998 45.7163 14.6196 45.4385 14.9595C45.23 15.2148 44.3613 14.9253 43.9141 14.9663C43.541 15.0005 42.6299 15.4233 41.7935 16.2402C41.2949 16.7275 41.0879 17.1421 40.731 17.0986C40.2905 17.0449 39.7373 15.8501 39.5454 15.6191C39.2578 15.2729 38.9526 15.0962 38.6177 14.7793C38.0063 14.2012 37.8442 14.2422 37.4087 14.5601C36.7988 15.0059 36.3716 14.8804 35.2676 14.7925C35.105 14.769 34.939 14.7964 34.793 14.8716C34.3721 15.1187 34.2705 15.54 33.9331 15.7788C33.6191 16.001 33.1831 16.0488 32.6528 15.9531C32.5918 15.6626 32.5308 15.3726 32.4697 15.0825C32.4087 14.6182 32.3477 14.1538 32.2871 13.6895C31.7734 13.748 31.2559 13.625 30.8232 13.3418C30.4976 13.124 29.6973 12.6479 29.543 12.2974C30.9751 11.7627 32.9878 11.4727 34.4819 11.0781C36.8979 10.4409 38.8369 10.3311 41.2505 9.68506C42.6699 9.30518 43.6221 8.93359 45.0918 8.81494C46.1782 8.72705 47.3994 8.6958 48.2017 8.64062C49.4321 8.55469 50.6548 8.37988 51.8599 8.11816Z" fill="#FFFFFF" fill-opacity="1.000000" fill-rule="evenodd"/>
		<path id="Shape 323 1" d="M51.8423 10.3945C51.4634 10.7344 50.606 10.2271 50.2559 10.5835C50.0083 10.835 50.2944 11.2979 50.0767 11.4673C49.6729 11.7827 48.3262 10.4507 47.2676 10.7837C46.7476 10.9482 46.5796 11.5078 46.1562 11.8516C45.772 12.1626 44.8574 12.4019 44.6704 12.9229C44.4541 13.5264 45.1279 14.2217 44.8716 14.5103C44.6792 14.7266 43.9487 14.4844 43.564 14.5205C43.2432 14.5508 42.4478 14.9092 41.7046 15.5947C41.2646 16.0005 41.0747 16.3447 40.7769 16.3081C40.4092 16.2637 39.9854 15.2725 39.8315 15.0796C39.6016 14.791 39.3501 14.644 39.0781 14.3794C38.5811 13.896 38.3149 13.5288 37.9492 13.5054C37.3066 13.4648 37.0088 14.2539 36.2759 14.4019C35.5557 14.5469 35.2515 14.2573 34.6392 14.5229C34.0059 14.7974 33.9805 15.7168 33.3589 15.5742C32.9253 15.4756 33.2983 14.6113 33.0962 14.0742C32.958 13.6543 32.6938 13.2861 32.3398 13.021C31.7568 12.7192 30.9565 13.0527 30.8433 12.8564C30.7305 12.6602 31.3623 12.1416 31.583 11.9678C32.0557 11.5952 32.5479 11.2407 33.0684 10.897C35.7808 9.79834 38.5874 8.94873 41.4536 8.35791C43.562 7.94971 45.4502 7.83545 46.8682 7.96191C48.0718 8.06934 48.6548 8.51611 49.8623 8.46826C50.3315 8.44971 51.0576 8.37256 51.5469 8.80762C52.0361 9.24316 52.1792 10.0918 51.8423 10.3945Z" fill="#CDCDCD" fill-opacity="1.000000" fill-rule="evenodd"/>
		<path id="Shape 326 1 copy" d="M54.8994 54.4873C54.8486 54.1118 51.7715 54.2007 50.4561 54.0449C49.6748 53.9365 48.8813 53.9683 48.1113 54.1382C47.1216 54.3853 46.5566 54.8569 45.7124 55.2979C43.8916 56.2476 42.0503 56 42.0513 56.1787C42.0527 56.4258 45.2446 56.8706 49.0625 56.3252C51.9604 55.9116 54.9658 54.9761 54.8994 54.4873Z" fill="#FFFFFF" fill-opacity="1.000000" fill-rule="evenodd"/>
		<path id="Shape 326 1" d="M54.0073 54.8032C53.9648 54.4907 51.4038 54.5649 50.3076 54.4346C49.6577 54.3447 48.9971 54.3711 48.356 54.5122C47.5332 54.7183 47.0625 55.1108 46.3589 55.478C44.8433 56.2686 43.3105 56.063 43.311 56.2114C43.312 56.417 45.9697 56.7876 49.1479 56.3335C51.5605 55.9888 54.0625 55.21 54.0073 54.8032Z" fill="#CDCDCD" fill-opacity="1.000000" fill-rule="evenodd"/>
		<path id="Shape 327 1 copy" d="M41.6494 54.1372C41.9268 53.7485 39.3223 52.041 37.6533 48.8687C36.9946 47.6167 36.6953 46.6577 35.8145 45.5493C34.2852 43.6226 32.2554 43.0933 29.5103 41.481C27.8423 40.5015 26.4165 39.7197 26.0605 40.1006C25.6982 40.4888 26.5923 41.9302 27.624 43.3569C32.6611 50.3218 41.1089 54.8945 41.6494 54.1372Z" fill="#FFFFFF" fill-opacity="1.000000" fill-rule="evenodd"/>
		<path id="Shape 327 1" d="M40.8784 54.0312C41.1162 53.6992 38.8896 52.2388 37.4629 49.5288C36.8994 48.4585 36.644 47.6392 35.8916 46.6914C34.584 45.0449 32.8486 44.5918 30.5024 43.2139C29.0771 42.3765 27.8584 41.7085 27.5542 42.0342C27.2441 42.3662 28.0088 43.5981 28.8906 44.8174C33.1958 50.77 40.4165 54.6787 40.8784 54.0312Z" fill="#CBCBCB" fill-opacity="1.000000" fill-rule="evenodd"/>
		<g filter="url(#filter_31_32_dd)">
			<path id="Shape 328 1" d="M23.0493 4.20752C23.2412 4.67529 23.3643 5.16797 23.415 5.6709C23.4746 6.28613 23.3564 6.69238 23.5981 7.13428C24.0522 7.96484 25.1816 7.89062 25.4287 8.60693C25.6206 9.1626 25.0913 9.73193 24.5127 10.793C23.9409 11.8413 23.71 12.5396 23.9639 12.8052C24.3604 13.2202 25.7363 12.335 26.1592 12.8052C26.3672 13.0366 26.1538 13.3965 26.3418 13.7197C26.5928 14.1504 27.23 14.1792 27.8052 14.2686C28.6377 14.3979 29.6309 14.7061 29.6348 15C29.6362 15.124 29.2822 15.293 28.7202 15.5488C28.4937 15.6514 28.2388 15.7803 27.9883 15.915C27.3682 16.2485 26.9683 16.6006 26.8906 16.8296C26.7036 17.3828 27.0181 18.0146 27.4395 18.4756C26.6519 18.5913 25.8516 18.5928 25.0635 18.4805C24.1548 18.3467 23.4917 18.0947 22.5034 18.2974C21.6489 18.4727 21.0669 18.8037 20.6743 19.2119C19.7798 20.1436 19.9424 21.6396 19.5767 22.5029C19.0381 23.7329 18.3623 24.8979 17.5615 25.9756C17.0107 26.6978 16.3984 27.3711 15.7324 27.9878C15.6113 27.479 15.4272 26.9873 15.1836 26.5244C15.0444 26.2505 14.8589 26.0029 14.6348 25.793C14.2104 25.4473 13.8511 25.5513 13.5371 25.2441C12.813 24.5352 13.6953 22.8843 13.1714 22.5C12.4731 21.9893 10.1318 24.3389 9.32959 23.7808C8.94336 23.5122 9.22656 22.7822 8.78076 22.3174C8.39844 21.918 7.81934 21.9688 7.13477 21.9517C6.58154 21.936 6.03125 21.875 5.48828 21.7686C5.91553 21.2495 6.3457 20.7563 6.76855 20.3052C7.21973 19.8242 7.68457 19.3516 7.68359 18.6587C7.66406 18.1792 7.46875 17.7231 7.13477 17.3784L11.8906 16.0977L8.23242 12.8052C8.5498 12.6367 8.82812 12.4028 9.04883 12.1191C9.26953 11.8354 9.42773 11.5078 9.5127 11.1587C9.58057 10.8608 9.5835 10.5518 9.52148 10.2529C9.37646 9.59424 8.95898 9.32959 8.59814 8.78076C8.28271 8.28516 8.09424 7.71973 8.04932 7.13428C8.48486 7.24219 8.90723 7.36279 9.32959 7.5C10.9536 8.02832 11.9658 8.58691 12.6592 8.11426C13.2568 7.70654 13.1113 6.71484 13.5371 6.58545C14.5215 6.28662 16.6445 11.1069 17.5615 10.793C18.5308 10.4609 17.7871 6.46533 18.8418 6.21973C19.2432 6.12646 19.6035 6.43555 20.1265 6.41309C20.7261 6.38672 21.1733 6.04053 21.7686 5.48779C22.2261 5.06348 22.6494 4.64111 23.0493 4.20752Z" fill="#FC0D1B" fill-opacity="1.000000" fill-rule="evenodd"/>
		</g>
		<path id="Manitoba international pharmacists association copy" d="M12.0957 45.3965L12.7827 41.5L11.6191 41.5L10.4512 43.333L9.93457 41.5L8.76562 41.5L8.07861 45.3965L9.14893 45.3965L9.51074 43.3438L9.90918 44.7871L10.48 44.7871L11.3877 43.3438L11.0254 45.3965L12.0957 45.3965ZM12.4194 45.3965L13.5117 45.3965L13.8774 44.6333L14.9146 44.6333L15.0161 45.3965L16.1025 45.3965L15.5488 41.5L14.3521 41.5L12.4194 45.3965ZM14.1616 43.9199L14.7651 42.5483L14.8691 43.9199L14.1611 43.9199L14.1616 43.9199ZM19.0435 45.3965L19.894 45.3965L20.5811 41.5L19.5107 41.5L19.1616 43.481L17.9468 41.5L17.1128 41.5L16.4258 45.3965L17.4956 45.3965L17.8335 43.481L19.0435 45.3965ZM21.6338 45.3965L22.3203 41.5L21.2505 41.5L20.5635 45.3965L21.6338 45.3965ZM26.0249 41.5L22.71 41.5L22.5454 42.4326L23.6704 42.4326L23.1479 45.3965L24.2183 45.3965L24.7407 42.4326L25.8604 42.4326L26.0249 41.5ZM28.2471 45.2681C28.5049 45.1621 28.7437 45.0137 28.9531 44.8291C29.1592 44.6489 29.3354 44.4365 29.4756 44.2007C29.6104 43.9741 29.7036 43.7251 29.7495 43.4653C29.7939 43.2246 29.7896 42.9775 29.7383 42.7383C29.689 42.5073 29.5918 42.2891 29.4526 42.0981C29.312 41.9058 29.1265 41.7505 28.9126 41.6455C28.6704 41.5293 28.4038 41.4717 28.1353 41.478C27.8521 41.4771 27.5713 41.5308 27.3086 41.6372C27.0498 41.7412 26.8105 41.8892 26.6011 42.0732C26.394 42.2544 26.2168 42.4663 26.0757 42.7017C25.938 42.9297 25.8433 43.1807 25.7969 43.4424C25.7524 43.6851 25.7559 43.9336 25.8076 44.1743C25.8569 44.4048 25.9551 44.6221 26.0962 44.811C26.2393 45.0015 26.4253 45.1558 26.6396 45.2607C26.8818 45.377 27.1479 45.4346 27.4165 45.4282C27.7017 45.4302 27.9839 45.3755 28.2471 45.2671L28.2471 45.2681ZM27.0005 43.0786C27.0557 42.958 27.1299 42.8467 27.2202 42.7495C27.3105 42.6523 27.4185 42.5732 27.5386 42.5161C27.668 42.4561 27.8091 42.4258 27.9517 42.4282C28.0835 42.4243 28.2144 42.4526 28.3325 42.5107C28.4326 42.562 28.5156 42.6411 28.5723 42.7383C28.6294 42.8389 28.666 42.9502 28.6792 43.0649C28.6943 43.1909 28.6904 43.3188 28.6675 43.4434C28.644 43.5732 28.6045 43.6997 28.5488 43.8193C28.4932 43.9409 28.4194 44.0537 28.3306 44.1543C28.2417 44.2544 28.1333 44.3354 28.0117 44.3921C27.8813 44.4521 27.7388 44.4819 27.5952 44.48C27.4624 44.4849 27.3311 44.4556 27.2124 44.3945C27.1143 44.3413 27.0322 44.2612 26.9761 44.1641C26.9185 44.063 26.8823 43.9507 26.8696 43.835C26.8545 43.708 26.8589 43.5796 26.8818 43.4536C26.9048 43.3237 26.9443 43.1973 27 43.0776L27.0005 43.0786ZM33.2764 43.7451C33.1689 43.5757 33.0015 43.4521 32.8076 43.3994C33.002 43.3213 33.1704 43.1899 33.2944 43.021C33.4106 42.8672 33.4902 42.689 33.5264 42.4995C33.5557 42.3408 33.5479 42.1772 33.5034 42.022C33.4634 41.875 33.3794 41.7441 33.2622 41.6465C33.1348 41.5454 32.9756 41.4932 32.813 41.5L30.5522 41.5L29.8652 45.3965L31.7808 45.3965C32.0249 45.3979 32.2676 45.3628 32.5015 45.292C32.7124 45.23 32.9058 45.1191 33.0659 44.9683C33.2222 44.8145 33.3237 44.6143 33.356 44.3975C33.4106 44.1772 33.3823 43.9448 33.2764 43.7446L33.2764 43.7451ZM32.2368 44.3491C32.2026 44.3955 32.1572 44.4331 32.105 44.459C32.0537 44.4844 31.9966 44.4976 31.939 44.4971L31.0942 44.4971L31.2095 43.8442L32.0928 43.8442C32.1416 43.8423 32.1895 43.8579 32.2275 43.8882C32.2637 43.9189 32.29 43.96 32.3027 44.0059C32.3184 44.0625 32.3203 44.1216 32.3081 44.1787C32.2983 44.2402 32.2739 44.2983 32.2368 44.3481L32.2368 44.3491ZM32.2246 42.4116C32.2676 42.4106 32.3105 42.4209 32.3481 42.4419C32.3838 42.4629 32.4111 42.4961 32.4253 42.5352C32.4419 42.5913 32.4438 42.6509 32.4302 42.708C32.4214 42.7759 32.395 42.8403 32.3535 42.8945C32.3208 42.936 32.2773 42.9678 32.228 42.9863C32.1826 43.0024 32.1348 43.0107 32.0864 43.0107L31.3564 43.0107L31.4619 42.4126L32.2246 42.4126L32.2246 42.4116ZM33.2124 45.397L34.3047 45.397L34.6704 44.6343L35.7075 44.6343L35.8091 45.397L36.8955 45.397L36.3423 41.501L35.146 41.501L33.2124 45.397ZM34.9546 43.9209L35.5581 42.5488L35.6621 43.9209L34.9541 43.9209L34.9546 43.9209ZM39.3589 45.397L40.0459 41.501L38.9756 41.501L38.2886 45.397L39.3589 45.397ZM42.646 45.397L43.4966 45.397L44.1836 41.501L43.1133 41.501L42.7642 43.4819L41.5493 41.501L40.7153 41.501L40.0283 45.397L41.0981 45.397L41.436 43.4819L42.646 45.397ZM47.8877 41.501L44.5732 41.501L44.4087 42.4336L45.5337 42.4336L45.0107 45.397L46.0811 45.397L46.6035 42.4336L47.7231 42.4336L47.8877 41.501ZM48.8252 44.4644L48.9336 43.8496L50.3491 43.8496L50.502 42.9824L49.0864 42.9824L49.1831 42.4336L50.8403 42.4336L51.0049 41.501L48.2778 41.501L47.5908 45.397L50.3677 45.397L50.5322 44.4644L48.8252 44.4644L48.8252 44.4644ZM51.9365 45.397L52.1475 44.2007L52.5811 44.2007L53.0566 45.397L54.2314 45.397L53.6606 43.9648C53.7915 43.8813 53.9106 43.7808 54.0151 43.666C54.1191 43.5513 54.2065 43.4229 54.2744 43.2842C54.3423 43.1475 54.3901 43.0015 54.4165 42.8511C54.4458 42.689 54.4424 42.5229 54.4067 42.3623C54.3726 42.2051 54.3066 42.0566 54.2124 41.9263C54.1172 41.7959 53.9932 41.6895 53.8496 41.6162C53.6929 41.5371 53.519 41.4976 53.3433 41.501L51.5542 41.501L50.8672 45.397L51.9375 45.397L51.9365 45.397ZM52.4595 42.4336L53.1069 42.4336C53.1533 42.4346 53.1978 42.4521 53.2324 42.4834C53.2759 42.5205 53.3076 42.5688 53.3242 42.623C53.3452 42.6973 53.3472 42.7754 53.3306 42.8511C53.3179 42.9302 53.2905 43.0068 53.2495 43.0757C53.2173 43.1313 53.1743 43.1797 53.123 43.2188C53.0845 43.249 53.0371 43.2661 52.9883 43.2681L52.313 43.2681L52.4595 42.4336ZM57.1885 45.397L58.0391 45.397L58.7261 41.501L57.6562 41.501L57.3071 43.4819L56.0923 41.501L55.2578 41.501L54.5708 45.397L55.6411 45.397L55.979 43.4819L57.1885 45.397ZM58.3628 45.397L59.4551 45.397L59.8208 44.6343L60.8579 44.6343L60.9595 45.397L62.0459 45.397L61.4927 41.501L60.2964 41.501L58.3628 45.397ZM60.105 43.9209L60.7085 42.5488L60.8125 43.9209L60.1045 43.9209L60.105 43.9209ZM65.7344 41.501L62.4194 41.501L62.2549 42.4336L63.3799 42.4336L62.8574 45.397L63.9277 45.397L64.4502 42.4336L65.5693 42.4336L65.7344 41.501ZM66.5068 45.397L67.1938 41.501L66.124 41.501L65.4365 45.397L66.5068 45.397ZM69.7563 45.2681C70.0146 45.1621 70.2529 45.0137 70.4624 44.8291C70.6685 44.6489 70.8452 44.4365 70.9849 44.2007C71.1196 43.9741 71.2129 43.7251 71.2593 43.4653C71.3032 43.2246 71.2993 42.9775 71.2476 42.7383C71.1982 42.5073 71.1011 42.2891 70.9624 42.0981C70.8213 41.9058 70.6362 41.7505 70.4219 41.6455C70.1797 41.5293 69.9136 41.4717 69.645 41.478C69.3618 41.4771 69.0811 41.5308 68.8184 41.6372C68.5596 41.7412 68.3208 41.8887 68.1113 42.0732C67.9048 42.2539 67.7275 42.4658 67.5864 42.7012C67.4487 42.9292 67.354 43.1802 67.3076 43.4424C67.2627 43.6846 67.2666 43.9331 67.3184 44.1738C67.3672 44.4043 67.4658 44.6216 67.6064 44.8105C67.75 45.001 67.936 45.1553 68.1499 45.2607C68.3926 45.3765 68.6587 45.4341 68.9272 45.4277C69.2119 45.4297 69.4941 45.3755 69.7573 45.2671L69.7563 45.2681ZM68.5103 43.0786C68.5649 42.9575 68.6392 42.8467 68.7295 42.7495C68.8198 42.6523 68.9277 42.5732 69.0479 42.5161C69.1772 42.4561 69.3184 42.4258 69.4609 42.4282C69.5928 42.4243 69.7236 42.4526 69.8418 42.5107C69.9419 42.562 70.0249 42.6411 70.0815 42.7383C70.1387 42.8389 70.1753 42.9502 70.1885 43.0649C70.2036 43.1909 70.1997 43.3188 70.1768 43.4434C70.1538 43.5732 70.1138 43.6997 70.0581 43.8193C70.0024 43.9409 69.9287 44.0537 69.8403 44.1543C69.751 44.2544 69.6426 44.3354 69.521 44.3921C69.3906 44.4521 69.248 44.4819 69.105 44.48C68.9722 44.4849 68.8403 44.4556 68.7222 44.3945C68.6235 44.3413 68.5415 44.2612 68.4854 44.1641C68.4277 44.063 68.3916 43.9507 68.3789 43.835C68.3643 43.708 68.3682 43.5796 68.3911 43.4536C68.4146 43.3237 68.4546 43.1973 68.5107 43.0776L68.5103 43.0786ZM73.9937 45.3965L74.8442 45.3965L75.5312 41.5L74.4614 41.5L74.1123 43.481L72.8975 41.5L72.063 41.5L71.376 45.3965L72.4463 45.3965L72.7842 43.481L73.9937 45.3965ZM75.168 45.3965L76.2603 45.3965L76.626 44.6333L77.6631 44.6333L77.7646 45.3965L78.8511 45.3965L78.2979 41.5L77.1016 41.5L75.168 45.3965ZM76.9102 43.9199L77.5142 42.5483L77.6177 43.9199L76.9102 43.9199L76.9102 43.9199ZM82.0117 45.3965L82.1763 44.4634L80.4092 44.4634L80.9316 41.5L79.8613 41.5L79.1748 45.3965L82.0117 45.3965L82.0117 45.3965ZM7.81885 50.1523L8.02979 48.9561L8.6665 48.9561C8.91553 48.958 9.16016 48.8906 9.37256 48.7612C9.58545 48.6333 9.76904 48.4624 9.91113 48.2593C10.0508 48.0645 10.1455 47.8418 10.1885 47.606C10.2178 47.4443 10.2144 47.2783 10.1787 47.1177C10.1445 46.9604 10.0781 46.8115 9.98389 46.6812C9.88916 46.5508 9.76465 46.4448 9.62158 46.3711C9.46436 46.292 9.29053 46.2524 9.11475 46.2559L7.43555 46.2559L6.74854 50.1523L7.81885 50.1523ZM8.34131 47.189L8.87891 47.189C8.92432 47.1895 8.96826 47.2017 9.00732 47.2246C9.05273 47.2539 9.08594 47.2988 9.1001 47.3511C9.12158 47.4351 9.12207 47.5225 9.10205 47.6069C9.08936 47.6938 9.06055 47.7773 9.01709 47.854C8.9873 47.9072 8.94434 47.9526 8.89258 47.9858C8.85254 48.0098 8.80664 48.0229 8.75977 48.0239L8.19434 48.0239L8.34131 47.189ZM13.231 46.2559L12.9771 47.6938L11.6704 47.6938L11.9243 46.2559L10.854 46.2559L10.167 50.1523L11.2368 50.1523L11.5059 48.627L12.812 48.627L12.5435 50.1523L13.6133 50.1523L14.3003 46.2559L13.2305 46.2559L13.231 46.2559ZM13.9375 50.1523L15.0298 50.1523L15.3955 49.3896L16.4326 49.3896L16.5342 50.1523L17.6206 50.1523L17.0674 46.2559L15.8711 46.2559L13.9375 50.1523ZM15.6797 48.6763L16.2832 47.3042L16.3872 48.6763L15.6792 48.6763L15.6797 48.6763ZM19.0137 50.1523L19.2246 48.9561L19.6582 48.9561L20.1338 50.1523L21.3081 50.1523L20.7378 48.7202C20.8682 48.6362 20.9873 48.5356 21.0913 48.4204C21.1953 48.3062 21.2827 48.1777 21.3506 48.0391C21.4185 47.9023 21.4663 47.7563 21.4932 47.6055C21.522 47.4438 21.5186 47.2778 21.4829 47.1172C21.4487 46.96 21.3828 46.8115 21.2881 46.6812C21.1934 46.5508 21.0693 46.4443 20.9258 46.3711C20.769 46.292 20.5952 46.2524 20.4194 46.2559L18.6304 46.2559L17.9434 50.1519L19.0132 50.1519L19.0137 50.1523ZM19.5366 47.189L20.1841 47.189C20.2305 47.1899 20.2749 47.2075 20.3096 47.2383C20.353 47.2754 20.3848 47.3237 20.4009 47.3784C20.4224 47.4526 20.4243 47.5308 20.4077 47.606C20.395 47.6855 20.3677 47.7617 20.3267 47.8311C20.2944 47.8867 20.2515 47.9351 20.2002 47.9736C20.1616 48.0039 20.1143 48.0215 20.0654 48.0229L19.3901 48.0229L19.5366 47.189ZM25.6646 50.1523L26.3516 46.2559L25.189 46.2559L24.0205 48.0889L23.5039 46.2559L22.335 46.2559L21.6479 50.1523L22.7183 50.1523L23.0801 48.1001L23.479 49.5435L24.0498 49.5435L24.957 48.1001L24.5952 50.1523L25.665 50.1523L25.6646 50.1523ZM25.9883 50.1523L27.0806 50.1523L27.4463 49.3896L28.4834 49.3896L28.585 50.1523L29.6719 50.1523L29.1182 46.2559L27.9219 46.2559L25.9883 50.1523ZM27.7305 48.6763L28.334 47.3042L28.438 48.6763L27.73 48.6763L27.7305 48.6763ZM29.9839 48.9038C30.0342 49.1377 30.1328 49.3579 30.2734 49.5513C30.4146 49.7446 30.5991 49.9028 30.812 50.0122C31.0483 50.1318 31.3101 50.1909 31.5747 50.1851C31.8101 50.1836 32.0435 50.1475 32.2686 50.0781C32.5039 50.0088 32.728 49.9043 32.9321 49.7681C33.125 49.644 33.2856 49.4771 33.4028 49.2798L32.6221 48.7583C32.5635 48.8687 32.481 48.9644 32.3804 49.0386C32.2876 49.106 32.1841 49.1572 32.0742 49.1895C31.9736 49.2192 31.8691 49.2349 31.7642 49.2358C31.6387 49.2393 31.5142 49.2109 31.4028 49.1538C31.3027 49.1006 31.2192 49.022 31.1602 48.9258C31.0986 48.8242 31.0591 48.7114 31.043 48.5938C31.0249 48.4644 31.0278 48.333 31.0513 48.2041C31.0742 48.0791 31.1133 47.957 31.1675 47.8418C31.2231 47.7222 31.2964 47.6108 31.3848 47.5127C31.4736 47.4136 31.5815 47.3325 31.7012 47.2739C31.8301 47.2119 31.9717 47.1807 32.1152 47.1826C32.2153 47.1826 32.3154 47.1968 32.4121 47.2236C32.5107 47.251 32.6021 47.3013 32.6777 47.3701C32.7598 47.4492 32.814 47.5532 32.8311 47.6665L33.7515 47.0845C33.6582 46.8252 33.4771 46.6064 33.2393 46.4673C32.9551 46.3032 32.6309 46.2222 32.3032 46.2339C32.0063 46.2314 31.7114 46.2881 31.437 46.4014C31.1772 46.5088 30.938 46.6602 30.7295 46.8486C30.5303 47.0283 30.3608 47.2383 30.2275 47.4707C30.1021 47.6875 30.0146 47.9238 29.9697 48.1704C29.9258 48.4136 29.9307 48.6626 29.9839 48.9038L29.9839 48.9038ZM34.6978 50.1523L35.3843 46.2559L34.3145 46.2559L33.6274 50.1523L34.6978 50.1523ZM38.8062 46.646C38.6992 46.5879 38.5737 46.5254 38.4302 46.4595C38.2783 46.3911 38.1211 46.335 37.96 46.2925C37.7842 46.2456 37.6025 46.2227 37.4204 46.2236C37.1655 46.2236 36.9126 46.2749 36.6777 46.3745C36.4424 46.4727 36.2324 46.624 36.0649 46.8164C35.8896 47.0225 35.7749 47.2734 35.7344 47.5405C35.6992 47.7017 35.7051 47.8687 35.7524 48.0264C35.8027 48.1655 35.8945 48.2861 36.0151 48.3721C36.1729 48.4839 36.3457 48.5713 36.5288 48.6328C36.6772 48.6841 36.813 48.729 36.936 48.7671C37.0381 48.7969 37.1367 48.8374 37.2305 48.8882C37.2632 48.9033 37.29 48.9292 37.3062 48.9614C37.3223 48.9941 37.3271 49.0308 37.3198 49.0664C37.3145 49.0923 37.3042 49.1167 37.2886 49.1382C37.2729 49.1597 37.2524 49.1772 37.2295 49.1899C37.1504 49.2266 37.0635 49.2427 36.9771 49.2363C36.8291 49.2368 36.6821 49.2144 36.5415 49.1704C36.4116 49.1309 36.2856 49.0815 36.1641 49.0225C36.0386 48.959 35.9175 48.8877 35.8013 48.8086L35.1748 49.7471C35.3257 49.8433 35.4863 49.9233 35.6538 49.9854C35.8364 50.0542 36.0244 50.1074 36.2158 50.1445C36.4048 50.1826 36.5972 50.2017 36.79 50.2021C36.9746 50.2021 37.1587 50.1807 37.3389 50.1392C37.52 50.0981 37.6929 50.0283 37.8525 49.9336C38.0137 49.8364 38.1528 49.7065 38.2603 49.5522C38.3794 49.375 38.458 49.1733 38.4902 48.9619C38.5376 48.7661 38.5239 48.5605 38.4517 48.3721C38.3779 48.2183 38.2583 48.0903 38.1099 48.0063C37.9263 47.9004 37.7314 47.8154 37.5288 47.7539C37.3872 47.7061 37.2651 47.666 37.1631 47.6333C37.0806 47.6099 37.0024 47.5728 36.9326 47.5234C36.9082 47.5054 36.8896 47.481 36.8789 47.4526C36.8682 47.4243 36.8662 47.3936 36.873 47.3643C36.8774 47.3315 36.8906 47.3013 36.9106 47.2754C36.9302 47.249 36.9565 47.229 36.9868 47.2158C37.0605 47.1851 37.1396 47.1699 37.2197 47.1724C37.3374 47.1724 37.4551 47.1909 37.5669 47.2271C37.6743 47.2607 37.7788 47.3022 37.8799 47.3506C37.9868 47.4033 38.0898 47.4629 38.189 47.5288L38.8062 46.646ZM42.4746 46.2563L39.1602 46.2563L38.9956 47.1895L40.1206 47.1895L39.5977 50.1528L40.668 50.1528L41.1904 47.1895L42.3101 47.1895L42.4746 46.2563ZM45.6162 46.646C45.5093 46.5879 45.3843 46.5254 45.2402 46.4595C45.0884 46.3911 44.9316 46.335 44.7705 46.2925C44.5942 46.2456 44.4131 46.2227 44.231 46.2236C43.9756 46.2236 43.7231 46.2749 43.4883 46.3745C43.2524 46.4727 43.043 46.624 42.8755 46.8164C42.7002 47.0225 42.5854 47.2734 42.5444 47.5405C42.5093 47.7017 42.5156 47.8687 42.563 48.0264C42.6133 48.1655 42.7046 48.2866 42.8257 48.3721C42.9834 48.4839 43.1562 48.5713 43.3394 48.6328C43.4878 48.6841 43.6235 48.729 43.7466 48.7671C43.8486 48.7969 43.9473 48.8374 44.0405 48.8882C44.0737 48.9033 44.1001 48.9292 44.1167 48.9614C44.1328 48.9941 44.1377 49.0308 44.1299 49.0664C44.125 49.0923 44.1143 49.1167 44.0986 49.1382C44.083 49.1597 44.063 49.1772 44.0396 49.1899C43.9609 49.2266 43.874 49.2427 43.7871 49.2363C43.6396 49.2368 43.4927 49.2148 43.3516 49.1704C43.2222 49.1309 43.0962 49.0815 42.9741 49.0225C42.8486 48.959 42.7275 48.8877 42.6113 48.8086L41.9849 49.7471C42.1357 49.8433 42.2964 49.9233 42.4644 49.9854C42.6465 50.0542 42.8345 50.1074 43.0259 50.1445C43.2153 50.1826 43.4077 50.2017 43.6006 50.2021C43.7852 50.2021 43.9692 50.1807 44.1494 50.1392C44.3301 50.0981 44.5034 50.0283 44.6631 49.9336C44.8242 49.8364 44.9634 49.7065 45.0703 49.5522C45.1899 49.375 45.2686 49.1733 45.3008 48.9619C45.3477 48.7661 45.3345 48.5605 45.2617 48.3721C45.188 48.2183 45.0688 48.0903 44.9204 48.0063C44.7368 47.9004 44.542 47.8154 44.3394 47.7539C44.1973 47.7061 44.0757 47.666 43.9736 47.6333C43.8911 47.6099 43.813 47.5728 43.7432 47.5234C43.7188 47.5054 43.7002 47.481 43.6895 47.4526C43.6787 47.4243 43.6768 47.3936 43.6836 47.3643C43.688 47.3315 43.7012 47.3013 43.7212 47.2754C43.7407 47.249 43.7671 47.229 43.7974 47.2158C43.8711 47.1851 43.9502 47.1699 44.0303 47.1724C44.1479 47.1724 44.2656 47.1909 44.3774 47.2271C44.4849 47.2607 44.5894 47.3022 44.6904 47.3506C44.7974 47.4033 44.9004 47.4629 44.9995 47.5288L45.6162 46.646ZM46.2876 50.1528L47.3799 50.1528L47.7456 49.3901L48.7827 49.3901L48.8843 50.1528L49.9707 50.1528L49.4175 46.2563L48.2212 46.2563L46.2876 50.1528ZM48.0298 48.6768L48.6333 47.3047L48.7368 48.6768L48.0293 48.6768L48.0298 48.6768ZM53.689 46.646C53.582 46.5879 53.4565 46.5254 53.313 46.4595C53.1611 46.3911 53.0039 46.335 52.8428 46.2925C52.667 46.2456 52.4854 46.2227 52.3037 46.2236C52.0483 46.2236 51.7954 46.2749 51.5605 46.3745C51.3252 46.4727 51.1152 46.624 50.9478 46.8164C50.7725 47.0225 50.6582 47.2734 50.6172 47.5405C50.582 47.7017 50.5884 47.8687 50.6353 48.0264C50.6855 48.1655 50.7773 48.2861 50.8984 48.3721C51.0557 48.4839 51.229 48.5718 51.4121 48.6328C51.5601 48.6841 51.6958 48.729 51.8193 48.7671C51.9214 48.7969 52.02 48.8374 52.1133 48.8882C52.1465 48.9033 52.1729 48.9292 52.1895 48.9614C52.2056 48.9941 52.2104 49.0308 52.2026 49.0664C52.1978 49.0923 52.187 49.1167 52.1714 49.1382C52.1558 49.1597 52.1357 49.1772 52.1123 49.1899C52.0337 49.2266 51.9468 49.2427 51.8599 49.2363C51.7124 49.2368 51.5654 49.2144 51.4243 49.1704C51.2949 49.1309 51.1689 49.0815 51.0469 49.0225C50.9214 48.959 50.8003 48.8877 50.6841 48.8086L50.0576 49.7471C50.2085 49.8433 50.3691 49.9233 50.5371 49.9854C50.7192 50.0542 50.9072 50.1074 51.0986 50.1445C51.2881 50.1826 51.4805 50.2017 51.6733 50.2021C51.8579 50.2021 52.042 50.1807 52.2222 50.1392C52.4028 50.0981 52.5762 50.0283 52.7358 49.9336C52.897 49.8364 53.0356 49.7065 53.1431 49.5522C53.2627 49.375 53.3413 49.1733 53.373 48.9619C53.4204 48.7661 53.4072 48.5605 53.3345 48.3721C53.2607 48.2183 53.1416 48.0903 52.9932 48.0063C52.8096 47.9004 52.6147 47.8154 52.4116 47.7539C52.27 47.7061 52.1484 47.666 52.0459 47.6333C51.9634 47.6099 51.8857 47.5728 51.8154 47.5234C51.791 47.5054 51.7725 47.481 51.7617 47.4526C51.7515 47.4243 51.7495 47.3936 51.7559 47.3643C51.7607 47.332 51.7734 47.3013 51.7935 47.2754C51.8135 47.249 51.8398 47.229 51.8696 47.2158C51.9434 47.1851 52.0229 47.1699 52.1025 47.1724C52.2207 47.1724 52.3379 47.1909 52.4502 47.2271C52.5571 47.2607 52.6621 47.3022 52.7632 47.3506C52.8701 47.4033 52.9731 47.4629 53.0718 47.5288L53.689 46.646ZM57.0747 46.646C56.9678 46.5879 56.8428 46.5254 56.6987 46.4595C56.5474 46.3911 56.3901 46.335 56.229 46.2925C56.0527 46.2456 55.8716 46.2227 55.6895 46.2236C55.4341 46.2236 55.1816 46.2749 54.9468 46.3745C54.7109 46.4727 54.5015 46.624 54.334 46.8164C54.1587 47.0225 54.0439 47.2734 54.0029 47.5405C53.9683 47.7017 53.9741 47.8687 54.0215 48.0264C54.0718 48.1655 54.1636 48.2861 54.2842 48.3721C54.4419 48.4839 54.6152 48.5713 54.7983 48.6328C54.9463 48.6841 55.082 48.729 55.2051 48.7671C55.3071 48.7969 55.4058 48.8374 55.4995 48.8882C55.5322 48.9033 55.5591 48.9292 55.5752 48.9614C55.5913 48.9941 55.5962 49.0308 55.5889 49.0664C55.5835 49.0923 55.5732 49.1167 55.5576 49.1382C55.542 49.1597 55.5215 49.1772 55.4985 49.1899C55.4194 49.2266 55.3325 49.2427 55.2461 49.2363C55.0981 49.2368 54.9512 49.2148 54.8105 49.1704C54.6812 49.1309 54.5547 49.0815 54.4331 49.0225C54.3076 48.959 54.1865 48.8877 54.0703 48.8086L53.4438 49.7471C53.5947 49.8433 53.7554 49.9233 53.9229 49.9854C54.1055 50.0542 54.2935 50.1074 54.4849 50.1445C54.6738 50.1826 54.8662 50.2017 55.0591 50.2021C55.2437 50.2021 55.4277 50.1807 55.6079 50.1392C55.7891 50.0981 55.9624 50.0283 56.1216 49.9336C56.2827 49.8364 56.4219 49.7065 56.5293 49.5522C56.6484 49.375 56.7271 49.1733 56.7593 48.9619C56.8066 48.7661 56.793 48.5605 56.7207 48.3721C56.647 48.2183 56.5273 48.0903 56.3789 48.0063C56.1953 47.9004 56.0005 47.8154 55.7979 47.7539C55.6562 47.7061 55.5342 47.666 55.4321 47.6333C55.3496 47.6099 55.272 47.5728 55.2017 47.5234C55.1772 47.5054 55.1587 47.481 55.1479 47.4526C55.1377 47.4243 55.1353 47.3936 55.1421 47.3643C55.147 47.332 55.1597 47.3013 55.1797 47.2754C55.1997 47.249 55.2261 47.229 55.2559 47.2158C55.3296 47.1851 55.4092 47.1699 55.4888 47.1724C55.6069 47.1724 55.7241 47.1909 55.8364 47.2271C55.9434 47.2607 56.0479 47.3022 56.1494 47.3506C56.2559 47.4033 56.3594 47.4629 56.458 47.5288L57.0747 46.646ZM59.6016 50.0239C59.8599 49.9175 60.0981 49.7695 60.3076 49.585C60.5137 49.4043 60.6904 49.1924 60.8301 48.9565C60.9648 48.73 61.0581 48.481 61.1045 48.2212C61.1484 47.9805 61.1445 47.7334 61.0928 47.4941C61.0435 47.2632 60.9463 47.0449 60.8076 46.854C60.6665 46.6616 60.481 46.5063 60.2671 46.4009C60.0249 46.2852 59.7588 46.2275 59.4902 46.2339C59.2065 46.2324 58.9258 46.2866 58.6636 46.3931C58.4043 46.4971 58.165 46.6445 57.9556 46.8291C57.7485 47.0098 57.5713 47.2222 57.4302 47.4575C57.2925 47.6851 57.1982 47.9365 57.1514 48.1982C57.1069 48.4404 57.1104 48.6895 57.1621 48.9302C57.2114 49.1606 57.3096 49.3779 57.4507 49.5664C57.5938 49.7573 57.7798 49.9116 57.9941 50.0166C58.2363 50.1328 58.5024 50.1899 58.7715 50.1841C59.0562 50.186 59.3384 50.1313 59.6021 50.0234L59.6016 50.0239ZM58.3555 47.8345C58.4102 47.7134 58.4844 47.6025 58.5747 47.5049C58.665 47.4077 58.7734 47.3286 58.8931 47.272C59.0225 47.2114 59.1636 47.1816 59.3062 47.1841C59.438 47.1797 59.5688 47.208 59.687 47.2661C59.7871 47.3179 59.8701 47.397 59.9268 47.4941C59.9839 47.5947 60.0205 47.7056 60.0337 47.8208C60.0488 47.9468 60.0449 48.0742 60.022 48.1992C59.9985 48.3291 59.959 48.4556 59.9033 48.5752C59.8477 48.6968 59.7739 48.8096 59.6855 48.9102C59.5962 49.0103 59.4878 49.0918 59.3662 49.1484C59.2358 49.2085 59.0938 49.2388 58.9502 49.2363C58.8174 49.2412 58.6855 49.2119 58.5669 49.1514C58.4688 49.0977 58.3867 49.0181 58.3306 48.9209C58.2729 48.8193 58.2368 48.7075 58.2241 48.5918C58.2095 48.4648 58.2134 48.3359 58.2363 48.2104C58.2598 48.0801 58.2998 47.9536 58.3555 47.834L58.3555 47.8345ZM61.3687 48.9043C61.4189 49.1382 61.5176 49.3589 61.6577 49.5522C61.7993 49.7456 61.9839 49.9033 62.1968 50.0132C62.4326 50.1323 62.6948 50.1914 62.959 50.186C63.1943 50.1841 63.4282 50.1479 63.6528 50.0786C63.8887 50.0093 64.1123 49.9048 64.3169 49.7686C64.5093 49.6445 64.6704 49.4775 64.7871 49.2803L64.0063 48.7588C63.9478 48.8691 63.8652 48.9648 63.7651 49.0391C63.6724 49.1064 63.5688 49.1577 63.4585 49.1899C63.3579 49.2197 63.2534 49.2354 63.1484 49.2363C63.0229 49.2397 62.8989 49.2114 62.7871 49.1543C62.6875 49.1016 62.6035 49.0225 62.5449 48.9263C62.4834 48.8247 62.4434 48.7119 62.4277 48.5942C62.4092 48.4648 62.4121 48.3335 62.436 48.2046C62.4585 48.0796 62.4976 47.9575 62.5522 47.8428C62.6074 47.7227 62.6807 47.6118 62.769 47.5132C62.8584 47.4141 62.9658 47.333 63.0854 47.2744C63.2144 47.2124 63.3564 47.1812 63.4995 47.1831C63.6001 47.1831 63.7002 47.1973 63.7969 47.2241C63.8955 47.2515 63.9863 47.3018 64.062 47.3706C64.1445 47.4497 64.1982 47.5537 64.2153 47.667L65.1357 47.0854C65.043 46.8257 64.8623 46.6074 64.6245 46.4678C64.3408 46.3037 64.0166 46.2231 63.689 46.2349C63.3916 46.2319 63.0972 46.2891 62.8223 46.4019C62.5625 46.5093 62.3232 46.6606 62.1152 46.8491C61.916 47.0288 61.7466 47.2388 61.6133 47.4712C61.4873 47.688 61.3999 47.9243 61.355 48.1709C61.311 48.4136 61.3159 48.6631 61.3687 48.9038L61.3687 48.9043ZM66.082 50.1528L66.769 46.2563L65.6987 46.2563L65.0122 50.1528L66.082 50.1528ZM66.4058 50.1528L67.498 50.1528L67.8638 49.3901L68.9009 49.3901L69.0024 50.1528L70.0894 50.1528L69.5356 46.2563L68.3394 46.2563L66.4058 50.1528ZM68.1479 48.6768L68.7515 47.3047L68.8555 48.6768L68.1475 48.6768L68.1479 48.6768ZM73.7773 46.2563L70.4634 46.2563L70.2988 47.1895L71.4238 47.1895L70.9009 50.1528L71.9712 50.1528L72.4937 47.1895L73.6133 47.1895L73.7773 46.2563ZM74.5498 50.1528L75.2368 46.2563L74.167 46.2563L73.4795 50.1528L74.5498 50.1528ZM77.7993 50.0249C78.0571 49.9185 78.2959 49.77 78.5054 49.5859C78.7114 49.4053 78.8877 49.1934 79.0273 48.9575C79.1626 48.731 79.2554 48.4819 79.3018 48.2222C79.3457 47.9814 79.3418 47.7344 79.29 47.4951C79.2412 47.2642 79.144 47.0459 79.0049 46.855C78.8643 46.6626 78.6787 46.5068 78.4648 46.4019C78.2227 46.2856 77.9561 46.2285 77.6875 46.2349C77.4043 46.2334 77.1235 46.2876 76.8613 46.3936C76.6025 46.498 76.3633 46.645 76.1538 46.8291C75.9473 47.0098 75.77 47.2222 75.6289 47.4575C75.4912 47.6851 75.3965 47.9365 75.3501 48.1982C75.3052 48.4404 75.3091 48.6895 75.3608 48.9302C75.4097 49.1606 75.5083 49.3774 75.6489 49.5664C75.7925 49.7573 75.9785 49.9116 76.1924 50.0166C76.4351 50.1328 76.7012 50.1899 76.9697 50.1841C77.2544 50.186 77.5361 50.1313 77.7993 50.0234L77.7993 50.0249ZM76.5527 47.8354C76.6079 47.7144 76.6821 47.6035 76.7725 47.5059C76.8628 47.4087 76.9707 47.3296 77.0908 47.2729C77.2202 47.2124 77.3613 47.1826 77.5039 47.1851C77.6357 47.1807 77.7666 47.209 77.8848 47.2671C77.9849 47.3188 78.0679 47.3975 78.1245 47.4951C78.1816 47.5957 78.2183 47.7065 78.2314 47.8213C78.2466 47.9478 78.2427 48.0752 78.2197 48.2002C78.1963 48.3301 78.1567 48.4565 78.1011 48.5762C78.0454 48.6978 77.9717 48.8105 77.8828 48.9106C77.7939 49.0112 77.6851 49.0928 77.5635 49.1494C77.4336 49.2095 77.291 49.2397 77.1479 49.2373C77.0146 49.2422 76.8828 49.2129 76.7646 49.1523C76.666 49.0986 76.5845 49.019 76.5283 48.9219C76.4707 48.8203 76.4346 48.7085 76.4219 48.5928C76.4067 48.4653 76.4111 48.3369 76.4341 48.2109C76.4575 48.0806 76.4971 47.9541 76.5532 47.834L76.5527 47.8354ZM82.0352 50.1538L82.8857 50.1538L83.5728 46.2573L82.5029 46.2573L82.1533 48.2388L80.9385 46.2573L80.1045 46.2573L79.4175 50.1538L80.4878 50.1538L80.8252 48.2388L82.0352 50.1538Z" fill="#000000" fill-opacity="1.000000" fill-rule="evenodd"/>
		<path id="Manitoba international pharmacists association copy" d="M12.7827 41.5L11.6191 41.5L10.4512 43.333L9.93457 41.5L8.76562 41.5L8.07861 45.3965L9.14893 45.3965L9.51074 43.3438L9.90918 44.7871L10.48 44.7871L11.3877 43.3438L11.0254 45.3965L12.0957 45.3965L12.7827 41.5ZM13.5117 45.3965L13.8774 44.6333L14.9146 44.6333L15.0161 45.3965L16.1025 45.3965L15.5488 41.5L14.3521 41.5L12.4194 45.3965L13.5117 45.3965ZM14.7651 42.5483L14.8691 43.9199L14.1611 43.9199L14.1616 43.9199L14.7651 42.5483ZM19.894 45.3965L20.5811 41.5L19.5107 41.5L19.1616 43.481L17.9468 41.5L17.1128 41.5L16.4258 45.3965L17.4956 45.3965L17.8335 43.481L19.0435 45.3965L19.894 45.3965ZM22.3203 41.5L21.2505 41.5L20.5635 45.3965L21.6338 45.3965L22.3203 41.5ZM22.71 41.5L22.5454 42.4326L23.6704 42.4326L23.1479 45.3965L24.2183 45.3965L24.7407 42.4326L25.8604 42.4326L26.0249 41.5L22.71 41.5ZM28.9531 44.8291C29.1592 44.6489 29.3354 44.4365 29.4756 44.2007C29.6104 43.9741 29.7036 43.7251 29.7495 43.4653C29.7939 43.2246 29.7896 42.9775 29.7383 42.7383C29.689 42.5073 29.5918 42.2891 29.4526 42.0981C29.312 41.9058 29.1265 41.7505 28.9126 41.6455C28.6704 41.5293 28.4038 41.4717 28.1353 41.478C27.8521 41.4771 27.5713 41.5308 27.3086 41.6372C27.0498 41.7412 26.8105 41.8892 26.6011 42.0732C26.394 42.2544 26.2168 42.4663 26.0757 42.7017C25.938 42.9297 25.8433 43.1807 25.7969 43.4424C25.7524 43.6851 25.7559 43.9336 25.8076 44.1743C25.8569 44.4048 25.9551 44.6221 26.0962 44.811C26.2393 45.0015 26.4253 45.1558 26.6396 45.2607C26.8818 45.377 27.1479 45.4346 27.4165 45.4282C27.7017 45.4302 27.9839 45.3755 28.2471 45.2671L28.2471 45.2681C28.5049 45.1621 28.7437 45.0137 28.9531 44.8291ZM27.2202 42.7495C27.3105 42.6523 27.4185 42.5732 27.5386 42.5161C27.668 42.4561 27.8091 42.4258 27.9517 42.4282C28.0835 42.4243 28.2144 42.4526 28.3325 42.5107C28.4326 42.562 28.5156 42.6411 28.5723 42.7383C28.6294 42.8389 28.666 42.9502 28.6792 43.0649C28.6943 43.1909 28.6904 43.3188 28.6675 43.4434C28.644 43.5732 28.6045 43.6997 28.5488 43.8193C28.4932 43.9409 28.4194 44.0537 28.3306 44.1543C28.2417 44.2544 28.1333 44.3354 28.0117 44.3921C27.8813 44.4521 27.7388 44.4819 27.5952 44.48C27.4624 44.4849 27.3311 44.4556 27.2124 44.3945C27.1143 44.3413 27.0322 44.2612 26.9761 44.1641C26.9185 44.063 26.8823 43.9507 26.8696 43.835C26.8545 43.708 26.8589 43.5796 26.8818 43.4536C26.9048 43.3237 26.9443 43.1973 27 43.0776L27.0005 43.0786C27.0557 42.958 27.1299 42.8467 27.2202 42.7495ZM32.8076 43.3994C33.002 43.3213 33.1704 43.1899 33.2944 43.021C33.4106 42.8672 33.4902 42.689 33.5264 42.4995C33.5557 42.3408 33.5479 42.1772 33.5034 42.022C33.4634 41.875 33.3794 41.7441 33.2622 41.6465C33.1348 41.5454 32.9756 41.4932 32.813 41.5L30.5522 41.5L29.8652 45.3965L31.7808 45.3965C32.0249 45.3979 32.2676 45.3628 32.5015 45.292C32.7124 45.23 32.9058 45.1191 33.0659 44.9683C33.2222 44.8145 33.3237 44.6143 33.356 44.3975C33.4106 44.1772 33.3823 43.9448 33.2764 43.7446L33.2764 43.7451C33.1689 43.5757 33.0015 43.4521 32.8076 43.3994ZM32.105 44.459C32.0537 44.4844 31.9966 44.4976 31.939 44.4971L31.0942 44.4971L31.2095 43.8442L32.0928 43.8442C32.1416 43.8423 32.1895 43.8579 32.2275 43.8882C32.2637 43.9189 32.29 43.96 32.3027 44.0059C32.3184 44.0625 32.3203 44.1216 32.3081 44.1787C32.2983 44.2402 32.2739 44.2983 32.2368 44.3481L32.2368 44.3491C32.2026 44.3955 32.1572 44.4331 32.105 44.459ZM32.3481 42.4419C32.3838 42.4629 32.4111 42.4961 32.4253 42.5352C32.4419 42.5913 32.4438 42.6509 32.4302 42.708C32.4214 42.7759 32.395 42.8403 32.3535 42.8945C32.3208 42.936 32.2773 42.9678 32.228 42.9863C32.1826 43.0024 32.1348 43.0107 32.0864 43.0107L31.3564 43.0107L31.4619 42.4126L32.2246 42.4126L32.2246 42.4116C32.2676 42.4106 32.3105 42.4209 32.3481 42.4419ZM34.3047 45.397L34.6704 44.6343L35.7075 44.6343L35.8091 45.397L36.8955 45.397L36.3423 41.501L35.146 41.501L33.2124 45.397L34.3047 45.397ZM35.5581 42.5488L35.6621 43.9209L34.9541 43.9209L34.9546 43.9209L35.5581 42.5488ZM40.0459 41.501L38.9756 41.501L38.2886 45.397L39.3589 45.397L40.0459 41.501ZM43.4966 45.397L44.1836 41.501L43.1133 41.501L42.7642 43.4819L41.5493 41.501L40.7153 41.501L40.0283 45.397L41.0981 45.397L41.436 43.4819L42.646 45.397L43.4966 45.397ZM44.5732 41.501L44.4087 42.4336L45.5337 42.4336L45.0107 45.397L46.0811 45.397L46.6035 42.4336L47.7231 42.4336L47.8877 41.501L44.5732 41.501ZM48.9336 43.8496L50.3491 43.8496L50.502 42.9824L49.0864 42.9824L49.1831 42.4336L50.8403 42.4336L51.0049 41.501L48.2778 41.501L47.5908 45.397L50.3677 45.397L50.5322 44.4644L48.8252 44.4644L48.8252 44.4644L48.9336 43.8496ZM52.1475 44.2007L52.5811 44.2007L53.0566 45.397L54.2314 45.397L53.6606 43.9648C53.7915 43.8813 53.9106 43.7808 54.0151 43.666C54.1191 43.5513 54.2065 43.4229 54.2744 43.2842C54.3423 43.1475 54.3901 43.0015 54.4165 42.8511C54.4458 42.689 54.4424 42.5229 54.4067 42.3623C54.3726 42.2051 54.3066 42.0566 54.2124 41.9263C54.1172 41.7959 53.9932 41.6895 53.8496 41.6162C53.6929 41.5371 53.519 41.4976 53.3433 41.501L51.5542 41.501L50.8672 45.397L51.9375 45.397L51.937 45.397L52.1475 44.2007ZM53.1069 42.4336C53.1533 42.4346 53.1978 42.4521 53.2324 42.4834C53.2759 42.5205 53.3076 42.5688 53.3242 42.623C53.3452 42.6973 53.3472 42.7754 53.3306 42.8511C53.3179 42.9302 53.2905 43.0068 53.2495 43.0757C53.2173 43.1313 53.1743 43.1797 53.123 43.2188C53.0845 43.249 53.0371 43.2661 52.9883 43.2681L52.313 43.2681L52.4595 42.4336L53.1069 42.4336ZM58.0391 45.397L58.7261 41.501L57.6562 41.501L57.3071 43.4819L56.0923 41.501L55.2578 41.501L54.5708 45.397L55.6411 45.397L55.979 43.4819L57.1885 45.397L58.0391 45.397ZM59.4551 45.397L59.8208 44.6343L60.8579 44.6343L60.9595 45.397L62.0459 45.397L61.4927 41.501L60.2964 41.501L58.3628 45.397L59.4551 45.397ZM60.7085 42.5488L60.8125 43.9209L60.1045 43.9209L60.105 43.9209L60.7085 42.5488ZM62.4194 41.501L62.2549 42.4336L63.3799 42.4336L62.8574 45.397L63.9277 45.397L64.4502 42.4336L65.5693 42.4336L65.7344 41.501L62.4194 41.501ZM67.1938 41.501L66.124 41.501L65.4365 45.397L66.5068 45.397L67.1938 41.501ZM70.4624 44.8291C70.6685 44.6489 70.8452 44.4365 70.9849 44.2007C71.1196 43.9741 71.2129 43.7251 71.2593 43.4653C71.3032 43.2246 71.2993 42.9775 71.2476 42.7383C71.1982 42.5073 71.1011 42.2891 70.9624 42.0981C70.8213 41.9058 70.6362 41.7505 70.4219 41.6455C70.1797 41.5293 69.9136 41.4717 69.645 41.478C69.3618 41.4771 69.0811 41.5308 68.8184 41.6372C68.5596 41.7412 68.3208 41.8887 68.1113 42.0732C67.9048 42.2539 67.7275 42.4658 67.5864 42.7012C67.4487 42.9292 67.354 43.1802 67.3076 43.4424C67.2627 43.6846 67.2666 43.9331 67.3184 44.1738C67.3672 44.4043 67.4658 44.6216 67.6064 44.8105C67.75 45.001 67.936 45.1553 68.1499 45.2607C68.3926 45.3765 68.6587 45.4341 68.9272 45.4277C69.2119 45.4297 69.4941 45.3755 69.7573 45.2671L69.7563 45.2681C70.0146 45.1621 70.2529 45.0137 70.4624 44.8291ZM68.7295 42.7495C68.8198 42.6523 68.9277 42.5732 69.0479 42.5161C69.1772 42.4561 69.3184 42.4258 69.4609 42.4282C69.5928 42.4243 69.7236 42.4526 69.8418 42.5107C69.9419 42.562 70.0249 42.6411 70.0815 42.7383C70.1387 42.8389 70.1753 42.9502 70.1885 43.0649C70.2036 43.1909 70.1997 43.3188 70.1768 43.4434C70.1538 43.5732 70.1138 43.6997 70.0581 43.8193C70.0024 43.9409 69.9287 44.0537 69.8403 44.1543C69.751 44.2544 69.6426 44.3354 69.521 44.3921C69.3906 44.4521 69.248 44.4819 69.105 44.48C68.9722 44.4849 68.8403 44.4556 68.7222 44.3945C68.6235 44.3413 68.5415 44.2612 68.4854 44.1641C68.4277 44.063 68.3916 43.9507 68.3789 43.835C68.3643 43.708 68.3682 43.5796 68.3911 43.4536C68.4146 43.3237 68.4546 43.1973 68.5107 43.0776L68.5103 43.0786C68.5649 42.9575 68.6392 42.8467 68.7295 42.7495ZM74.8442 45.3965L75.5312 41.5L74.4614 41.5L74.1123 43.481L72.8975 41.5L72.063 41.5L71.376 45.3965L72.4463 45.3965L72.7842 43.481L73.9937 45.3965L74.8442 45.3965ZM76.2603 45.3965L76.626 44.6333L77.6631 44.6333L77.7646 45.3965L78.8511 45.3965L78.2979 41.5L77.1016 41.5L75.168 45.3965L76.2603 45.3965ZM77.5142 42.5483L77.6177 43.9199L76.9102 43.9199L76.9102 43.9199L77.5142 42.5483ZM82.1763 44.4634L80.4092 44.4634L80.9316 41.5L79.8613 41.5L79.1748 45.3965L82.0117 45.3965L82.0117 45.3965L82.1763 44.4634ZM8.02979 48.9561L8.6665 48.9561C8.91553 48.958 9.16016 48.8906 9.37256 48.7612C9.58545 48.6333 9.76904 48.4624 9.91113 48.2593C10.0508 48.0645 10.1455 47.8418 10.1885 47.606C10.2178 47.4443 10.2144 47.2783 10.1787 47.1177C10.1445 46.9604 10.0781 46.8115 9.98389 46.6812C9.88916 46.5508 9.76465 46.4448 9.62158 46.3711C9.46436 46.292 9.29053 46.2524 9.11475 46.2559L7.43555 46.2559L6.74854 50.1523L7.81885 50.1523L8.02979 48.9561ZM8.87891 47.189C8.92432 47.1895 8.96826 47.2017 9.00732 47.2246C9.05273 47.2539 9.08594 47.2988 9.1001 47.3511C9.12158 47.4351 9.12207 47.5225 9.10205 47.6069C9.08936 47.6938 9.06055 47.7773 9.01709 47.854C8.9873 47.9072 8.94434 47.9526 8.89258 47.9858C8.85254 48.0098 8.80664 48.0229 8.75977 48.0239L8.19434 48.0239L8.34131 47.189L8.87891 47.189ZM12.9771 47.6938L11.6704 47.6938L11.9243 46.2559L10.854 46.2559L10.167 50.1523L11.2368 50.1523L11.5059 48.627L12.812 48.627L12.5435 50.1523L13.6133 50.1523L14.3003 46.2559L13.2305 46.2559L13.231 46.2559L12.9771 47.6938ZM15.0298 50.1523L15.3955 49.3896L16.4326 49.3896L16.5342 50.1523L17.6206 50.1523L17.0674 46.2559L15.8711 46.2559L13.9375 50.1523L15.0298 50.1523ZM16.2832 47.3042L16.3872 48.6763L15.6792 48.6763L15.6797 48.6763L16.2832 47.3042ZM19.2246 48.9561L19.6582 48.9561L20.1338 50.1523L21.3081 50.1523L20.7378 48.7202C20.8682 48.6362 20.9873 48.5356 21.0913 48.4204C21.1953 48.3062 21.2827 48.1777 21.3506 48.0391C21.4185 47.9023 21.4663 47.7563 21.4932 47.6055C21.522 47.4438 21.5186 47.2778 21.4829 47.1172C21.4487 46.96 21.3828 46.8115 21.2881 46.6812C21.1934 46.5508 21.0693 46.4443 20.9258 46.3711C20.769 46.292 20.5952 46.2524 20.4194 46.2559L18.6304 46.2559L17.9434 50.1519L19.0132 50.1519L19.0137 50.1523L19.2246 48.9561ZM20.1841 47.189C20.2305 47.1899 20.2749 47.2075 20.3096 47.2383C20.353 47.2754 20.3848 47.3237 20.4009 47.3784C20.4224 47.4526 20.4243 47.5308 20.4077 47.606C20.395 47.6855 20.3677 47.7617 20.3267 47.8311C20.2944 47.8867 20.2515 47.9351 20.2002 47.9736C20.1616 48.0039 20.1143 48.0215 20.0654 48.0229L19.3901 48.0229L19.5366 47.189L20.1841 47.189ZM26.3516 46.2559L25.189 46.2559L24.0205 48.0889L23.5039 46.2559L22.335 46.2559L21.6479 50.1523L22.7183 50.1523L23.0801 48.1001L23.479 49.5435L24.0498 49.5435L24.957 48.1001L24.5952 50.1523L25.665 50.1523L25.6646 50.1523L26.3516 46.2559ZM27.0806 50.1523L27.4463 49.3896L28.4834 49.3896L28.585 50.1523L29.6719 50.1523L29.1182 46.2559L27.9219 46.2559L25.9883 50.1523L27.0806 50.1523ZM28.334 47.3042L28.438 48.6763L27.73 48.6763L27.7305 48.6763L28.334 47.3042ZM30.2734 49.5513C30.4146 49.7446 30.5991 49.9028 30.812 50.0122C31.0483 50.1318 31.3101 50.1909 31.5747 50.1851C31.8101 50.1836 32.0435 50.1475 32.2686 50.0781C32.5039 50.0088 32.728 49.9043 32.9321 49.7681C33.125 49.644 33.2856 49.4771 33.4028 49.2798L32.6221 48.7583C32.5635 48.8687 32.481 48.9644 32.3804 49.0386C32.2876 49.106 32.1841 49.1572 32.0742 49.1895C31.9736 49.2192 31.8691 49.2349 31.7642 49.2358C31.6387 49.2393 31.5142 49.2109 31.4028 49.1538C31.3027 49.1006 31.2192 49.022 31.1602 48.9258C31.0986 48.8242 31.0591 48.7114 31.043 48.5938C31.0249 48.4644 31.0278 48.333 31.0513 48.2041C31.0742 48.0791 31.1133 47.957 31.1675 47.8418C31.2231 47.7222 31.2964 47.6108 31.3848 47.5127C31.4736 47.4136 31.5815 47.3325 31.7012 47.2739C31.8301 47.2119 31.9717 47.1807 32.1152 47.1826C32.2153 47.1826 32.3154 47.1968 32.4121 47.2236C32.5107 47.251 32.6021 47.3013 32.6777 47.3701C32.7598 47.4492 32.814 47.5532 32.8311 47.6665L33.7515 47.0845C33.6582 46.8252 33.4771 46.6064 33.2393 46.4673C32.9551 46.3032 32.6309 46.2222 32.3032 46.2339C32.0063 46.2314 31.7114 46.2881 31.437 46.4014C31.1772 46.5088 30.938 46.6602 30.7295 46.8486C30.5303 47.0283 30.3608 47.2383 30.2275 47.4707C30.1021 47.6875 30.0146 47.9238 29.9697 48.1704C29.9258 48.4136 29.9307 48.6626 29.9839 48.9038L29.9839 48.9038C30.0342 49.1377 30.1328 49.3579 30.2734 49.5513ZM35.3843 46.2559L34.3145 46.2559L33.6274 50.1523L34.6978 50.1523L35.3843 46.2559ZM38.4302 46.4595C38.2783 46.3911 38.1211 46.335 37.96 46.2925C37.7842 46.2456 37.6025 46.2227 37.4204 46.2236C37.1655 46.2236 36.9126 46.2749 36.6777 46.3745C36.4424 46.4727 36.2324 46.624 36.0649 46.8164C35.8896 47.0225 35.7754 47.2734 35.7344 47.5405C35.6992 47.7017 35.7051 47.8687 35.7524 48.0264C35.8027 48.1655 35.8945 48.2861 36.0151 48.3721C36.1729 48.4839 36.3457 48.5713 36.5288 48.6328C36.6772 48.6841 36.813 48.729 36.936 48.7671C37.0381 48.7969 37.1367 48.8374 37.2305 48.8882C37.2632 48.9033 37.29 48.9292 37.3062 48.9614C37.3223 48.9941 37.3271 49.0308 37.3198 49.0664C37.3145 49.0923 37.3042 49.1167 37.2886 49.1382C37.2729 49.1597 37.2524 49.1772 37.2295 49.1899C37.1504 49.2266 37.0635 49.2427 36.9771 49.2363C36.8291 49.2368 36.6821 49.2144 36.5415 49.1704C36.4116 49.1309 36.2856 49.0815 36.1641 49.0225C36.0386 48.959 35.9175 48.8877 35.8013 48.8086L35.1748 49.7471C35.3257 49.8433 35.4863 49.9233 35.6538 49.9854C35.8364 50.0542 36.0244 50.1074 36.2158 50.1445C36.4048 50.1826 36.5972 50.2017 36.79 50.2021C36.9746 50.2021 37.1587 50.1807 37.3389 50.1392C37.52 50.0981 37.6929 50.0283 37.8525 49.9336C38.0137 49.8364 38.1528 49.7065 38.2603 49.5522C38.3794 49.375 38.458 49.1733 38.4902 48.9619C38.5376 48.7661 38.5239 48.5605 38.4517 48.3721C38.3779 48.2183 38.2583 48.0903 38.1099 48.0063C37.9263 47.9004 37.7314 47.8154 37.5288 47.7539C37.3872 47.7061 37.2651 47.666 37.1631 47.6333C37.0806 47.6099 37.0024 47.5728 36.9326 47.5234C36.9082 47.5054 36.8896 47.481 36.8789 47.4526C36.8682 47.4243 36.8662 47.3936 36.873 47.3643C36.8774 47.3315 36.8906 47.3013 36.9106 47.2754C36.9302 47.249 36.9565 47.229 36.9868 47.2158C37.0605 47.1851 37.1396 47.1699 37.2197 47.1724C37.3374 47.1724 37.4551 47.1909 37.5669 47.2271C37.6743 47.2607 37.7788 47.3022 37.8799 47.3506C37.9868 47.4033 38.0898 47.4629 38.189 47.5288L38.8062 46.646C38.6992 46.5879 38.5737 46.5254 38.4302 46.4595ZM39.1602 46.2563L38.9956 47.1895L40.1206 47.1895L39.5977 50.1528L40.668 50.1528L41.1904 47.1895L42.3101 47.1895L42.4746 46.2563L39.1602 46.2563ZM45.2402 46.4595C45.0884 46.3911 44.9316 46.335 44.7705 46.2925C44.5942 46.2456 44.4131 46.2227 44.231 46.2236C43.9756 46.2236 43.7231 46.2749 43.4883 46.3745C43.2524 46.4727 43.043 46.624 42.8755 46.8164C42.7002 47.0225 42.5854 47.2734 42.5444 47.5405C42.5093 47.7017 42.5156 47.8687 42.563 48.0264C42.6133 48.1655 42.7046 48.2866 42.8257 48.3721C42.9834 48.4839 43.1562 48.5713 43.3394 48.6328C43.4878 48.6841 43.6235 48.729 43.7466 48.7671C43.8486 48.7969 43.9473 48.8374 44.0405 48.8882C44.0737 48.9033 44.1001 48.9292 44.1167 48.9614C44.1328 48.9941 44.1377 49.0308 44.1299 49.0664C44.125 49.0923 44.1143 49.1167 44.0986 49.1382C44.083 49.1597 44.063 49.1772 44.0396 49.1899C43.9609 49.2266 43.874 49.2427 43.7871 49.2363C43.6396 49.2368 43.4927 49.2148 43.3516 49.1704C43.2222 49.1309 43.0962 49.0815 42.9741 49.0225C42.8486 48.959 42.7275 48.8877 42.6113 48.8086L41.9849 49.7471C42.1357 49.8433 42.2964 49.9233 42.4644 49.9854C42.6465 50.0542 42.8345 50.1074 43.0259 50.1445C43.2153 50.1826 43.4077 50.2017 43.6006 50.2021C43.7852 50.2021 43.9692 50.1807 44.1494 50.1392C44.3301 50.0981 44.5034 50.0283 44.6631 49.9336C44.8242 49.8364 44.9634 49.7065 45.0703 49.5522C45.1899 49.375 45.2686 49.1733 45.3008 48.9619C45.3477 48.7661 45.3345 48.5605 45.2617 48.3721C45.188 48.2183 45.0688 48.0903 44.9204 48.0063C44.7368 47.9004 44.542 47.8154 44.3394 47.7539C44.1973 47.7061 44.0757 47.666 43.9736 47.6333C43.8911 47.6099 43.813 47.5728 43.7432 47.5234C43.7188 47.5054 43.7002 47.481 43.6895 47.4526C43.6787 47.4243 43.6768 47.3936 43.6836 47.3643C43.688 47.3315 43.7012 47.3013 43.7212 47.2754C43.7407 47.249 43.7671 47.229 43.7974 47.2158C43.8711 47.1851 43.9502 47.1699 44.0303 47.1724C44.1479 47.1724 44.2656 47.1909 44.3774 47.2271C44.4849 47.2607 44.5894 47.3022 44.6904 47.3506C44.7974 47.4033 44.9004 47.4629 44.9995 47.5288L45.6162 46.646C45.5093 46.5879 45.3843 46.5254 45.2402 46.4595ZM47.3799 50.1528L47.7456 49.3901L48.7827 49.3901L48.8843 50.1528L49.9707 50.1528L49.4175 46.2563L48.2212 46.2563L46.2876 50.1528L47.3799 50.1528ZM48.6333 47.3047L48.7368 48.6768L48.0293 48.6768L48.0298 48.6768L48.6333 47.3047ZM53.313 46.4595C53.1611 46.3911 53.0039 46.335 52.8428 46.2925C52.667 46.2456 52.4854 46.2227 52.3037 46.2236C52.0483 46.2236 51.7954 46.2749 51.5605 46.3745C51.3252 46.4727 51.1152 46.624 50.9478 46.8164C50.7725 47.0225 50.6582 47.2734 50.6172 47.5405C50.582 47.7017 50.5884 47.8687 50.6353 48.0264C50.6855 48.1655 50.7773 48.2861 50.8984 48.3721C51.0557 48.4839 51.229 48.5718 51.4121 48.6328C51.5601 48.6841 51.6958 48.729 51.8193 48.7671C51.9214 48.7969 52.02 48.8374 52.1133 48.8882C52.1465 48.9033 52.1729 48.9292 52.1895 48.9614C52.2056 48.9941 52.2104 49.0308 52.2026 49.0664C52.1978 49.0923 52.187 49.1167 52.1714 49.1382C52.1558 49.1597 52.1357 49.1772 52.1123 49.1899C52.0337 49.2266 51.9468 49.2427 51.8599 49.2363C51.7124 49.2368 51.5654 49.2144 51.4243 49.1704C51.2949 49.1309 51.1689 49.0815 51.0469 49.0225C50.9214 48.959 50.8003 48.8877 50.6841 48.8086L50.0576 49.7471C50.2085 49.8433 50.3691 49.9233 50.5371 49.9854C50.7192 50.0542 50.9072 50.1074 51.0986 50.1445C51.2881 50.1826 51.4805 50.2017 51.6733 50.2021C51.8579 50.2021 52.042 50.1807 52.2222 50.1392C52.4028 50.0981 52.5762 50.0283 52.7358 49.9336C52.897 49.8364 53.0356 49.7065 53.1431 49.5522C53.2627 49.375 53.3413 49.1733 53.3735 48.9619C53.4204 48.7661 53.4072 48.5605 53.3345 48.3721C53.2607 48.2183 53.1416 48.0903 52.9932 48.0063C52.8096 47.9004 52.6147 47.8154 52.4116 47.7539C52.27 47.7061 52.1484 47.666 52.0459 47.6333C51.9634 47.6099 51.8857 47.5728 51.8154 47.5234C51.791 47.5054 51.7725 47.481 51.7617 47.4526C51.7515 47.4243 51.7495 47.3936 51.7559 47.3643C51.7607 47.332 51.7734 47.3013 51.7935 47.2754C51.8135 47.249 51.8398 47.229 51.8696 47.2158C51.9434 47.1851 52.0229 47.1699 52.1025 47.1724C52.2207 47.1724 52.3379 47.1909 52.4502 47.2271C52.5571 47.2607 52.6621 47.3022 52.7632 47.3506C52.8696 47.4033 52.9731 47.4629 53.0718 47.5288L53.689 46.646C53.582 46.5879 53.4565 46.5254 53.313 46.4595ZM56.6987 46.4595C56.5474 46.3911 56.3901 46.335 56.229 46.2925C56.0527 46.2456 55.8716 46.2227 55.6895 46.2236C55.4341 46.2236 55.1816 46.2749 54.9468 46.3745C54.7109 46.4727 54.5015 46.624 54.334 46.8164C54.1587 47.0225 54.0439 47.2734 54.0029 47.5405C53.9683 47.7017 53.9741 47.8687 54.0215 48.0264C54.0718 48.1655 54.1636 48.2861 54.2842 48.3721C54.4419 48.4839 54.6152 48.5713 54.7983 48.6328C54.9463 48.6841 55.082 48.729 55.2051 48.7671C55.3071 48.7969 55.4058 48.8374 55.4995 48.8882C55.5322 48.9033 55.5591 48.9292 55.5752 48.9614C55.5913 48.9941 55.5962 49.0308 55.5889 49.0664C55.584 49.0923 55.5732 49.1167 55.5576 49.1382C55.542 49.1597 55.5215 49.1772 55.4985 49.1899C55.4194 49.2266 55.3325 49.2427 55.2461 49.2363C55.0981 49.2368 54.9512 49.2148 54.8105 49.1704C54.6812 49.1309 54.5547 49.0815 54.4331 49.0225C54.3076 48.959 54.1865 48.8877 54.0703 48.8086L53.4438 49.7471C53.5947 49.8433 53.7554 49.9233 53.9229 49.9854C54.1055 50.0542 54.2935 50.1074 54.4849 50.1445C54.6738 50.1826 54.8662 50.2017 55.0591 50.2021C55.2437 50.2021 55.4277 50.1807 55.6079 50.1392C55.7891 50.0981 55.9624 50.0283 56.1216 49.9336C56.2827 49.8364 56.4219 49.7065 56.5293 49.5522C56.6484 49.375 56.7271 49.1733 56.7593 48.9619C56.8066 48.7661 56.793 48.5605 56.7207 48.3721C56.647 48.2183 56.5273 48.0903 56.3789 48.0063C56.1953 47.9004 56.0005 47.8154 55.7979 47.7539C55.6562 47.7061 55.5342 47.666 55.4321 47.6333C55.3496 47.6099 55.272 47.5728 55.2017 47.5234C55.1772 47.5054 55.1587 47.481 55.1479 47.4526C55.1377 47.4243 55.1353 47.3936 55.1421 47.3643C55.147 47.332 55.1597 47.3013 55.1797 47.2754C55.1997 47.249 55.2261 47.229 55.2559 47.2158C55.3296 47.1851 55.4092 47.1699 55.4888 47.1724C55.6069 47.1724 55.7241 47.1909 55.8364 47.2271C55.9434 47.2607 56.0479 47.3022 56.1494 47.3506C56.2559 47.4033 56.3594 47.4629 56.458 47.5288L57.0747 46.646C56.9678 46.5879 56.8428 46.5254 56.6987 46.4595ZM60.3076 49.585C60.5137 49.4043 60.6904 49.1924 60.8301 48.9565C60.9648 48.73 61.0581 48.481 61.1045 48.2212C61.1484 47.9805 61.1445 47.7334 61.0928 47.4941C61.0435 47.2632 60.9463 47.0449 60.8076 46.854C60.6665 46.6616 60.481 46.5063 60.2671 46.4009C60.0249 46.2852 59.7588 46.2275 59.4902 46.2339C59.2065 46.2324 58.9258 46.2866 58.6636 46.3931C58.4043 46.4971 58.165 46.6445 57.9556 46.8291C57.7485 47.0098 57.5713 47.2222 57.4302 47.4575C57.2925 47.6851 57.1982 47.9365 57.1514 48.1982C57.1069 48.4404 57.1104 48.6895 57.1621 48.9302C57.2114 49.1606 57.3096 49.3779 57.4507 49.5664C57.5938 49.7573 57.7798 49.9116 57.9941 50.0166C58.2363 50.1328 58.5024 50.1899 58.7715 50.1841C59.0562 50.186 59.3384 50.1313 59.6021 50.0234L59.6016 50.0239C59.8599 49.9175 60.0981 49.7695 60.3076 49.585ZM58.5747 47.5049C58.665 47.4077 58.7734 47.3286 58.8931 47.272C59.0225 47.2114 59.1636 47.1816 59.3062 47.1841C59.438 47.1797 59.5688 47.208 59.687 47.2661C59.7871 47.3179 59.8701 47.397 59.9268 47.4941C59.9839 47.5947 60.0205 47.7056 60.0337 47.8208C60.0488 47.9468 60.0449 48.0742 60.022 48.1992C59.9985 48.3291 59.959 48.4556 59.9033 48.5752C59.8477 48.6968 59.7739 48.8096 59.6855 48.9102C59.5962 49.0103 59.4878 49.0918 59.3662 49.1484C59.2358 49.2085 59.0938 49.2388 58.9502 49.2363C58.8174 49.2412 58.6855 49.2119 58.5669 49.1514C58.4688 49.0977 58.3867 49.0181 58.3306 48.9209C58.2729 48.8193 58.2368 48.7075 58.2241 48.5918C58.2095 48.4648 58.2134 48.3359 58.2363 48.2104C58.2598 48.0801 58.2998 47.9536 58.3555 47.834L58.3555 47.8345C58.4102 47.7134 58.4844 47.6025 58.5747 47.5049ZM61.6577 49.5522C61.7993 49.7456 61.9839 49.9033 62.1968 50.0132C62.4326 50.1323 62.6948 50.1914 62.959 50.186C63.1943 50.1841 63.4282 50.1479 63.6528 50.0786C63.8887 50.0093 64.1123 49.9048 64.3169 49.7686C64.5093 49.6445 64.6704 49.4775 64.7871 49.2803L64.0063 48.7588C63.9478 48.8691 63.8652 48.9648 63.7651 49.0391C63.6724 49.1064 63.5688 49.1577 63.4585 49.1899C63.3579 49.2197 63.2534 49.2354 63.1484 49.2363C63.0229 49.2397 62.8989 49.2114 62.7871 49.1543C62.6875 49.1016 62.6035 49.0225 62.5449 48.9263C62.4834 48.8247 62.4434 48.7119 62.4277 48.5942C62.4092 48.4648 62.4121 48.3335 62.436 48.2046C62.4585 48.0796 62.4976 47.9575 62.5522 47.8428C62.6074 47.7227 62.6807 47.6118 62.769 47.5132C62.8584 47.4141 62.9658 47.333 63.0854 47.2744C63.2144 47.2124 63.3564 47.1812 63.4995 47.1831C63.6001 47.1831 63.7002 47.1973 63.7969 47.2241C63.8955 47.2515 63.9863 47.3018 64.062 47.3706C64.1445 47.4497 64.1982 47.5537 64.2153 47.667L65.1357 47.0854C65.043 46.8257 64.8623 46.6074 64.6245 46.4678C64.3408 46.3037 64.0166 46.2231 63.689 46.2349C63.3916 46.2319 63.0972 46.2891 62.8223 46.4019C62.5625 46.5093 62.3232 46.6606 62.1152 46.8491C61.916 47.0288 61.7466 47.2388 61.6133 47.4712C61.4873 47.688 61.3999 47.9243 61.355 48.1709C61.311 48.4136 61.3159 48.6631 61.3687 48.9038L61.3687 48.9043C61.4189 49.1382 61.5176 49.3589 61.6577 49.5522ZM66.769 46.2563L65.6987 46.2563L65.0122 50.1528L66.082 50.1528L66.769 46.2563ZM67.498 50.1528L67.8638 49.3901L68.9009 49.3901L69.0024 50.1528L70.0894 50.1528L69.5356 46.2563L68.3394 46.2563L66.4058 50.1528L67.498 50.1528ZM68.7515 47.3047L68.8555 48.6768L68.1475 48.6768L68.1479 48.6768L68.7515 47.3047ZM70.4634 46.2563L70.2988 47.1895L71.4238 47.1895L70.9009 50.1528L71.9712 50.1528L72.4937 47.1895L73.6133 47.1895L73.7773 46.2563L70.4634 46.2563ZM75.2368 46.2563L74.167 46.2563L73.4795 50.1528L74.5498 50.1528L75.2368 46.2563ZM78.5054 49.5859C78.7114 49.4053 78.8877 49.1934 79.0273 48.9575C79.1626 48.731 79.2554 48.4819 79.3018 48.2222C79.3457 47.9814 79.3418 47.7344 79.29 47.4951C79.2412 47.2642 79.144 47.0459 79.0049 46.855C78.8643 46.6626 78.6787 46.5068 78.4648 46.4019C78.2227 46.2856 77.9561 46.2285 77.6875 46.2349C77.4043 46.2334 77.1235 46.2876 76.8613 46.3936C76.6025 46.498 76.3633 46.645 76.1538 46.8291C75.9473 47.0098 75.77 47.2222 75.6289 47.4575C75.4912 47.6851 75.3965 47.9365 75.3501 48.1982C75.3052 48.4404 75.3091 48.6895 75.3608 48.9302C75.4097 49.1606 75.5083 49.3774 75.6489 49.5664C75.7925 49.7573 75.9785 49.9116 76.1924 50.0166C76.4351 50.1328 76.7012 50.1899 76.9697 50.1841C77.2544 50.186 77.5361 50.1313 77.7993 50.0234L77.7993 50.0249C78.0571 49.9185 78.2959 49.77 78.5054 49.5859ZM76.7725 47.5059C76.8628 47.4087 76.9707 47.3296 77.0908 47.2729C77.2202 47.2124 77.3613 47.1826 77.5039 47.1851C77.6357 47.1807 77.7666 47.209 77.8848 47.2671C77.9849 47.3188 78.0679 47.3975 78.1245 47.4951C78.1816 47.5957 78.2183 47.7065 78.2314 47.8213C78.2466 47.9478 78.2427 48.0752 78.2197 48.2002C78.1963 48.3301 78.1567 48.4565 78.1011 48.5762C78.0454 48.6978 77.9717 48.8105 77.8828 48.9106C77.7939 49.0112 77.6851 49.0928 77.5635 49.1494C77.4336 49.2095 77.291 49.2397 77.1479 49.2373C77.0151 49.2422 76.8828 49.2129 76.7646 49.1523C76.666 49.0986 76.5845 49.019 76.5283 48.9219C76.4707 48.8203 76.4346 48.7085 76.4219 48.5928C76.4067 48.4653 76.4111 48.3369 76.4341 48.2109C76.4575 48.0806 76.4971 47.9541 76.5532 47.834L76.5527 47.8354C76.6079 47.7144 76.6821 47.6035 76.7725 47.5059ZM82.8857 50.1538L83.5728 46.2573L82.5029 46.2573L82.1533 48.2388L80.9385 46.2573L80.1045 46.2573L79.4175 50.1538L80.4878 50.1538L80.8252 48.2388L82.0352 50.1538L82.8857 50.1538Z" stroke="#000000" stroke-opacity="1.000000" stroke-width="0.182927"/>
		<path id="MIPA copy" d="M34.9424 39.4741L38.1182 17.395L32.7402 17.395L27.3394 27.7817L24.9512 17.395L19.5479 17.395L16.3721 39.4741L21.3188 39.4741L22.9922 27.8438L24.8345 36.0225L27.4731 36.0225L31.6685 27.8438L29.9956 39.4741L34.9424 39.4741ZM42.9844 39.4741L46.1606 17.395L41.2134 17.395L38.0376 39.4741L42.9844 39.4741ZM51.0264 39.4741L52.0015 32.6948L54.9443 32.6948C56.125 32.6963 57.2729 32.3081 58.2109 31.5908C59.23 30.8267 60.0781 29.8574 60.7007 28.7456C61.3594 27.605 61.7939 26.3491 61.981 25.0449C62.1152 24.126 62.1001 23.1914 61.9351 22.2773C61.7852 21.4062 61.4805 20.5688 61.0352 19.8052C60.624 19.0952 60.0498 18.4932 59.3599 18.0488C58.6592 17.6084 57.8457 17.3813 57.0181 17.396L49.2554 17.396L46.0796 39.4741L51.0264 39.4741L51.0264 39.4741ZM53.4424 22.6816L55.9282 22.6816C56.1421 22.6851 56.3491 22.7554 56.5205 22.8828C56.7422 23.0645 56.894 23.3174 56.9507 23.5981C57.0479 24.0752 57.0503 24.5664 56.958 25.0439C56.9023 25.5283 56.77 26.0005 56.5664 26.4434C56.4375 26.7354 56.2397 26.9912 55.9902 27.1899C55.813 27.3247 55.5981 27.4009 55.3755 27.4077L52.7622 27.4077L53.4424 22.6816ZM58.9673 39.4741L64.0161 39.4741L65.7036 35.1519L70.4985 35.1519L70.9673 39.4741L75.9902 39.4741L73.4326 17.395L67.9023 17.395L58.9673 39.4741ZM67.0205 31.1089L69.813 23.3345L70.2935 31.1089L67.0205 31.1089Z" fill="#FFFFFF" fill-opacity="1.000000" fill-rule="evenodd"/>
		<path id="MIPA copy" d="M38.1182 17.395L32.7402 17.395L27.3394 27.7817L24.9512 17.395L19.5479 17.395L16.3721 39.4741L21.3188 39.4741L22.9922 27.8438L24.8345 36.0225L27.4731 36.0225L31.6685 27.8438L29.9956 39.4741L34.9424 39.4741L38.1182 17.395ZM46.1606 17.395L41.2134 17.395L38.0376 39.4741L42.9844 39.4741L46.1606 17.395ZM52.0015 32.6948L54.9443 32.6948C56.125 32.6963 57.2729 32.3081 58.2109 31.5908C59.23 30.8267 60.0781 29.8574 60.7007 28.7456C61.3594 27.605 61.7939 26.3491 61.981 25.0449C62.1152 24.126 62.1001 23.1914 61.9351 22.2773C61.7852 21.4062 61.4805 20.5688 61.0352 19.8052C60.624 19.0952 60.0498 18.4932 59.3599 18.0488C58.6592 17.6084 57.8457 17.3813 57.0181 17.396L49.2554 17.396L46.0796 39.4741L51.0264 39.4741L51.0264 39.4741L52.0015 32.6948ZM55.9282 22.6816C56.1421 22.6851 56.3491 22.7554 56.5205 22.8828C56.7422 23.0645 56.894 23.3174 56.9507 23.5981C57.0479 24.0752 57.0503 24.5664 56.958 25.0439C56.9023 25.5283 56.77 26.0005 56.5664 26.4434C56.4375 26.7354 56.2397 26.9912 55.9902 27.1899C55.813 27.3247 55.5981 27.4009 55.3755 27.4077L52.7622 27.4077L53.4424 22.6816L55.9282 22.6816ZM64.0161 39.4741L65.7036 35.1519L70.4985 35.1519L70.9673 39.4741L75.9902 39.4741L73.4326 17.395L67.9023 17.395L58.9673 39.4741L64.0161 39.4741ZM69.813 23.3345L70.2935 31.1089L67.0205 31.1089L69.813 23.3345Z" stroke="#191919" stroke-opacity="1.000000" stroke-width="0.914634" stroke-linejoin="round"/>
	</g>
</svg>
