<svg width="52.000000" height="52.000000" viewBox="0 0 52 52" fill="none" xmlns="http://www.w3.org/2000/svg" xmlns:xlink="http://www.w3.org/1999/xlink">
	<desc>
			Created with Pixso.
	</desc>
	<defs/>
	<path id="Star 1" d="M25.4321 0.492676L20.666 4.62793C20.4648 4.80225 20.1948 4.87451 19.9336 4.82422L13.7383 3.62598C13.3145 3.54443 12.8955 3.78613 12.7544 4.19385L10.6943 10.1582C10.6074 10.4097 10.4097 10.6074 10.1582 10.6943L4.19385 12.7544C3.78613 12.8955 3.54443 13.3145 3.62598 13.7383L4.82422 19.9336C4.87451 20.1948 4.80225 20.4648 4.62793 20.666L0.492676 25.4321C0.209961 25.7578 0.209961 26.2422 0.492676 26.5679L4.62793 31.334C4.80225 31.5352 4.87451 31.8052 4.82422 32.0664L3.62598 38.2617C3.54443 38.6855 3.78613 39.1045 4.19385 39.2456L10.1582 41.3057C10.4097 41.3926 10.6074 41.5903 10.6943 41.8418L12.7544 47.8062C12.8955 48.2139 13.3145 48.4561 13.7383 48.374L19.9336 47.1758C20.1948 47.1255 20.4648 47.1978 20.666 47.3721L25.4321 51.5073C25.7578 51.79 26.2422 51.79 26.5679 51.5073L31.334 47.3721C31.5352 47.1978 31.8052 47.1255 32.0664 47.1758L38.2617 48.374C38.6855 48.4556 39.1045 48.2139 39.2456 47.8062L41.3057 41.8418C41.3926 41.5903 41.5903 41.3926 41.8418 41.3057L47.8062 39.2456C48.2139 39.1045 48.4561 38.6855 48.374 38.2617L47.1758 32.0664C47.1255 31.8052 47.1978 31.5352 47.3721 31.334L51.5073 26.5679C51.79 26.2422 51.79 25.7578 51.5073 25.4321L47.3721 20.666C47.1978 20.4648 47.1255 20.1948 47.1758 19.9336L48.374 13.7383C48.4561 13.3145 48.2139 12.8955 47.8062 12.7544L41.8418 10.6943C41.5903 10.6074 41.3926 10.4097 41.3057 10.1582L39.2456 4.19385C39.1045 3.78613 38.6855 3.54395 38.2617 3.62598L32.0664 4.82422C31.8052 4.87451 31.5352 4.80225 31.334 4.62793L26.5679 0.492676C26.2422 0.209961 25.7578 0.209961 25.4321 0.492676Z" fill="#02BD01" fill-opacity="1.000000" fill-rule="evenodd"/>
	<path id="Vector 10" d="M12.6831 24.0972L22.1953 34.8779L39.3174 17.7559" stroke="#FFFFFF" stroke-opacity="1.000000" stroke-width="3.804878" stroke-linejoin="round" stroke-linecap="round"/>
</svg>
