<svg width="28.312500" height="23.695312" viewBox="0 0 28.3125 23.6953" fill="none" xmlns="http://www.w3.org/2000/svg" xmlns:xlink="http://www.w3.org/1999/xlink">
	<desc>
			Created with Pixso.
	</desc>
	<defs/>
	<path id="“" d="M12.2812 17.6484C12.2812 21.0234 9.49219 23.6953 6.23438 23.6953C3.07031 23.6953 0 21.3047 0 16.2188C0 11.3203 3.72656 3.63281 11.3203 0L11.4141 0.28125C8.71875 3.35156 6.51562 6.82031 5.36719 11.6953L6.14062 11.6953C9.58594 11.6953 12.2812 14.2969 12.2812 17.6484ZM28.3125 17.6484C28.3125 21.0234 25.5234 23.6953 22.2656 23.6953C19.1016 23.6953 16.0312 21.3047 16.0312 16.2188C16.0312 11.3203 19.7578 3.63281 27.3516 0L27.4453 0.28125C24.75 3.35156 22.5469 6.82031 21.3984 11.6953L22.1719 11.6953C25.6172 11.6953 28.3125 14.2969 28.3125 17.6484Z" fill="#02BD01" fill-opacity="1.000000" fill-rule="evenodd"/>
</svg>
