<svg width="59.000000" height="58.000000" viewBox="0 0 59 58" fill="none" xmlns="http://www.w3.org/2000/svg" xmlns:xlink="http://www.w3.org/1999/xlink">
	<desc>
			Created with Pixso.
	</desc>
	<defs>
		<clipPath id="clip23_176">
			<rect id="Frame" width="32.000000" height="32.000000" transform="translate(12.000000 14.000000)" fill="white" fill-opacity="0"/>
		</clipPath>
	</defs>
	<rect id="Frame 88" rx="28.000000" width="56.000000" height="56.000000" transform="translate(0.000000 2.000000)" fill="#02BD01" fill-opacity="1.000000"/>
	<rect id="Frame" width="32.000000" height="32.000000" transform="translate(12.000000 14.000000)" fill="#FFFFFF" fill-opacity="0"/>
	<g clip-path="url(#clip23_176)">
		<path id="Vector" d="M38 43.3335C39.1045 43.3335 40 42.438 40 41.3335C40 40.229 39.1045 39.3335 38 39.3335C36.8955 39.3335 36 40.229 36 41.3335C36 42.438 36.8955 43.3335 38 43.3335Z" fill="#FFFFFF" fill-opacity="1.000000" fill-rule="nonzero"/>
		<path id="Vector" d="M40 41.3335C40 40.229 39.1045 39.3335 38 39.3335C36.8955 39.3335 36 40.229 36 41.3335C36 42.438 36.8955 43.3335 38 43.3335C39.1045 43.3335 40 42.438 40 41.3335Z" stroke="#FFFFFF" stroke-opacity="1.000000" stroke-width="2.000000" stroke-linejoin="round"/>
		<path id="Vector" d="M24.6665 43.3335C25.771 43.3335 26.6665 42.438 26.6665 41.3335C26.6665 40.229 25.771 39.3335 24.6665 39.3335C23.562 39.3335 22.6665 40.229 22.6665 41.3335C22.6665 42.438 23.562 43.3335 24.6665 43.3335Z" fill="#FFFFFF" fill-opacity="1.000000" fill-rule="nonzero"/>
		<path id="Vector" d="M26.6665 41.3335C26.6665 40.229 25.771 39.3335 24.6665 39.3335C23.562 39.3335 22.6665 40.229 22.6665 41.3335C22.6665 42.438 23.562 43.3335 24.6665 43.3335C25.771 43.3335 26.6665 42.438 26.6665 41.3335Z" stroke="#FFFFFF" stroke-opacity="1.000000" stroke-width="2.000000" stroke-linejoin="round"/>
		<path id="Vector" d="M41.3333 19.3335L38.6665 34L32.6665 34L27.3333 34L21.3333 34L18.6665 19.3335L26.3333 19.3335L33.9998 19.3335L41.3333 19.3335ZM33.9998 19.3335L32.6665 34M26.3333 19.3335L27.3333 34" stroke="#FFFFFF" stroke-opacity="1.000000" stroke-width="2.000000" stroke-linejoin="round"/>
		<path id="Vector" d="M18.6665 19.333C18.4443 18.4443 17.3333 16.6665 14.6665 16.6665" stroke="#FFFFFF" stroke-opacity="1.000000" stroke-width="2.000000" stroke-linejoin="round" stroke-linecap="round"/>
		<path id="Vector" d="M38.6667 34L21.3335 34L18.9746 34C16.5955 34 15.3335 35.0415 15.3335 36.6665C15.3335 38.2915 16.5955 39.3335 18.9746 39.3335L38.0002 39.3335" stroke="#FFFFFF" stroke-opacity="1.000000" stroke-width="2.000000" stroke-linejoin="round" stroke-linecap="round"/>
	</g>
</svg>
